<svg viewBox="0 360 2800.000000000001 1719.9999999999998" xmlns="http://www.w3.org/2000/svg" overflow="visible" xmlns:xlink="http://www.w3.org/1999/xlink" width="2800.000000000001px" height="1719.9999999999998px"><g id="Master/Scenes/Feedback Session" stroke="none" stroke-width="1" fill="none" fill-rule="evenodd"><g id="Background"><g id="Outdoor Plants" transform="translate(2.000000, 1090.000000) scale(1 1)"><g id="Outdoor Plants/Plant 1" stroke="none" stroke-width="1" fill="none" fill-rule="evenodd"><g id="Group-6" transform="translate(3.000000, 208.000000)"><path d="M199.883326,757 C199.883326,757 154.639614,615.704437 63.7021884,486.352218 C-27.2352371,357 -13.9695544,268.907181 63.7021884,246.214912 C141.373931,223.522642 267.592553,290.509829 306.646043,382.031679 C331.898655,441.210897 374.804123,628.371706 268.960535,757 C238.721051,756.165996 199.883326,757 199.883326,757 Z" id="Stroke-8" fill="#017C7F"/><path d="M180.80074,266.460237 C125.13078,13.4204746 221.50036,-21.2992546 328.620701,9.33958092 C435.741041,39.9784164 507.960342,173.305169 491.620701,300.677192 C466.681525,495.084959 320.447913,757 320.447913,757 L236.4707,757 C236.4707,598.666667 217.914047,435.153412 180.80074,266.460237 Z" id="Stroke-10" fill="#009BA0"/><path d="M299.869545,92.3392506 C301.326008,91.6825172 303.029928,92.2842179 303.76044,93.6823222 L303.857175,93.8846724 L304.316098,94.9397143 L304.887232,96.295742 C305.10977,96.8312409 305.345953,97.4073406 305.595259,98.0239333 L305.978996,98.9791786 C307.658678,103.18678 309.527498,108.198532 311.537907,114.004614 C317.270818,130.561319 322.999418,150.177346 328.343248,172.774008 C340.981111,226.213867 349.496836,287.717379 351.998041,356.891597 C354.239813,418.890863 350.075029,478.447706 339.405709,544.65636 L339.021897,547.023799 C329.749389,603.877937 316.614263,662.450624 292.750418,757.276586 C292.346063,758.883341 290.715735,759.858079 289.10898,759.453724 C287.502225,759.049369 286.527487,757.419042 286.931842,755.812287 L289.047362,747.388625 C311.539988,657.63471 324.138912,601.00352 333.100137,546.058001 C343.991922,479.275307 348.255457,419.431969 346.001959,357.108403 C343.515192,288.333464 335.05336,227.219184 322.504303,174.154847 L321.81134,171.250364 C316.714465,150.074656 311.289348,131.624212 305.868175,115.96781 L305.247809,114.188627 C303.503926,109.222351 301.87886,104.891689 300.406603,101.203688 L299.855033,99.8349225 C299.678602,99.4014064 299.50967,98.9906447 299.348457,98.6026828 L298.799647,97.2995385 L298.367875,96.3072458 C297.686818,94.7968393 298.359139,93.0203074 299.869545,92.3392506 Z" id="Path-6" fill="#090E2B" fill-rule="nonzero"/><path d="M589.575739,282.556489 C750.420208,274.363901 760.643075,407.886816 739.778496,462.864438 C715.162837,527.72606 641.307604,570.960237 582.304218,596.642758 C443.495397,657.062349 408.155852,757 408.155852,757 L286.620701,757 C286.620701,757 309.812449,296.806189 589.575739,282.556489 Z" id="Stroke-12" fill="#FFB201"/><path d="M613.533995,384.77167 C615.068698,384.147289 616.818982,384.88525 617.443363,386.419953 C618.067745,387.954656 617.329784,389.70494 615.795081,390.329322 C475.369379,447.460406 387.980539,569.583887 353.571426,757.085934 C353.272365,758.715574 351.708844,759.794222 350.079203,759.495162 C348.449563,759.196101 347.370914,757.63258 347.669975,756.002939 C382.426899,566.605602 471.067283,442.733123 613.533995,384.77167 Z" id="Path-3" fill="#090E2B" fill-rule="nonzero"/></g></g></g><path d="M2776.5,2051 C2778.433,2051 2780,2052.567 2780,2054.5 C2780,2056.36856 2778.53572,2057.89513 2776.69204,2057.99482 L2776.5,2058 L130.5,2058 C128.567003,2058 127,2056.433 127,2054.5 C127,2052.63144 128.464278,2051.10487 130.307965,2051.00518 L130.5,2051 L2776.5,2051 Z" id="Path-4-Copy" fill="#090E2B" fill-rule="nonzero"/><g id="UI Elements" transform="translate(1050.000000, 1114.000000) scale(1 1)"><g id="UI Elements/UI Card 1" stroke="none" stroke-width="1" fill="none" fill-rule="evenodd"><g id="userinterface" transform="translate(1.000000, 17.000000)"><path d="M1072.3832,793.4326 L68.6102,793.4326 C55.8452,793.4326 45.4982,783.0856 45.4982,770.3206 L45.4982,61.6156 C45.4982,48.8506 55.8452,38.5006 68.6102,38.5006 L1072.3832,38.5006 C1085.1482,38.5006 1095.4952,48.8506 1095.4952,61.6156 L1095.4952,770.3206 C1095.4952,783.0856 1085.1482,793.4326 1072.3832,793.4326 Z" id="Stroke-1-Copy" fill="#090E2B"/><path d="M1029.885,757.932 L26.112,757.932 C13.347,757.932 3,747.585 3,734.82 L3,26.115 C3,13.35 13.347,3 26.112,3 L1029.885,3 C1042.65,3 1052.997,13.35 1052.997,26.115 L1052.997,734.82 C1052.997,747.585 1042.65,757.932 1029.885,757.932 Z" id="Stroke-1" fill="#FFF"/><path d="M1029.885,4.54747351e-13 L26.112,4.54747351e-13 C11.6905975,4.54747351e-13 0,11.6926939 0,26.115 L0,734.82 C0,749.241854 11.6901458,760.932 26.112,760.932 L1029.885,760.932 C1044.30685,760.932 1055.997,749.241854 1055.997,734.82 L1055.997,26.115 C1055.997,11.6926939 1044.3064,4.54747351e-13 1029.885,4.54747351e-13 Z M26.112,6 L1029.885,6 C1040.99245,6 1049.997,15.0061616 1049.997,26.115 L1049.997,734.82 C1049.997,745.928146 1040.99315,754.932 1029.885,754.932 L26.112,754.932 C15.0038542,754.932 6,745.928146 6,734.82 L6,26.115 C6,15.0061616 15.0045468,6 26.112,6 Z" id="Stroke-1-Copy-2" fill="#090E2B" fill-rule="nonzero"/><path d="M617.1762,372.0626 L197.7822,372.0626 C160.6212,372.0626 130.4982,341.9396 130.4982,304.7786 C130.4982,267.6236 160.6212,237.5006 197.7822,237.5006 L617.1762,237.5006 C654.3342,237.5006 684.4572,267.6236 684.4572,304.7786 C684.4572,341.9396 654.3342,372.0626 617.1762,372.0626 Z" id="Stroke-5" fill="#FFB201"/><path d="M854.382,370.2114 L854.382,370.2114 C817.224,370.2114 787.098,340.0884 787.098,302.9274 C787.098,265.7724 817.224,235.6494 854.382,235.6494 C891.54,235.6494 921.663,265.7724 921.663,302.9274 C921.663,340.0884 891.54,370.2114 854.382,370.2114 Z" id="Stroke-7" fill="#C7D2F2"/><g id="cross" transform="translate(945.572500, 53.129500)" fill="#000" fill-rule="nonzero"><path d="M43.8180195,1.81801948 C45.5753788,0.0606601718 48.4246212,0.0606601718 50.1819805,1.81801948 C51.8844223,3.52046132 51.9376237,6.24760984 50.3415844,8.01409585 L50.1819805,8.18198052 L8.18198052,50.1819805 C6.4246212,51.9393398 3.5753788,51.9393398 1.81801948,50.1819805 C0.11557765,48.4795387 0.062376343,45.7523902 1.65841556,43.9859042 L1.81801948,43.8180195 L43.8180195,1.81801948 Z" id="Stroke-9"/><path d="M1.81801948,1.81801948 C3.52046132,0.11557765 6.24760984,0.062376343 8.01409585,1.65841556 L8.18198052,1.81801948 L50.1819805,43.8180195 C51.9393398,45.5753788 51.9393398,48.4246212 50.1819805,50.1819805 C48.4795387,51.8844223 45.7523902,51.9376237 43.9859042,50.3415844 L43.8180195,50.1819805 L1.81801948,8.18198052 C0.0606601718,6.4246212 0.0606601718,3.5753788 1.81801948,1.81801948 Z" id="Stroke-11"/></g><path d="M727.2462,457.5006 C737.187325,457.5006 745.2462,465.559475 745.2462,475.5006 C745.2462,485.331269 737.365417,493.321282 727.576865,493.497624 L727.2462,493.5006 L148.4982,493.5006 C138.557075,493.5006 130.4982,485.441725 130.4982,475.5006 C130.4982,465.669931 138.378983,457.679918 148.167535,457.503576 L148.4982,457.5006 L727.2462,457.5006 Z" id="Stroke-13" fill="#C7D2F2" fill-rule="nonzero"/><path d="M479.0502,564.5006 C488.991325,564.5006 497.0502,572.559475 497.0502,582.5006 C497.0502,592.331269 489.169417,600.321282 479.380865,600.497624 L479.0502,600.5006 L148.4982,600.5006 C138.557075,600.5006 130.4982,592.441725 130.4982,582.5006 C130.4982,572.669931 138.378983,564.679918 148.167535,564.503576 L148.4982,564.5006 L479.0502,564.5006 Z" id="Stroke-15" fill="#C7D2F2" fill-rule="nonzero"/></g></g></g><g id="UI Elements" transform="translate(1050.000000, 255.000000) scale(1 1)"><g id="UI Elements/UI Card 2" stroke="none" stroke-width="1" fill="none" fill-rule="evenodd"><g id="interface" transform="translate(143.000000, 108.000000)"><path d="M796.095175,592 L61.9048254,592 C52.5681131,592 45,584.43436 45,575.100698 L45,56.9014958 C45,47.5678339 52.5681131,40 61.9048254,40 L796.095175,40 C805.431887,40 813,47.5678339 813,56.9014958 L813,575.100698 C813,584.43436 805.431887,592 796.095175,592 Z" id="Stroke-1-Copy-3" fill="#090E2B"/><path d="M754.095175,555 L19.9048254,555 C10.5681131,555 3,547.43436 3,538.100698 L3,19.9014958 C3,10.5678339 10.5681131,3 19.9048254,3 L754.095175,3 C763.431887,3 771,10.5678339 771,19.9014958 L771,538.100698 C771,547.43436 763.431887,555 754.095175,555 Z" id="Stroke-1-Copy-2" fill="#FFB201"/><path d="M754.095175,0 L19.9048254,0 C8.91177633,0 0,8.91046219 0,19.9014958 L0,538.100698 C0,549.091433 8.91147822,558 19.9048254,558 L754.095175,558 C765.088522,558 774,549.091433 774,538.100698 L774,19.9014958 C774,8.91046219 765.088224,0 754.095175,0 Z M19.9048254,6 L754.095175,6 C761.774713,6 768,12.2243688 768,19.9014958 L768,538.100698 C768,545.777286 761.775252,552 754.095175,552 L19.9048254,552 C12.2247479,552 6,545.777286 6,538.100698 L6,19.9014958 C6,12.2243688 12.2252868,6 19.9048254,6 Z" id="Stroke-1-Copy-4" fill="#090E2B" fill-rule="nonzero"/><rect id="Rectangle-Copy-2" fill="#FFF" x="84" y="341" width="536" height="25" rx="12.5"/><rect id="Rectangle-Copy-3" fill-opacity=".6" fill="#FFF" x="85" y="424" width="396" height="25" rx="12.5"/><path d="M235.177833,110.81867 C227.185538,104.768093 217.382289,103.427639 207.809374,106.828905 C197.973601,110.323565 189.221893,118.526773 183.646729,129.991287 C177.384572,142.868502 175.420176,159.052394 178.619243,177.174179 C182.121285,197.012233 190.573939,213.94983 202.695283,227.017574 L203.281,227.643 L204.136979,227.092052 C240.264292,203.530099 256.549408,177.547747 253.293204,149.29804 L253.103783,147.80912 C250.655617,130.214335 244.247467,117.684846 235.177833,110.81867 Z M505.842035,232.426649 L523.827521,217.528033 C528.861168,213.397292 532.435677,210.610149 535.794008,208.241442 C544.837025,201.863199 552.104066,198.860832 560.543814,198.437223 C568.776183,198.024022 578.096647,200.09358 591.815736,205.152633 L595.844784,206.657784 C604.219635,209.820062 609.696003,212.190744 646.595195,228.237346 C648.62106,229.118348 649.549156,231.474829 648.668154,233.500695 C647.787152,235.52656 645.430671,236.454655 643.404805,235.573654 L616.305789,223.807985 C602.625476,217.896342 598.404268,216.172107 592.715497,214.027871 L589.751282,212.919169 C576.56553,208.011399 567.998703,206.073116 560.944847,206.427165 C554.360703,206.757637 548.573312,209.095584 540.929133,214.411813 L540.405031,214.778909 C537.226418,217.020856 533.770971,219.716184 528.850558,223.7549 L511.514534,238.120007 C510.961685,238.574623 510.466703,238.980504 510.047778,239.322454 C496.512415,250.370774 484.631585,251.678075 474.648986,244.098099 C467.468896,238.64612 462.189507,229.836545 455.74709,214.854426 L454.956757,212.979018 C453.652739,209.854431 450.088177,201.329237 448.669142,198.12545 L448.445809,197.626142 C444.897603,189.792141 442.048006,185.569319 439.684227,184.503585 C437.781041,183.645514 434.932355,185.322008 430.499974,191.882993 L429.538477,193.314532 C419.6629,207.895433 412.080714,214.210184 403.216181,215.935344 L402.673279,216.036778 C400.263009,216.467382 398.237762,216.553963 394.262408,216.496152 L391.572079,216.450832 C384.018715,216.356451 379.70279,216.848177 373.315547,218.985577 C364.271413,222.012067 353.865627,228.07077 341.218444,238.220629 L339.854772,239.323817 C310.35146,263.379578 272.018215,270.264603 237.983138,258.861028 C224.727086,254.419541 212.843117,247.464548 202.81987,238.379492 L202.154,237.769 L202.062088,237.825611 C175.845262,253.744999 141.02884,268.371023 97.695117,281.745545 L94.1629089,282.827224 C92.0491915,283.469481 89.8150329,282.276626 89.1727761,280.162909 C88.5305192,278.049191 89.7233737,275.815033 91.8370911,275.172776 C135.055196,262.040877 169.546753,247.807206 195.398066,232.515664 L196.358,231.943 L196.017709,231.570961 C183.545315,217.787504 174.77398,200.185397 170.95583,179.747194 L170.741057,178.564927 C167.257064,158.829121 169.429049,140.934983 176.452313,126.492661 C182.917449,113.198048 193.251996,103.511204 205.131,99.2905822 C217.194332,95.0044681 229.823674,96.7313505 240.006568,104.440322 C250.914953,112.698528 258.306392,127.150586 261.027448,146.706609 C265.47074,178.640215 248.443666,207.22332 210.263218,232.617166 L209.177,233.33 L209.630305,233.727412 C218.289656,241.242055 228.382564,247.069245 239.563664,250.947815 L240.524701,251.275486 C271.965035,261.809683 307.429352,255.439945 334.799364,233.123587 C348.763568,221.737762 360.40769,214.868966 370.776835,211.39908 C378.368938,208.858491 383.541892,208.318965 392.318932,208.460773 L394.263558,208.495215 C397.913687,208.54986 399.585337,208.474657 401.483591,208.121571 L401.687943,208.08267 C408.1818,206.818876 414.291337,201.672247 423.266349,188.307125 L423.608556,187.795629 C430.082118,178.084023 436.43993,174.26535 442.97236,177.210562 C447.611028,179.301953 451.107421,184.309349 455.260164,193.291617 L455.733186,194.325516 C457.283846,197.74918 462.812161,211.03081 462.801668,211.006234 L463.373744,212.336459 C469.153866,225.677214 473.858267,233.452783 479.486901,237.726711 C486.097329,242.746135 493.743837,242.039973 504.226296,233.738326 L505.481564,232.722173 C505.597576,232.627151 505.717824,232.528567 505.842035,232.426649 Z" id="Path-7" fill="#FFF" fill-rule="nonzero"/></g></g></g></g><g transform="translate(249.000000, 555.000000) scale(1 1)" id="Master/Character/Standing"><g id="Master/Character/Standing" stroke="none" stroke-width="1" fill="none" fill-rule="evenodd"><g id="Lower Body/Standing" transform="translate(-64.000000, 629.000000) scale(1 1)"><g id="Lower Body/Standing/Walking 1" stroke="none" stroke-width="1" fill="none" fill-rule="evenodd"><path d="M801,747.687502 C802.129589,758.517906 834.139628,827.458762 834.139628,827.458762 C852.387759,831.665218 883.250136,810.153822 879.721802,804.32176 C876.195477,798.489697 861.354185,729 861.354185,729 C861.354185,729 813.162409,739.769643 801,747.687502" id="leg-2" fill="#b75858"/><path d="M271.574592,679 C271.574592,679 236.247973,731.727289 219.943534,748.544506 C204.876888,764.086322 252.552413,794 252.552413,794 L330,719.908237 L271.574592,679 Z" id="leg-1" fill="#b75858"/><path d="M812.635753,370.807198 C833.322236,472.312266 862.427661,689.154094 867,728.962082 C833.431197,749.112089 783.399375,768.690066 778.435179,766.883976 C777.455535,766.527958 776.062041,756.413453 765.767782,743.231795 C758.12156,733.439306 766.998334,722.666768 758.013599,705.466909 C752.954437,695.779425 748.773956,693.582316 748.886915,672.382257 C748.918903,666.209949 746.421811,647.889034 744.814395,641.641722 C728.117461,576.739481 711.116638,504.271862 695.221414,450.75719 C672.519662,374.321373 601.527456,251.590244 601.527456,251.590244 C601.527456,251.590244 571.896223,344.448881 540.535617,422.883798 C481.274149,571.098199 354.398248,741.892728 343.473218,751.365201 C337.68732,756.380451 260.476374,706.023937 256,676.918483 C271.602331,653.767327 264.047076,653.137296 274.435302,635.817431 C279.818346,626.841983 288.328254,626.941988 293.391414,611.907237 C298.13669,597.821534 297.802811,589.74213 311.973663,576.689478 C330.422959,559.69763 341.064093,531.222208 347.273837,519.220609 C379.680062,456.595481 409.79712,387.020007 418.592924,330.016161 C451.474976,116.904519 446.063942,72.8723199 512.301876,0.421702002 C579.052622,-1.9174148 636.900604,-0.972367612 688.017031,0.421702002 C689.412524,32.8883233 790.363845,261.52474 812.635753,370.807198 Z" id="pant" fill="#090E2B"/><g id="shoe-1" transform="translate(176.000000, 743.000000)"><path d="M151.670252,109.488414 C146.415252,86.3634135 121.251252,83.7074135 105.950252,61.6184135 C101.629252,55.3804135 106.340252,41.8164135 97.928252,36.9074135 C85.679252,29.7584135 85.121252,49.6114135 64.209252,28.4494135 C58.672252,22.8474135 60.562252,11.9824135 51.230252,3.78941353 C49.713252,2.45841353 47.136252,-3.20458647 38.272252,2.49641353 C33.330252,5.67341353 5.43425201,24.4954135 4.98625201,37.6864135 C37.029252,68.2474135 59.817252,96.7004135 84.198252,109.224414 C101.964252,118.350414 115.192252,121.312414 148.119252,123.762414 C155.249252,124.293414 153.031252,115.477414 151.670252,109.488414" id="Fill-7" fill="#090E2B"/><path d="M132.129652,127.849714 C99.175652,127.849714 85.835652,120.503714 65.060652,104.903714 C47.725652,91.8857135 31.246652,74.3287135 18.025652,61.3007135 C-4.57134799,39.0337135 -0.725347989,33.7267135 2.35865201,30.0637135 C8.91665201,22.2727135 13.514652,20.1087135 15.983652,19.8867135 C33.184652,18.3397135 35.173652,48.9427135 32.994652,60.4387135 C49.749652,78.2597135 62.324652,92.9457135 77.407652,103.050714 C98.469652,117.162714 111.573652,119.512714 151.702652,122.779714 C148.824652,128.745714 140.668652,127.849714 132.129652,127.849714" id="Fill-9" fill="#FFB201"/><path d="M88.901652,72.6202135 C88.322652,74.2612135 102.845652,68.9532135 110.813652,70.2772135 C111.062652,70.3182135 105.145652,73.2662135 102.177652,77.2702135 C100.672652,79.3002135 100.118652,80.5152135 102.332652,79.8762135 C115.346652,76.1232135 119.015652,77.7592135 120.592652,77.4432135 C125.289652,76.5042135 118.053652,73.0852135 107.942652,75.3782135 C110.393652,73.8172135 114.252652,71.2412135 113.589652,69.6252135 C111.329652,64.1162135 89.912652,69.7552135 88.901652,72.6202135" id="Fill-12" fill="#FFB201"/></g><path d="M614.374312,218.774218 C611.465613,229.242415 607.296671,242.803668 603.945279,250.790685 C602.447848,254.35882 602.223822,252.626767 602,252.237424 C606.554684,230.249106 613.166354,208.25278 619.105567,186.500669 C624.950696,167.998413 629.200348,137.527642 639,122 C628.918094,151.511929 622.905308,188.066238 614.374312,218.774218 Z" id="Fill-14" fill="#FFF"/><g id="shoe-2" transform="translate(820.000000, 784.000000)"><path d="M171.635654,15.2866137 C160.837654,1.37061372 120.440654,4.32261372 91.1376537,6.09061372 C81.2746537,6.68461372 64.0626537,-1.88138628 58.3506537,0.381613717 C50.0336537,3.67761372 64.6976537,18.2936137 36.0216537,27.0206137 C28.4296537,29.3316137 25.0156537,21.6286137 8.18365371,25.7336137 C5.44865371,26.4006137 1.24365371,27.3526137 0.0726537081,34.9166137 C-0.581346292,39.1336137 3.06865371,73.7176137 15.5586537,83.8066137 C70.5086537,65.3566137 125.987654,43.5216137 174.181654,25.4166137 C178.887654,23.6476137 174.398654,18.8476137 171.635654,15.2866137" id="Fill-16" fill="#090E2B"/><path d="M165.912054,34.6753137 L35.4150537,84.9273137 C26.7570537,88.4853137 12.5110537,90.2613137 8.57505371,83.4243137 C5.63505371,78.3173137 3.41205371,65.6713137 3.56205371,64.7213137 C4.61205371,58.1003137 32.3810537,53.2283137 46.7600537,69.0453137 C95.9920537,55.1463137 176.322054,21.8503137 176.322054,21.8503137 C176.322054,21.8503137 180.181054,28.6183137 165.912054,34.6753137" id="Fill-18" fill="#FFB201"/><path d="M100.736254,15.4595137 C101.639254,7.09151372 102.716254,5.30051372 100.820254,4.72751372 C96.2842537,3.35651372 81.2042537,18.2095137 81.5732537,23.6365137 C81.8502537,27.7045137 90.0112537,12.6605137 99.0512537,7.56151372 C96.4342537,12.6315137 96.8222537,25.1045137 99.8902537,21.4705137 C114.843254,3.76351372 118.740254,5.18251372 118.616254,4.77151372 C118.031254,2.81951372 110.315254,3.88451372 100.736254,15.4595137" id="Fill-21" fill="#FFB201"/></g><path d="M288,683 C308.820557,702.793004 330.900536,721.302721 355,737 C329.265093,729.245308 305.633901,702.126374 288,683" id="Fill-23" fill="#FFB201"/><path d="M864,705 C856.17222,711.876917 845.457747,715.019137 836.363124,719.890827 C827.307282,724.366868 816.517236,730.37855 807,731 C818.062507,723.896284 830.523115,719.753948 842.252852,714.006033 C849.066362,711.357376 857.099979,705.053952 864,705" id="Fill-25" fill="#FFB201"/></g></g><g id="Upper Body/Standing" transform="translate(69.000000, -172.000000) scale(1 1)"><g id="Upper Body/Standing/With Laptop 2" stroke="none" stroke-width="1" fill="none" fill-rule="evenodd"><path d="M518,470 C531.897744,477.921341 553.104762,494.380594 565.718296,532.851246 C576.319799,565.182208 600.570426,611.863468 601.354386,616.556818 C613.885714,621.248165 664,646.250335 664,646.250335 C664,646.250335 629.462657,702 626.617544,702 C623.772431,702 606.926316,701.132196 590.611529,699.849007 C537.347368,695.659124 534.614536,659.159298 531.972932,644.270501 C523.423559,596.087849 521.988972,475.178799 518,470" id="Fill-1" fill="#3615F6"/><path d="M435.679151,395 C435.679151,395 447.229331,452.303881 439.463916,458.256492 C435.587205,461.227797 419,465.605246 419,465.605246 C419,465.605246 459.844881,498.129585 484.813137,498.96667 C509.781394,499.804756 526.465542,484.609197 523.701174,479.100632 C519.563617,470.857786 490.31289,463.49803 489.220535,456.162277 C487.97527,447.794418 488.520948,411.17366 488.520948,411.17366 L435.679151,395 Z" id="Fill-3" fill="#b75858"/><path d="M430,469.083895 C430,469.083895 475.140906,498.234962 488.988265,494.707566 C498.467053,492.293241 497.322975,472.625305 498.382752,464 C507.10986,464.848817 524.843071,473.859493 531.117436,486.924072 C539.442109,504.25676 540.330275,542.593671 546.278478,573.411343 C559.567848,642.255627 545.542856,789.001916 545.542856,789.001916 C545.542856,789.001916 471.088461,824.442038 451.166448,807.333566 C440.923939,798.538098 466.94469,752.036325 468.985966,677.213284 C471.027243,602.389243 473.539197,578.885613 465.870863,553.858517 C458.203532,528.831421 430,469.083895 430,469.083895" id="Fill-6" fill="#FFF"/><path d="M420.261095,464 C404.190301,467.258001 359.922052,478.624962 358.573426,490.673761 C357.393378,501.227723 345.84926,632.518975 361.438259,652.189134 C380.106554,675.744064 350.697131,747.758513 338.817851,766.969107 C318.151554,800.389154 283.215956,827.985047 323.585958,827.260157 C365.636755,826.507232 474.744787,883.934765 474.744787,806.287398 C474.744787,722.087984 485.909854,640.579876 486,608.514493 C486.298881,498.980964 437.07902,471.643388 420.261095,464" id="Fill-8" fill="#3615F6"/><path d="M519.586342,471.025925 C532.5471,479.038964 566.685354,530.935502 560.0672,579.880712 C555.909093,610.6334 552.21952,711.880605 560.767513,746.298428 C569.317495,780.71525 584.188196,809.521743 583.998197,828.488137 C583.910658,837.129884 550.109629,841.47879 540.243576,837.53334 C516.831845,828.169778 519.024302,806.057836 522.384609,761.942074 C530.297943,658.064902 530.069148,480.953123 498,464 C505.703439,464.287324 516.001219,468.809425 519.586342,471.025925" id="Fill-11" fill="#3615F6"/><path d="M538.704585,512.534972 C548.374503,531.14719 558.773513,550.760225 559.723884,571.893504 C560.925103,598.556303 557.874129,629.021211 556.942113,655.743058 C556.666791,662.721764 556.410844,669.704473 556.396568,676.681177 C556.408804,677.087509 555.712342,677.122538 555.71744,676.687182 C555.051569,644.181606 559.107979,604.533189 557.629398,571.983577 C556.683106,551.178567 546.437052,531.034097 538.020359,512.084604 C537.874541,511.817386 538.554688,512.242733 538.704585,512.534972" id="Fill-13" fill="#090E2B"/><g id="macbook" transform="translate(504.000000, 528.000000)"><path d="M128.369769,133.885873 L8.73676899,144.014873 C6.69576899,144.183873 0.282768988,146.862873 0.061768988,148.897873 C0.061768988,148.897873 -0.885231012,154.143873 4.63676899,154.143873 L128.369769,154.143873 L128.369769,133.885873 Z" id="Fill-15" fill="#FFF"/><path d="M291.427369,154.143673 L104.125369,154.143673 L155.804369,16.8866731 C158.941369,9.13767308 165.583369,1.39167308 176.064369,1.39167308 L332.657369,1.50967308 C349.488369,1.38767308 351.600369,7.63367308 347.981369,17.4746731 C337.556369,45.8156731 310.743369,125.167673 301.525369,147.401673 C299.831369,151.484673 295.848369,154.143673 291.427369,154.143673" id="Fill-17" fill="#FFF"/><path d="M331.825869,0.472773078 C288.588869,0.368773078 228.596869,0.280773078 185.250869,0.171773078 C170.143869,-0.767226922 160.767869,1.79077308 154.508869,16.7147731 C140.546869,53.9127731 124.393869,97.3387731 110.856869,134.831773 L14.822869,143.498773 C23.939869,142.767773 111.379869,136.466773 111.634869,135.662773 C127.012869,97.3197731 143.173869,52.3277731 158.530869,14.1057731 C164.816869,2.51877308 173.500869,2.15277308 185.250869,2.62477308 L217.823869,2.60777308 C239.133869,2.71277308 294.971869,2.40477308 315.545869,2.55477308 C322.945869,3.41577308 346.266869,-0.690226922 348.296869,8.78777308 C348.671869,17.7947731 343.153869,26.7887731 340.525869,35.4077731 C338.150869,43.1977731 329.799869,66.1667731 329.799869,66.1667731 C321.256869,90.2607731 311.655869,119.224773 302.571869,142.877773 C299.154869,153.682773 294.621869,153.788773 284.461869,153.531773 C279.322869,153.570773 265.939869,154.131773 260.653869,154.177773 C260.017869,154.186773 259.380869,154.620773 260.031869,154.638773 C269.386869,154.517773 283.454869,155.017773 292.670869,154.716773 C298.834869,154.369773 302.237869,148.676773 303.891869,143.396773 C313.711869,118.074773 322.541869,92.3867731 331.558869,66.7807731 C335.051869,56.1947731 343.917869,30.7067731 347.853869,20.7337731 C354.162869,4.75377308 346.736869,-0.0142269223 331.825869,0.472773078" id="Fill-19" fill="#090E2B"/></g><path d="M490.796,673.4745 C490.431,673.5035 490.215,673.5225 490.204,673.5255 L490.796,673.4745 Z" id="Fill-21" fill="#000"/><path d="M703,681.77464 L736.34249,681.77464 C748.166804,681.993091 741.981102,657.808751 754.899595,660.161144 C765.929232,662.168668 765.431062,668.637243 764.285968,681.679573 C766.51925,678.887244 770.763185,677.96793 772.215766,678.916573 C774.293307,680.273801 771.968178,680.675306 768.461017,686.296372 C764.405769,692.794276 752.878959,698.87146 739.139833,700.026418 C735.004717,700.37331 711.248268,704 711.248268,704 L703,681.77464 Z" id="Fill-23" fill="#b75858"/><path d="M508.484788,669.782529 C508.484788,669.782529 517.751639,663.180324 525.699971,664.113704 C536.303446,665.356531 537.148265,660.574721 539.859729,664.742678 C540.45613,665.657915 538.585461,668.596148 533.674452,669.687779 C527.045646,671.160424 529.823489,675.249759 529.823489,675.249759 C529.823489,675.249759 552.845793,680.740173 556.083257,681.318748 C557.871455,681.638274 558.353203,686.726508 544.835105,690.738229 C537.78389,692.830776 527.70742,692.886214 515.829678,693.28537 C512.525835,693.398263 474.530133,705 474.530133,705 L472.187774,686.067295 L471,666.393733 L508.484788,669.782529 Z" id="Fill-25" fill="#b75858"/><path d="M627,702.024576 C627,702.024576 722.408936,705.88086 728.352355,704.813133 C734.294776,703.745407 722.25232,682 722.25232,682 L636.045808,682 L627,702.024576 Z" id="Fill-27" fill="#3615F6"/><g id="blush" transform="translate(703.000000, 593.000000)"><path d="M35.1719616,15.0154 L35.1569616,15.0154 C30.8929616,15.0154 29.0199616,13.2234 28.2829616,12.1544 C27.7349616,11.3584 27.9349616,10.2684 28.7309616,9.7204 C29.5259616,9.1714 30.6169616,9.3734 31.1639616,10.1674 C31.7549616,11.0244 33.2109616,11.5154 35.1579616,11.5154 L35.1709616,11.5154 C38.1609616,11.5154 40.2469616,10.3894 41.2259616,9.7184 C42.0239616,9.1694 43.1119616,9.3744 43.6579616,10.1704 C44.2049616,10.9674 44.0029616,12.0564 43.2059616,12.6034 C40.9419616,14.1594 38.0879616,15.0154 35.1719616,15.0154" id="Fill-29" fill="#090E2B"/><path d="M23.1172616,17.7987 C20.7432616,23.9947 13.8222616,29.0177 7.66026163,29.0177 C1.49826163,29.0177 -1.57173837,23.9947 0.803261628,17.7987 C3.17726163,11.6037 10.0972616,6.5807 16.2602616,6.5807 C22.4222616,6.5807 25.4922616,11.6037 23.1172616,17.7987" id="Fill-31" fill="#FF00A4"/><path d="M66.9864616,17.7987 C64.6114616,23.9947 57.6904616,29.0177 51.5284616,29.0177 C45.3664616,29.0177 42.2964616,23.9947 44.6714616,17.7987 C47.0464616,11.6037 53.9654616,6.5807 60.1284616,6.5807 C66.2914616,6.5807 69.3614616,11.6037 66.9864616,17.7987" id="Fill-33" fill="#FF00A4"/><path d="M26.9229616,2.951 C26.2979616,4.582 24.4769616,5.903 22.8559616,5.903 C21.2339616,5.903 20.4259616,4.582 21.0509616,2.951 C21.6759616,1.321 23.4969616,1.27897692e-13 25.1179616,1.27897692e-13 C26.7389616,1.27897692e-13 27.5479616,1.321 26.9229616,2.951" id="Fill-35" fill="#090E2B"/><path d="M57.8731616,2.951 C57.2481616,4.582 55.4271616,5.903 53.8061616,5.903 C52.1841616,5.903 51.3761616,4.582 52.0011616,2.951 C52.6261616,1.321 54.4461616,1.27897692e-13 56.0681616,1.27897692e-13 C57.6891616,1.27897692e-13 58.4971616,1.321 57.8731616,2.951" id="Fill-37" fill="#090E2B"/></g><path d="M419.019737,583.172044 C410.530191,605.552303 363.3747,655.528851 363.3747,655.528851 C363.3747,655.528851 473.683867,666.975335 489.978722,666.973336 C490.357301,672.702075 485.558644,716.183321 485.558644,716.183321 C437.5531,722.984449 285.152802,742.653251 273.084241,702.373183 C247.93924,618.451959 346.605373,503.936153 359.273267,488.450969 C377.017508,466.759318 430.374094,553.239085 419.019737,583.172044" id="Fill-39" fill="#3615F6"/><path d="M489.714312,666.434477 C447.358945,664.422509 408.7689,657.397047 366.316447,653.664801 C381.269639,637.654672 395.80246,621.172661 408.277466,603.150564 C412.554239,596.793103 416.437665,590.47845 418.982911,583.201119 C419.06098,582.96916 419.670517,581.083625 419.438313,581 C409.526568,601.201314 393.244203,620.575343 377.831606,637.385879 C372.65604,642.973794 367.381386,648.497 362.005644,653.864903 C361.11686,654.701149 359.893781,656.197432 362.974499,656.402511 C395.524215,658.572769 428.11797,662.632544 460.597624,665.661945 C471.483228,666.455383 477.18726,666.960117 488.13592,667 C489.896473,667.006907 490.378898,666.418548 489.714312,666.434477" id="Fill-42" fill="#090E2B"/><path d="M486,716 C442.895601,721.948976 400.874402,727.750965 357.324742,726.411204 C356.560012,726.333738 357.27782,727.061718 358.116427,727.143156 C388.065678,730.39076 453.126606,723.494319 462.912351,721.607332 C481.155048,718.08959 485.2173,717.229521 486,716" id="Fill-44" fill="#090E2B"/></g></g><g id="Head" transform="translate(399.000000, 26.000000) scale(1 1)"><g id="Head/Short Dark" stroke="none" stroke-width="1" fill="none" fill-rule="evenodd"><path d="M240.4603,89.8187 C240.4603,89.8187 247.1233,114.1517 245.6803,124.1867 C243.8023,137.2407 233.4533,136.1067 234.8383,140.4027 C239.5723,155.0927 226.4003,160.2027 226.4003,160.2027 C226.4003,160.2027 223.6603,145.9857 223.9103,131.6937 C224.1613,117.4007 221.6543,107.1207 221.6543,107.1207 L240.4603,89.8187 Z" id="hair" fill="#090E2B"/><path d="M192.5908,267.0274 C224.2428,264.4884 238.020209,246.70182 239.5388,229.4834 C241.504327,207.197431 236.0058,190.5654 233.1908,174.2604 C223.4298,117.7414 239.1068,106.6534 187.1538,96.2284 C159.9338,90.7674 99.9898,97.9554 85.2798,132.7664 C79.5308,146.3714 88.6708,170.3194 90.2748,189.9154 C94.4538,240.9794 154.1008,270.1154 192.5908,267.0274 Z" id="face" fill="#b75858"/><path d="M123.8589,41.6834 C86.5719,47.4364 78.1609,71.7324 76.2619,82.4054 C75.4829,79.1624 74.9369,75.5634 76.4449,72.9134 C76.9879,71.8554 75.3329,71.0214 74.8099,72.0874 C72.6969,76.5784 72.7039,81.6154 73.8029,86.3604 C69.7519,85.7334 65.5239,86.3634 61.9699,88.4944 C61.1589,88.9754 61.9019,90.2394 62.7189,89.7804 C65.1059,88.7554 67.7359,88.4754 70.3069,88.7714 C65.6579,90.4604 58.9819,94.3084 54.3399,103.0204 C49.3439,112.3974 47.7859,126.1464 49.9529,136.9844 C54.0639,157.5394 70.9269,165.4554 68.4039,170.3494 C61.0699,184.5724 69.3379,208.4314 79.1349,218.4284 C92.9599,232.5354 107.8639,235.3934 108.1179,219.3434 C108.3729,203.2944 103.6129,173.2844 107.7139,170.4274 C115.8699,180.5164 119.6079,181.7564 120.5419,175.2714 C122.4569,161.9584 118.0209,155.6414 113.1789,148.5664 C106.7739,139.2044 131.5549,136.0114 131.8529,120.6364 C135.6089,124.7334 138.4359,132.6264 153.2019,136.6944 C165.6119,140.1134 180.8789,140.2074 193.0839,122.5414 C202.3029,138.2494 224.0969,132.0104 230.7859,130.2904 C266.4129,121.1334 253.4839,53.9264 211.3139,60.7074 C184.4609,65.0254 158.9859,36.2624 123.8589,41.6834 Z" id="hair" fill="#090E2B"/><path d="M113.767,179.4916 C109.26,169.7266 100.831,161.4866 86.463,164.4866 C71.599,167.5916 69.788,197.7756 96.185,208.6956 C104.335,212.0666 107.242,210.4316 109.479,208.2106 C114.731,202.9936 115.788,183.8716 113.767,179.4916" id="ear" fill="#b75858"/><path d="M89.6861,174.4214 C90.2851,174.4984 90.8771,174.6084 91.4611,174.7554 C92.6281,175.0464 93.7631,175.4654 94.8541,175.9824 C97.0271,177.0314 99.0231,178.5214 100.5801,180.3734 C101.0121,180.7984 101.3281,181.3184 101.6901,181.7984 C102.0461,182.2824 102.3891,182.7724 102.6541,183.3114 C102.9371,183.8354 103.2311,184.3534 103.4921,184.8844 L104.1211,186.5354 L104.4261,187.3594 L104.6281,188.2104 C104.7621,188.7754 104.8961,189.3394 105.0111,189.9034 C105.1831,191.0424 105.2721,192.1864 105.3561,193.3124 C105.3851,193.7104 105.0871,194.0564 104.6901,194.0854 C104.3601,194.1094 104.0661,193.9084 103.9581,193.6114 L103.9251,193.5194 C103.5551,192.4924 103.3001,191.4554 102.9281,190.4634 C102.7101,189.9784 102.5101,189.4924 102.3111,189.0094 L102.0121,188.2864 L101.6351,187.6054 L100.9011,186.2504 L100.0301,184.9974 C99.7641,184.5654 99.4291,184.1884 99.0891,183.8194 C98.7411,183.4584 98.4681,183.0324 98.0751,182.7194 C96.6741,181.3004 94.9981,180.2114 93.2291,179.3164 C92.7861,179.0924 92.3251,178.9044 91.8721,178.6934 C91.4061,178.5204 90.9431,178.3264 90.4701,178.1654 C89.5471,177.8334 88.5011,177.5664 87.6531,177.3764 L87.4811,177.3384 C86.6491,177.1514 86.1261,176.3264 86.3131,175.4954 C86.4731,174.7824 87.1041,174.2964 87.8041,174.2904 C88.5141,174.2844 89.0751,174.3324 89.6861,174.4214 Z" id="Fill-9" fill="#090E2B"/><path d="M99.0443,183.8384 C98.9553,183.8094 98.7863,183.7934 98.6423,183.7684 C98.3093,183.7504 97.9563,183.7384 97.5883,183.7934 C96.8583,183.8794 96.1273,184.1034 95.4523,184.4294 C94.7723,184.7454 94.1523,185.1914 93.5983,185.7054 C93.0253,186.1984 92.5623,186.8304 92.1123,187.4554 L92.0493,187.5424 C91.3583,188.5044 90.0173,188.7224 89.0563,188.0304 C88.0943,187.3384 87.8763,185.9984 88.5683,185.0364 C88.6163,184.9694 88.6773,184.8954 88.7323,184.8354 C89.4763,184.0294 90.2533,183.2454 91.1863,182.6214 C92.0953,181.9834 93.0963,181.4544 94.1663,181.1164 C95.2323,180.7694 96.3473,180.5834 97.4833,180.6024 C98.0483,180.6024 98.6303,180.6854 99.2183,180.8124 C99.5263,180.9034 99.8173,180.9764 100.1563,181.1384 C100.4673,181.2904 100.8843,181.4634 101.3493,182.0784 C101.7863,182.7264 101.6163,183.6054 100.9693,184.0434 C100.3223,184.4804 99.4423,184.3114 99.0043,183.6644 C99.1613,183.9274 99.1723,183.8464 99.0443,183.8384 Z" id="Fill-11" fill="#090E2B"/><path d="M145.0532,259.7084 C141.4982,257.8384 132.4912,252.7524 130.5242,250.3674 C129.4982,249.1244 130.9902,250.3784 132.7172,251.3724 C135.0152,252.6964 144.1192,257.8464 155.4622,261.5594 C156.4462,261.8814 162.7232,263.6464 162.9132,263.9644 C163.0902,264.2614 162.5602,264.8804 161.8432,264.8734 C157.0202,264.8304 149.4132,262.0014 145.0532,259.7084 Z" id="Fill-13" fill="#090E2B"/></g></g><g id="Expressions" transform="translate(520.000000, 159.000000) scale(1 1)"><g id="Expressions/Closed Eyes" stroke="none" stroke-width="1" fill="none" fill-rule="evenodd"><path d="M24.0758,24.1794 C25.8519526,16.1964843 49.2248,13.3983582 59.5098,19.5793582 C63.0658,21.6923582 69.6698,27.4974 63.8228,30.6574 C62.2788,31.3294 60.7788,30.6404 59.5098,29.8214 C45.4918,20.0794 22.8376733,29.744159 24.0758,24.1794 Z" id="Fill-1" fill="#090E2B" transform="translate(45.086940, 23.571248) rotate(-18.000000) translate(-45.086940, -23.571248)"/><path d="M104.459159,16.8614287 C107.81301,18.3491596 112.277799,23.2873 108.5609,23.2873 C104.844001,23.2873 96.7934026,22.2328903 91.3964026,24.4598903 C89.5114026,24.9418903 88.0809,25.8643 86.1879,26.0893 C81.8799,26.9283 79.5392891,21.768575 82.5852341,18.6492261 C86.0262801,15.1252544 97.6431592,13.4544287 104.459159,16.8614287 Z" id="Fill-4" fill="#090E2B" transform="translate(95.584306, 20.590227) rotate(7.000000) translate(-95.584306, -20.590227)"/><path d="M85.9879908,71.3386563 C85.0131141,76.2575144 78.9689699,76.7359636 75.0323155,75.6212963 C71.832522,74.7152719 71.0034674,72.851321 72.0853454,72.2537752 C73.8485675,71.2799076 79.4997296,73.9889887 81.5858367,71.4027854 C85.305606,66.7912866 73.8914605,49.8346319 77.5177277,52.5592059 C82.3102149,56.1600121 86.6386051,68.0559034 85.9879908,71.3386563 Z" id="nose" fill="#090E2B"/><path d="M94.6387968,89.5818454 C93.8707672,90.1602445 92.0677709,92.5463983 90.244688,94.0617056 C86.1444698,97.4697185 79.4745751,98.2530639 75.5444286,97.4697185 C68.1559339,95.997065 64.9595527,91.178225 63.0067117,89.8585998 C61.0538707,88.5389745 64.7200172,86.8442758 67.5249361,87.0931395 C70.3298551,87.3420033 72.2123883,88.156182 77.5654423,90.4592717 C81.0199316,91.9455259 88.8310598,89.8585998 91.0381944,88.5389745 C95.2484115,86.021725 96.5113061,88.1716685 94.6387968,89.5818454 Z" id="Fill-18" fill="#090E2B" transform="translate(78.969908, 92.408667) rotate(-6.000000) translate(-78.969908, -92.408667)"/><path d="M62.9346,45.1127 C63.5536,52.7587 53.9286,57.6257 45.7636,53.8057 C41.5576,51.8397 39.4146,48.8787 40.4396,47.6417 C41.0956,46.8497 42.9666,47.9757 43.5896,48.3457 C51.8656,53.2667 58.4216,48.8247 60.4226,44.4177 C61.2046,42.6977 62.7356,42.6557 62.9346,45.1127" id="Fill-5" fill="#090E2B"/><path d="M105.17,42.8109 C104.522,45.9149 103.316,47.4849 101.796,48.5889 C97.365,51.8059 90.136,48.5859 88.754,45.6209 C87.72,43.4039 89.161,43.3499 90.849,44.4009 C93.526,46.0709 96.073,46.4129 97.758,46.0939 C100.996,45.4829 102.535,42.2249 103.701,40.8829 C104.335,40.1539 105.675,40.3949 105.17,42.8109" id="Fill-7" fill="#090E2B"/></g></g><g id="Facial Accesories" transform="translate(517.000000, 209.000000) scale(1 1)" fill="#000"><g id="Facial Accesories/None" stroke="none" stroke-width="1" fill="none" fill-rule="evenodd" fill-opacity="0"/></g><g id="Glass" transform="translate(520.000000, 164.000000) scale(1 1)" fill="#000"><g id="Glass/None" stroke="none" stroke-width="1" fill="none" fill-rule="evenodd" fill-opacity="0"/></g></g></g><g transform="translate(2564.000000, 1305.000000) scale(-1, 1) translate(-2564.000000, -1305.000000) translate(2009.000000, 555.000000) scale(1 1)" id="Master/Character/Standing"><g id="Master/Character/Standing" stroke="none" stroke-width="1" fill="none" fill-rule="evenodd"><g id="Lower Body/Standing" transform="translate(-64.000000, 629.000000) scale(1 1)"><g id="Lower Body/Standing/Blob Pant 1" stroke="none" stroke-width="1" fill="none" fill-rule="evenodd"><g id="leg-1" transform="translate(497.000000, 667.000000)"><path d="M64.105,4.03904433 C64.105,4.03904433 61.461,89.8830443 67.458,111.620044 C73.455,133.356044 87.25,151.840044 98.532,164.690044 C102.154,168.815044 111.668,175.995044 112.682,179.402044 C113.696,182.810044 88.869,192.557044 71.851,185.264044 C61.357,180.767044 43.163,163.279044 29.286,148.868044 C19.674,138.888044 14.66,138.733044 14.305,132.351044 C13.951,125.968044 26.983,120.614044 25.484,101.876044 C23.985,83.1380443 1.63424829e-13,14.1800443 1.63424829e-13,4.43604433 C1.63424829e-13,-5.30795567 64.105,4.03904433 64.105,4.03904433" id="Fill-1" fill="#ca8f67"/><path d="M68.2319,109.601544 C65.6089,115.693544 44.6559,111.646544 36.0169,109.381544 C32.4489,108.325544 28.9429,107.133544 25.4959,105.671544 C24.2229,105.168544 24.8509,102.914544 26.1399,103.375544 C38.4559,107.789544 66.0039,109.751544 66.0039,105.346544 C66.0039,103.398544 69.1179,107.544544 68.2319,109.601544" id="Fill-10" fill="#090E2B"/><path d="M106.4585,172.127944 C106.4585,172.127944 111.6775,182.811944 93.9095,182.335944 C77.5215,181.896944 56.1845,169.001944 45.9015,159.426944 C22.5415,137.672944 16.5225,133.322944 15.3615,128.593944 C9.9625,131.058944 -2.0365,154.622944 21.1565,202.906944 L38.4415,202.906944 L41.7855,177.820944 C41.7855,177.820944 67.8395,202.906944 79.1405,202.906944 L127.2775,202.906944 C132.7135,202.906944 135.5825,195.077944 125.2975,184.784944 C121.2505,180.734944 115.2805,176.935944 106.4585,172.127944" id="shoe-1" fill="#090E2B"/></g><g id="leg-2" transform="translate(715.000000, 644.000000)"><path d="M81.4744,10.4971 C81.4744,10.4971 93.5824,99.7591 99.3624,124.5261 C105.1414,149.2951 120.9754,180.4241 139.0984,196.4171 C147.9614,204.2381 156.3544,210.6071 148.9234,210.6071 C141.4934,210.6071 124.2384,212.9291 112.6794,208.8011 C101.1204,204.6731 93.0104,198.6671 74.0224,179.6781 C55.0334,160.6891 52.6324,162.8761 55.9344,150.4921 C59.2374,138.1071 63.2064,138.4171 56.8714,116.4321 C52.4744,101.1711 0.1994,16.1201 0.1994,4.5611 C0.1994,-6.9959 81.4744,10.4971 81.4744,10.4971" id="Fill-3" fill="#ca8f67"/><path d="M146.5457,202.7266 C146.5457,202.7266 148.5847,209.0936 137.9797,209.3686 C130.4187,209.5646 117.5107,209.3076 108.6497,203.0406 C99.7907,196.7746 55.0557,159.1056 55.0557,154.5676 C55.0557,151.8326 51.1247,159.4096 49.5007,165.0136 C42.2287,190.1236 59.3147,220.1656 59.5297,225.9996 L74.2217,225.9996 C74.2217,225.9996 77.5777,203.6396 78.4417,201.6946 C79.3067,199.7496 105.6307,225.9996 119.9317,225.9996 L171.1167,225.9996 C178.3777,225.9996 171.4387,208.8426 146.5457,202.7266" id="shoe-2" fill="#090E2B"/><path d="M100.9178,125.6357 C93.8258,136.1137 77.8998,132.0417 68.2228,130.0367 C65.8888,129.5547 55.6218,125.9597 58.5478,123.4517 C58.7698,123.2617 59.8878,124.5827 61.4668,124.8797 C76.7818,127.7567 96.9608,126.8027 98.4238,120.7087 C98.7978,119.1507 102.0208,123.3147 100.9178,125.6357" id="Fill-8" fill="#090E2B"/></g><path d="M644.449578,431.20324 C645.77055,471.850718 649.106954,593.431184 592.89769,656.429726 C568.558628,683.709362 538.358126,693.497514 482.645476,679.949688 C347.794402,647.157529 400.199626,361.430285 404.992897,340.092134 C448.579982,146.066944 489.055086,69.7989525 508.62386,0 C568.867711,0 622.179006,0 622.179006,0 C622.179006,0 639.803193,288.338618 644.449578,431.20324 Z" id="Fill-11" fill="#FFB201"/><path d="M685.282263,0 C685.282263,0 724.087878,63.4996942 772.435888,162.529389 C796.411618,211.64057 939.626727,485.992311 816.976228,647.042492 C800.191319,669.08355 728.704627,661.871586 728.704627,661.871586 C728.704627,661.871586 669.437037,666.733584 621.260833,550.019622 C573.083629,433.30566 551,0 551,0 L685.282263,0 Z" id="Fill-14" fill="#FFB201"/><path d="M662.017161,356.732616 C665.701018,284.03876 663.128285,212.505531 657.487978,139.984635 C656.494113,130.338909 654.970524,117.158018 653.655798,107.539287 C653.523266,106.819932 654.034676,106.28491 654.907599,109.615346 C656.750692,116.647237 658.442491,130.085969 659.567526,139.764686 C672.949885,265.525027 674.752413,390.180435 647.262223,514.283166 C643.405827,533.106727 639.436258,552.988473 635.11774,571.752048 C634.339802,575.132251 632.80886,575.447934 633.019741,574.606132 C648.283885,503.460911 658.452366,429.450466 662.017161,356.732616 Z" id="Fill-17" fill="#090E2B"/></g></g><g id="Upper Body/Standing" transform="translate(69.000000, -172.000000) scale(1 1)"><g id="Upper Body/Standing/Mobile Chat 1" stroke="none" stroke-width="1" fill="none" fill-rule="evenodd"><path d="M652.116764,935.739792 C652.237764,939.212792 649.652764,951.391792 654.476764,956.338792 C662.888764,964.963792 662.665764,972.892792 665.172764,968.251792 C666.036764,966.651792 665.979764,964.877792 665.802764,962.716792 C665.351764,957.245792 662.846764,954.344792 662.594764,953.385792 C665.844764,953.337792 669.358764,955.635792 670.789764,961.066792 C672.086764,965.992792 677.239764,975.059792 684.230764,977.945792 C691.415764,980.909792 691.531764,978.037792 689.649764,970.017792 C687.550764,961.070792 689.107764,953.225792 686.256764,945.661792 C683.825764,939.213792 670.305764,924.551792 668.537764,918.616792 C662.728764,899.124792 656.816764,875.618792 656.816764,875.618792 C656.816764,875.618792 605.345764,867.336792 615.270764,888.238792 C625.804764,910.420792 651.996764,932.266792 652.116764,935.739792" id="Fill-1" fill="#ca8f67" transform="translate(652.338993, 926.543171) rotate(-1.000000) translate(-652.338993, -926.543171)"/><path d="M432.655901,477.840227 C426.60023,481.726686 417.795242,483.93581 410.053509,488.542983 C402.313769,493.151155 439.091235,510.117426 459.210373,523.743022 C487.212746,542.708501 503.578105,543.671119 512.973015,533.863009 C522.366929,524.054899 532,511.225987 532,503.025239 C532,494.824491 506.499365,492.637179 497.132806,481.599736 C491.830382,475.351422 497.132806,429.414704 491.830382,430.98705 C486.527958,432.559396 435.814775,401.882352 439.633326,415.490955 C447.588307,443.839712 445.312324,469.718448 432.655901,477.840227 Z" id="Fill-4" fill="#ca8f67"/><path d="M589.352094,557.569766 C576.253145,536.00956 570.502851,528.936461 559.716422,518.628231 C543.098681,502.7455 515.462459,491.414545 515.462459,491.414545 C513.301972,505.593734 501.995427,520.576708 491.796131,520.666684 C467.382634,520.882626 413.261449,486 413.261449,486 C413.261449,486 377.690441,499.102479 354.492218,528.561562 C331.082948,558.289573 319.967445,639.446763 351.158467,721.744646 C366.09283,761.149056 315.85952,836.309857 342.711566,831.662106 C385.365169,824.279091 385.387174,804.394434 476.180615,823.049421 C522.533051,832.572862 549.576139,827.925111 563.903365,819.504374 C576.357169,863.843458 595.983299,901.666792 601.181091,899.943321 C629.743727,890.472596 647.864268,893.660445 660,882.248512 C635.16941,811.958402 615.700561,754.49978 613.12198,732.944573 C603.701859,654.226728 610.43184,592.264442 589.352094,557.569766 Z" id="Fill-7" fill="#FF0057"/><g id="Mobile" transform="translate(545.000000, 505.000000)"><path d="M0.981302924,84.8914264 C-0.662697076,57.9484264 -0.164697076,34.8664264 1.90530292,7.27542639 C2.22130292,3.05642639 3.94730292,0.471426386 7.39830292,0.304426386 C18.9003029,-0.252573614 30.0823029,0.120426386 41.1823029,0.144426386 C45.8613029,0.154426386 48.0353029,3.60642639 48.3133029,7.82842639 C50.0233029,33.7094264 49.9133029,59.8064264 47.3893029,85.4434264 C46.9753029,89.6544264 43.5333029,92.9954264 40.0783029,92.9547997 C29.4223029,92.8284264 18.7683029,92.7014264 8.11330292,92.5744264 C4.65830292,92.5334264 1.41630292,89.0994264 0.981302924,84.8914264" id="Fill-9" fill="#090E2B"/><path d="M27.2479029,13.2283264 C25.2439029,13.4953264 23.4029029,12.0863264 23.1369029,10.0823264 C22.8689029,8.07932639 24.2769029,6.23832639 26.2809029,5.97032639 C28.2859029,5.70432639 30.1269029,7.11232639 30.3939029,9.11632639 C30.6609029,11.1203264 29.2529029,12.9603264 27.2479029,13.2283264" id="Fill-11" fill="#FFB201"/></g><path d="M492,592.04577 C492,592.04577 529.911651,569.673901 533.92673,562.260513 C535.322325,559.684285 536.495303,551.223245 537.422704,548.98526 C543.533171,534.236309 537.940811,530.803002 542.563842,531.008542 C551.321746,531.396672 544.002363,545.735542 548.731211,546.525771 C553.174552,547.26711 573.496523,542.995681 581.855115,536.336603 C589.768475,530.032728 593.335326,562.466052 580.635218,571.527747 C564.238481,583.225534 560.175485,580.611392 556.708461,583.840157 C548.90591,591.110865 523.829136,633 523.829136,633 L492,592.04577 Z" id="Fill-13" fill="#ca8f67"/><path d="M375.713832,752.933977 C434.684867,750.167991 538,635.591313 538,635.591313 L502.758376,582.820634 L405.553066,641.927152 C405.553066,641.927152 426.416815,589.065091 426.840074,578.483669 C427.105236,571.867527 382.566019,516.476736 357.124472,526.125151 C347.36651,529.825145 331.304695,577.685808 325.99545,605.295611 C313.339717,671.114658 316.741796,755.69796 375.713832,752.933977 Z" id="Fill-15" fill="#FF0057"/><path d="M536.878288,631.321713 C526.104695,614.699776 514.676641,598.508915 503.396691,582.239039 C503.002413,581.663938 502.214858,581.492908 501.616437,581.862973 C472.00857,599.521093 438.69409,619.710661 408.878076,637.899875 C419.129301,614.233693 428.53493,589.420309 429.21641,563.443718 C429.240427,562.88962 428.399835,562.845612 428.322781,563.361704 C427.18698,570.120898 425.931095,576.858089 424.343976,583.460255 C411.191707,642.494687 382.808703,658.426503 430.431267,628.654242 C452.666938,615.123851 479.650956,598.588929 501.932659,584.78949 C513.458783,601.452435 526.16774,619.315591 536.449987,635.692485 C528.366289,645.812274 516.592992,658.891585 506.36078,669.182403 C480.775748,694.954958 453.245346,719.35827 421.902256,737.907548 C401.172646,751.238904 377.161723,757.295974 353.330928,748.565431 C351.231448,749.186541 359.730438,751.920024 361.720841,752.340098 C376.578312,756.686866 393.068934,755.826714 407.008759,748.867485 C458.01871,724.16612 499.425893,683.090861 535.964644,640.52834 C539.345027,636.080554 540.252667,636.266587 536.878288,631.321713" id="Fill-1" fill="#090E2B"/><path d="M560.180557,718.017963 C563.030737,740.371278 569.463884,762.851686 574.852505,784.851743 C576.659171,793.786264 581.56905,804.257907 573.550896,811.909491 C570.132907,815.172873 567.081312,817.209359 563.082356,819.761222 C562.820212,819.933348 562.079328,820.112478 562.321229,819.910331 C566.15217,816.68898 569.220971,814.150127 571.964876,810.595532 C574.771534,807.156022 576.368687,803.2892 574.827202,798.93202 C573.173369,791.321465 569.153158,777.007017 567.143052,769.313402 C562.46394,751.508407 558.909313,736.740628 556.66844,718.423259 C554.508538,699.904743 558.094542,681.666227 560.180557,663.463942 C562.494304,645.398757 562.31718,625.657553 556.695768,608.223829 C556.466012,607.599373 557.493332,608.352923 558.044947,609.600834 C572.860618,645.882314 556.964996,681.377221 560.180557,718.017963 Z" id="Fill-19" fill="#090E2B"/></g></g><g id="Head" transform="translate(399.000000, 26.000000) scale(1 1)"><g id="Head/Afro" stroke="none" stroke-width="1" fill="none" fill-rule="evenodd"><path d="M231.6313,151.3019 C236.4543,169.0359 245.8113,200.7169 229.2603,232.6039 C218.0793,254.1449 198.8703,266.8079 180.7813,266.8079 C172.0283,266.8079 143.6393,257.6409 128.9153,246.5709 C111.3193,233.3429 100.9123,219.1829 100.882902,185.5669 C100.8523,150.3759 106.1943,130.0149 125.5053,112.3559 C149.7133,90.2149 222.6933,88.2139 228.7473,116.0439 C228.7473,116.0439 226.8073,133.5669 231.6313,151.3019 Z" id="Fill-1" fill="#ca8f67"/><path d="M186.1612,279.8005 C198.3292,282.114043 206.1462,278.402877 210.7822,275.450615 C216.0322,283.751065 242.8552,283.10653 247.3622,258.387393 C265.5082,256.621463 289.3372,245.942532 281.1322,217.989088 C295.6742,218.876899 295.9942,198.910845 290.1182,187.541825 C308.544499,181.777839 310.8892,155.008788 298.1052,142.314837 C308.4822,138.444718 315.1702,119.439167 298.1052,93.7440189 C307.2022,73.4891359 298.1052,59.3432839 287.4802,60.1080031 C288.7652,53.7857425 292.1022,48.3571082 273.8482,46.3905489 C276.5522,29.3544651 269.7432,7.14465354 240.1832,11.9626755 C236.8022,-7.69516429 218.6722,-16.6721346 205.7152,-6.12307987 C194.8972,-24.4705262 161.9962,-24.1371125 153.9452,-3.70873814 C135.2502,-22.8567651 104.9412,-4.71867154 97.5042,12.9735781 C86.5952,-1.53282599 61.1512,-2.25877619 46.2312,30.9575648 C14.3742,29.0016669 -4.8638,42.2238467 2.0722,67.0999988 C-15.3448,69.76537 -33.7798,91.4246613 -15.6978,120.428746 C-25.4898,121.92717 -32.7808,150.208212 -15.9448,153.458996 C-26.1028,160.900713 -24.4868,192.889044 3.2312,194.199438 C-11.0198,199.998316 -11.6418,228.927771 8.6402,233.515117 C3.6952,259.12885 27.2562,267.22964 41.7672,259.069728 C43.7722,281.317339 79.0096927,284.841214 89.4597564,270.390539 C106.654181,276.448135 118.476574,269.409587 121.0792,263.008264 C129.20875,243.013122 118.388956,236.640352 118.388956,236.640352 C125.758956,226.622434 115.4722,207.799198 104.3832,202.760193 C94.4182,198.231 100.8272,178.346779 104.3832,167.200681 C115.5572,171.092123 117.2932,186.284739 121.0792,175.379009 C124.8652,164.473279 123.2632,157.14787 123.2632,157.14787 C131.6472,146.804291 148.1822,151.292776 147.4732,130.633726 C155.2782,136.168975 167.2712,133.585988 169.1942,124.516941 C180.4912,138.343918 195.3552,133.394081 198.3292,126.254763 C200.9172,134.937089 213.4532,138.330349 226.9512,133.000576 C225.3782,143.659153 229.2602,153.740072 235.0712,176.986955 C237.246848,185.690628 243.85663,217.989088 219.038702,248.090856 C205.341331,264.704455 186.0242,270.901068 160.9592,262.426157 C160.9592,262.426157 164.3122,275.642521 186.1612,279.8005 Z" id="Fill-3" fill="#090E2B"/><path d="M116.452939,175.434825 C115.032939,169.438825 102.362688,156.78726 90.0576876,163.71926 C82.3906876,168.03826 78.9723375,177.245694 83.2974894,187.750725 C87.6226412,198.255755 104.109131,208.330523 113.652528,202.276629 C123.195925,196.222734 117.872939,181.430825 116.452939,175.434825 Z" id="Fill-6" fill="#ca8f67"/><path d="M130.844,247.7548 C140.999,254.0438 151.196,257.8948 161.161,261.4238 C162.281,261.8198 161.214,262.5198 160.041,262.4468 C149.714,261.8138 137.573,254.1728 135.002,252.4118 C129.728,248.8018 127.379,245.6088 130.844,247.7548" id="Fill-8" fill="#090E2B"/><path d="M101.208529,172.634366 C99.3520604,171.272846 97.8524659,170.341859 96.7694659,170.090859 C94.5974659,169.586859 97.4586652,171.219339 99.9656652,174.002339 C101.456665,175.656339 102.967823,177.818816 104.093252,179.919728 C101.461252,181.164728 97.9904659,185.086859 99.1164659,190.593859 C99.9684659,191.423859 99.9880991,188.631411 100.886466,186.891859 C102.46178,183.8415 104.331794,183.400754 105.551466,182.998859 C106.379466,184.813859 107.097466,186.970859 107.634466,189.656859 C107.744466,190.207859 108.895378,191.512406 109.283315,189.390222 C109.595315,183.288222 106.240982,176.32513 101.208529,172.634366 Z" id="Fill-10" fill="#090E2B" transform="translate(102.651692, 180.372220) rotate(-3.000000) translate(-102.651692, -180.372220)"/></g></g><g id="Expressions" transform="translate(520.000000, 159.000000) scale(1 1)"><g id="Expressions/Closed Eyes" stroke="none" stroke-width="1" fill="none" fill-rule="evenodd"><path d="M24.0758,24.1794 C25.8519526,16.1964843 49.2248,13.3983582 59.5098,19.5793582 C63.0658,21.6923582 69.6698,27.4974 63.8228,30.6574 C62.2788,31.3294 60.7788,30.6404 59.5098,29.8214 C45.4918,20.0794 22.8376733,29.744159 24.0758,24.1794 Z" id="Fill-1" fill="#090E2B" transform="translate(45.086940, 23.571248) rotate(-18.000000) translate(-45.086940, -23.571248)"/><path d="M104.459159,16.8614287 C107.81301,18.3491596 112.277799,23.2873 108.5609,23.2873 C104.844001,23.2873 96.7934026,22.2328903 91.3964026,24.4598903 C89.5114026,24.9418903 88.0809,25.8643 86.1879,26.0893 C81.8799,26.9283 79.5392891,21.768575 82.5852341,18.6492261 C86.0262801,15.1252544 97.6431592,13.4544287 104.459159,16.8614287 Z" id="Fill-4" fill="#090E2B" transform="translate(95.584306, 20.590227) rotate(7.000000) translate(-95.584306, -20.590227)"/><path d="M85.9879908,71.3386563 C85.0131141,76.2575144 78.9689699,76.7359636 75.0323155,75.6212963 C71.832522,74.7152719 71.0034674,72.851321 72.0853454,72.2537752 C73.8485675,71.2799076 79.4997296,73.9889887 81.5858367,71.4027854 C85.305606,66.7912866 73.8914605,49.8346319 77.5177277,52.5592059 C82.3102149,56.1600121 86.6386051,68.0559034 85.9879908,71.3386563 Z" id="nose" fill="#090E2B"/><path d="M94.6387968,89.5818454 C93.8707672,90.1602445 92.0677709,92.5463983 90.244688,94.0617056 C86.1444698,97.4697185 79.4745751,98.2530639 75.5444286,97.4697185 C68.1559339,95.997065 64.9595527,91.178225 63.0067117,89.8585998 C61.0538707,88.5389745 64.7200172,86.8442758 67.5249361,87.0931395 C70.3298551,87.3420033 72.2123883,88.156182 77.5654423,90.4592717 C81.0199316,91.9455259 88.8310598,89.8585998 91.0381944,88.5389745 C95.2484115,86.021725 96.5113061,88.1716685 94.6387968,89.5818454 Z" id="Fill-18" fill="#090E2B" transform="translate(78.969908, 92.408667) rotate(-6.000000) translate(-78.969908, -92.408667)"/><path d="M62.9346,45.1127 C63.5536,52.7587 53.9286,57.6257 45.7636,53.8057 C41.5576,51.8397 39.4146,48.8787 40.4396,47.6417 C41.0956,46.8497 42.9666,47.9757 43.5896,48.3457 C51.8656,53.2667 58.4216,48.8247 60.4226,44.4177 C61.2046,42.6977 62.7356,42.6557 62.9346,45.1127" id="Fill-5" fill="#090E2B"/><path d="M105.17,42.8109 C104.522,45.9149 103.316,47.4849 101.796,48.5889 C97.365,51.8059 90.136,48.5859 88.754,45.6209 C87.72,43.4039 89.161,43.3499 90.849,44.4009 C93.526,46.0709 96.073,46.4129 97.758,46.0939 C100.996,45.4829 102.535,42.2249 103.701,40.8829 C104.335,40.1539 105.675,40.3949 105.17,42.8109" id="Fill-7" fill="#090E2B"/></g></g><g id="Facial Accesories" transform="translate(517.000000, 209.000000) scale(1 1)" fill="#000"><g id="Facial Accesories/None" stroke="none" stroke-width="1" fill="none" fill-rule="evenodd" fill-opacity="0"/></g><g id="Glass" transform="translate(520.000000, 164.000000) scale(1 1)" fill="#000"><g id="Glass/None" stroke="none" stroke-width="1" fill="none" fill-rule="evenodd" fill-opacity="0"/></g></g></g></g></svg>