<svg viewBox="-40 80.00000000000023 3279.9999999999995 1839.9999999999998" xmlns="http://www.w3.org/2000/svg" xmlns:xlink="http://www.w3.org/1999/xlink" overflow="visible" width="3279.9999999999995px" height="1839.9999999999998px"><defs><path d="M363.685,181.685 C363.685,81.345 282.34,0 182,0 C81.66,0 0.315,81.345 0.315,181.685 C0.315,282.02 81.66,363.365 182,363.365 C282.34,363.365 363.685,282.02 363.685,181.685" id="masterbackgroundexploring-on-laptop-path-1"/><path d="M363.685,181.685 C363.685,81.345 282.34,0 182,0 C81.66,0 0.315,81.345 0.315,181.685 C0.315,282.02 81.66,363.365 182,363.365 C282.34,363.365 363.685,282.02 363.685,181.685" id="masterbackgroundexploring-on-laptop-path-3"/><polygon id="masterbackgroundexploring-on-laptop-path-5" points="0.885 0.4042 225.003 0.4042 225.003 229 0.885 229"/></defs><g id="Master/Background/Exploring on Laptop" stroke="none" stroke-width="1" fill="none" fill-rule="evenodd"><g id="Outdoor Plants" transform="translate(2445.000000, 908.000000) scale(1 1)"><g id="Outdoor Plants/Trees" stroke="none" stroke-width="1" fill="none" fill-rule="evenodd"><g id="Group" transform="translate(50.000000, 27.000000)"><path d="M246.327941,707.554023 C202.725234,648.694159 266.995654,634.469818 237.177083,579.041474 C201.045875,511.877502 252.889207,525.364984 230.558991,457.77841 C212.889507,404.298257 182.034281,401.995081 179.286724,325.770544 C176.543382,249.546006 39.2582753,245.25238 68.925141,351.777408 C98.5962208,458.302435 22.2672523,432.071593 35.6974086,509.466735 C53.6492336,612.915227 -18.38566,571.479753 4.55980649,651.097777 C24.0792556,718.828035 -59.1552187,832.362634 138.705486,859 C314.797719,849.998599 289.934862,766.418112 246.327941,707.554023 Z" id="Fill-1" fill="#009BA0"/><path d="M95,585 C95,585 102.269883,617.395249 137,651" id="Stroke-5" stroke="#090E2B" stroke-width="9.107" stroke-linecap="round" stroke-linejoin="round"/><path d="M63,713 C63,713 75.8067111,744.89889 137,778" id="Stroke-7" stroke="#090E2B" stroke-width="9.107" stroke-linecap="round" stroke-linejoin="round"/><path d="M199,637 C199,637 190.990083,687.972701 137,725" id="Stroke-9" stroke="#090E2B" stroke-width="9.107" stroke-linecap="round" stroke-linejoin="round"/><path d="M608.603445,473.480495 C570.590587,379.998182 626.937388,314.013535 549.627883,136.939688 C472.318378,-40.1341592 367.026875,-40.7590157 351.056381,107.78507 C335.090104,256.329155 210.936686,350.641456 268.195115,484.721371 C324.468099,616.493705 207.88992,647.351714 245.711222,745.061987 C293.787219,869.262883 452.912681,874 452.912681,874 C626.199908,874 654.358401,816.786582 667.882995,767.076651 C703.354583,636.700085 625.009296,513.826235 608.603445,473.480495 Z" id="Fill-11" fill="#FFB201"/><path d="M535,314 C535,314 520.978644,385.165722 454,459" id="Stroke-15" stroke="#090E2B" stroke-width="9.107" stroke-linecap="round" stroke-linejoin="round"/><path d="M560,611 C560,611 541.481013,682.167801 453,756" id="Stroke-17" stroke="#090E2B" stroke-width="9.107" stroke-linecap="round" stroke-linejoin="round"/><path d="M365,465 C365,465 376.498556,549.574282 454,611" id="Stroke-19" stroke="#090E2B" stroke-width="9.107" stroke-linecap="round" stroke-linejoin="round"/><line x1="136" y1="938" x2="136" y2="511" id="Stroke-3" stroke="#090E2B" stroke-width="9.107" stroke-linecap="round" stroke-linejoin="round"/><line x1="453" y1="932" x2="453" y2="226" id="Stroke-13" stroke="#090E2B" stroke-width="9.107" stroke-linecap="round" stroke-linejoin="round"/></g></g></g><g id="Screen" transform="translate(479.000000, 528.000000) scale(1 1)"><g id="Screen/Laptop 2" stroke="none" stroke-width="1" fill="none" fill-rule="evenodd"><path d="M2021.3995,1329.31 L156.8995,1329.31 C116.6695,1329.31 84.0595,1296.705 84.0595,1256.475 L84.0595,72.835 C84.0595,32.61 116.6695,-2.27373675e-13 156.8995,-2.27373675e-13 L2021.3995,-2.27373675e-13 C2061.6295,-2.27373675e-13 2094.2345,32.61 2094.2345,72.835 L2094.2345,1256.475 C2094.2345,1296.705 2061.6295,1329.31 2021.3995,1329.31" id="Fill-1" fill="#008BF2"/><path d="M2088.885,1347.308 L88.985,1347.308 C39.84,1347.308 0,1307.463 0,1258.318 L0,1230.993 L2177.875,1230.993 L2177.875,1258.318 C2177.875,1307.463 2138.03,1347.308 2088.885,1347.308" id="Fill-4" fill="#276DFF"/><polygon id="Fill-7" fill="#FFF" points="138.0175 1175.397 2034.6575 1175.397 2034.6575 52.812 138.0175 52.812"/><polygon id="Fill-9" fill="#090E2B" points="890.987 1230.9945 918.012 1273.9845 1298.292 1273.9845 1323.392 1230.9945"/><g id="UI Elements" transform="translate(456.000000, 156.000000) scale(1 1)"><g id="UI Elements/UI Card 2" stroke="none" stroke-width="1" fill="none" fill-rule="evenodd"><g id="interface" transform="translate(143.000000, 108.000000)"><path d="M796.095175,592 L61.9048254,592 C52.5681131,592 45,584.43436 45,575.100698 L45,56.9014958 C45,47.5678339 52.5681131,40 61.9048254,40 L796.095175,40 C805.431887,40 813,47.5678339 813,56.9014958 L813,575.100698 C813,584.43436 805.431887,592 796.095175,592 Z" id="Stroke-1-Copy-3" fill="#090E2B"/><path d="M754.095175,555 L19.9048254,555 C10.5681131,555 3,547.43436 3,538.100698 L3,19.9014958 C3,10.5678339 10.5681131,3 19.9048254,3 L754.095175,3 C763.431887,3 771,10.5678339 771,19.9014958 L771,538.100698 C771,547.43436 763.431887,555 754.095175,555 Z" id="Stroke-1-Copy-2" fill="#FFB201"/><path d="M754.095175,0 L19.9048254,0 C8.91177633,0 0,8.91046219 0,19.9014958 L0,538.100698 C0,549.091433 8.91147822,558 19.9048254,558 L754.095175,558 C765.088522,558 774,549.091433 774,538.100698 L774,19.9014958 C774,8.91046219 765.088224,0 754.095175,0 Z M19.9048254,6 L754.095175,6 C761.774713,6 768,12.2243688 768,19.9014958 L768,538.100698 C768,545.777286 761.775252,552 754.095175,552 L19.9048254,552 C12.2247479,552 6,545.777286 6,538.100698 L6,19.9014958 C6,12.2243688 12.2252868,6 19.9048254,6 Z" id="Stroke-1-Copy-4" fill="#090E2B" fill-rule="nonzero"/><rect id="Rectangle-Copy-2" fill="#FFF" x="84" y="341" width="536" height="25" rx="12.5"/><rect id="Rectangle-Copy-3" fill-opacity=".6" fill="#FFF" x="85" y="424" width="396" height="25" rx="12.5"/><path d="M235.177833,110.81867 C227.185538,104.768093 217.382289,103.427639 207.809374,106.828905 C197.973601,110.323565 189.221893,118.526773 183.646729,129.991287 C177.384572,142.868502 175.420176,159.052394 178.619243,177.174179 C182.121285,197.012233 190.573939,213.94983 202.695283,227.017574 L203.281,227.643 L204.136979,227.092052 C240.264292,203.530099 256.549408,177.547747 253.293204,149.29804 L253.103783,147.80912 C250.655617,130.214335 244.247467,117.684846 235.177833,110.81867 Z M505.842035,232.426649 L523.827521,217.528033 C528.861168,213.397292 532.435677,210.610149 535.794008,208.241442 C544.837025,201.863199 552.104066,198.860832 560.543814,198.437223 C568.776183,198.024022 578.096647,200.09358 591.815736,205.152633 L595.844784,206.657784 C604.219635,209.820062 609.696003,212.190744 646.595195,228.237346 C648.62106,229.118348 649.549156,231.474829 648.668154,233.500695 C647.787152,235.52656 645.430671,236.454655 643.404805,235.573654 L616.305789,223.807985 C602.625476,217.896342 598.404268,216.172107 592.715497,214.027871 L589.751282,212.919169 C576.56553,208.011399 567.998703,206.073116 560.944847,206.427165 C554.360703,206.757637 548.573312,209.095584 540.929133,214.411813 L540.405031,214.778909 C537.226418,217.020856 533.770971,219.716184 528.850558,223.7549 L511.514534,238.120007 C510.961685,238.574623 510.466703,238.980504 510.047778,239.322454 C496.512415,250.370774 484.631585,251.678075 474.648986,244.098099 C467.468896,238.64612 462.189507,229.836545 455.74709,214.854426 L454.956757,212.979018 C453.652739,209.854431 450.088177,201.329237 448.669142,198.12545 L448.445809,197.626142 C444.897603,189.792141 442.048006,185.569319 439.684227,184.503585 C437.781041,183.645514 434.932355,185.322008 430.499974,191.882993 L429.538477,193.314532 C419.6629,207.895433 412.080714,214.210184 403.216181,215.935344 L402.673279,216.036778 C400.263009,216.467382 398.237762,216.553963 394.262408,216.496152 L391.572079,216.450832 C384.018715,216.356451 379.70279,216.848177 373.315547,218.985577 C364.271413,222.012067 353.865627,228.07077 341.218444,238.220629 L339.854772,239.323817 C310.35146,263.379578 272.018215,270.264603 237.983138,258.861028 C224.727086,254.419541 212.843117,247.464548 202.81987,238.379492 L202.154,237.769 L202.062088,237.825611 C175.845262,253.744999 141.02884,268.371023 97.695117,281.745545 L94.1629089,282.827224 C92.0491915,283.469481 89.8150329,282.276626 89.1727761,280.162909 C88.5305192,278.049191 89.7233737,275.815033 91.8370911,275.172776 C135.055196,262.040877 169.546753,247.807206 195.398066,232.515664 L196.358,231.943 L196.017709,231.570961 C183.545315,217.787504 174.77398,200.185397 170.95583,179.747194 L170.741057,178.564927 C167.257064,158.829121 169.429049,140.934983 176.452313,126.492661 C182.917449,113.198048 193.251996,103.511204 205.131,99.2905822 C217.194332,95.0044681 229.823674,96.7313505 240.006568,104.440322 C250.914953,112.698528 258.306392,127.150586 261.027448,146.706609 C265.47074,178.640215 248.443666,207.22332 210.263218,232.617166 L209.177,233.33 L209.630305,233.727412 C218.289656,241.242055 228.382564,247.069245 239.563664,250.947815 L240.524701,251.275486 C271.965035,261.809683 307.429352,255.439945 334.799364,233.123587 C348.763568,221.737762 360.40769,214.868966 370.776835,211.39908 C378.368938,208.858491 383.541892,208.318965 392.318932,208.460773 L394.263558,208.495215 C397.913687,208.54986 399.585337,208.474657 401.483591,208.121571 L401.687943,208.08267 C408.1818,206.818876 414.291337,201.672247 423.266349,188.307125 L423.608556,187.795629 C430.082118,178.084023 436.43993,174.26535 442.97236,177.210562 C447.611028,179.301953 451.107421,184.309349 455.260164,193.291617 L455.733186,194.325516 C457.283846,197.74918 462.812161,211.03081 462.801668,211.006234 L463.373744,212.336459 C469.153866,225.677214 473.858267,233.452783 479.486901,237.726711 C486.097329,242.746135 493.743837,242.039973 504.226296,233.738326 L505.481564,232.722173 C505.597576,232.627151 505.717824,232.528567 505.842035,232.426649 Z" id="Path-7" fill="#FFF" fill-rule="nonzero"/></g></g></g><g id="UI Elements" transform="translate(616.000000, 262.000000) scale(1 1)"><g id="UI Elements/Chat" stroke="none" stroke-width="1" fill="none" fill-rule="evenodd"><g id="Interface--Box-1" transform="translate(74.000000, 54.000000)"><rect id="Rectangle-Copy-4" fill="#090E2B" x="48" y="36" width="903" height="664" rx="64"/><rect id="Rectangle" fill="#FFF" x="3" y="3" width="903" height="664" rx="64"/><path d="M842,0 L67,0 C29.9969218,0 0,29.9969218 0,67 L0,603 C0,640.003078 29.9969218,670 67,670 L842,670 C879.003078,670 909,640.003078 909,603 L909,67 C909,29.9969218 879.003078,0 842,0 Z M67,6 L842,6 C875.68937,6 903,33.3106303 903,67 L903,603 C903,636.68937 875.68937,664 842,664 L67,664 C33.3106303,664 6,636.68937 6,603 L6,67 C6,33.3106303 33.3106303,6 67,6 Z" id="Rectangle-Copy" fill="#090E2B" fill-rule="nonzero"/><path d="M81.6784,559.808 L800.7568,559.808 C807.384217,559.808 812.7568,554.435417 812.7568,547.808 L812.7568,271.1616 C812.7568,264.534183 807.384217,259.1616 800.7568,259.1616 L81.6784,259.1616 C75.050983,259.1616 69.6784,264.534183 69.6784,271.1616 L69.6784,547.808 C69.6784,554.435417 75.050983,559.808 81.6784,559.808 Z" id="Stroke-1" fill="#C7D2F2" fill-rule="nonzero"/><rect id="Rectangle" fill="#FFF" x="124" y="324" width="625" height="22" rx="8.5"/><rect id="Rectangle-Copy-2" fill="#FFF" x="124" y="397" width="625" height="22" rx="8.5"/><rect id="Rectangle-Copy-3" fill="#FFF" x="124" y="470" width="491" height="22" rx="8.5"/><path d="M81.6784,199.104 L166.664,199.104 C173.291417,199.104 178.664,193.731417 178.664,187.104 L178.664,102.1248 C178.664,95.497383 173.291417,90.1248 166.664,90.1248 L81.6784,90.1248 C75.050983,90.1248 69.6784,95.497383 69.6784,102.1248 L69.6784,187.104 C69.6784,193.731417 75.050983,199.104 81.6784,199.104 Z" id="Stroke-2" fill="#FFB201"/><path d="M313.138385,84.8967885 C329.447729,79.5153053 348.586818,83.2415764 358.898207,95.1494108 C364.641993,101.78247 365.553157,109.836021 361.675317,118.16689 C358.288646,125.442569 351.252764,133.056341 340.595642,141.27597 C336.31135,144.580361 331.408948,148.004801 325.887118,151.550657 L325.349,151.894 L325.543643,152.04445 C341.792399,164.438624 357.091439,166.862182 376.260449,162.057646 L377.968343,161.616032 C383.787581,160.074404 388.340217,158.490339 398.373445,154.551317 L408.291943,150.622394 C426.652824,143.383698 437.167182,140.154312 449.947188,138.648183 C467.698785,136.55615 484.762574,139.44633 502.330447,148.436475 C578.210251,187.267035 616.68251,193.20019 673.005729,172.413466 C676.114478,171.266146 679.564703,172.8562 680.712023,175.964949 C681.859342,179.073698 680.269289,182.523924 677.160539,183.671243 C645.644812,195.30248 619.114696,198.641981 591.124925,194.325425 L589.544806,194.074065 C563.69996,189.837339 536.014264,179.153744 496.863807,159.118977 C481.451903,151.232123 466.781412,148.747308 451.351673,150.565709 L450.342491,150.689479 C439.117599,152.120689 429.287548,155.218498 411.838757,162.123665 L403.055294,165.605084 C391.669618,170.080433 386.906843,171.710504 379.851947,173.526373 C357.027478,179.401193 337.796987,176.483508 318.265861,161.585618 C317.0727,160.675502 315.864585,159.672344 314.654208,158.592274 L314.545,158.494 L314.017166,158.804659 L312.295102,159.804812 C293.187916,170.838945 268.652234,182.944456 238.653973,196.156684 L237.200946,196.795635 C234.166794,198.12777 230.627219,196.748013 229.295083,193.713861 C227.962948,190.679709 229.342705,187.140134 232.376857,185.807998 L235.096589,184.610328 C263.492115,172.068188 286.795242,160.578237 304.975046,150.172539 L305.979,149.594 L305.732259,149.301723 C299.306434,141.630328 293.812924,132.801442 291.510503,125.686128 L291.361761,125.214344 C285.517654,106.168413 295.144491,90.834111 313.138385,84.8967885 Z M349.826646,103.004777 C342.950235,95.0637364 328.907966,92.3297871 316.898536,96.2924571 C304.724978,100.309283 299.047137,109.353346 302.833845,121.694218 C304.636454,127.568918 309.846003,135.708997 315.788395,142.599086 L316.432,143.336 L316.802823,143.104213 C322.845916,139.317522 328.138527,135.690524 332.678924,132.22501 L333.266883,131.773903 C350.827935,118.229407 355.086995,109.079552 349.826646,103.004777 Z" id="Path-8" fill="#FFB201" fill-rule="nonzero"/></g></g></g></g></g><g id="Medium Plants" transform="translate(-112.000000, 1073.000000) scale(1 1)"><g id="Medium Plants/Plant 3" stroke="none" stroke-width="1" fill="none" fill-rule="evenodd"><g id="Group" transform="translate(215.000000, 84.000000)"><path d="M112.880533,293.771571 C72.2193038,211.163092 32.755718,181.121219 20.2319955,171.471577 C31.7926281,194.631785 123.101369,458.278287 135.733483,527.310338 C93.3433125,443.747754 71.4872134,425.696285 63.5834793,417.566804 C42.1911559,395.561848 15.4147691,379.927685 0,372.207616 C6.74873695,381.58313 85.7416546,476.436559 113.680146,559.433088 L135.838322,599 L246.627421,599 C246.627421,599 258.188054,560.566979 276.492093,543.592439 C294.796131,526.619679 363.774357,441.65075 374.3719,391.46763 C348.802317,421.08304 267.492695,526.619679 253.027882,543.592439 C288.674647,442.658364 294.026586,433.333145 324.490079,377.359528 C354.953572,321.384132 418.11073,239.428478 421,237.498906 C388.244282,254.870397 291.937958,315.57786 246.266707,435.847441 C227.181252,486.106622 221.197939,518.114609 221.197939,518.114609 C221.197939,518.114609 241.824632,417.660531 240.859765,319.222084 C239.896675,220.783637 246.627421,0 246.627421,0 C246.627421,0 202.715749,77.0946758 186.442858,202.073242 C180.425007,248.291359 175.348107,438.140602 177.274287,484.065846 C177.274287,484.065846 152.358334,373.975203 112.880533,293.771571 Z" id="Fill-1" fill="#009BA0"/><path d="M254.50609,716 L126.947716,716 C108.198988,716 93,690.078415 93,671.268722 L93,544 L292,544 L292,667.710997 C292,688.399168 275.127209,716 254.50609,716" id="Fill-4" fill="#FF00A4"/></g></g></g><g id="Flying Objects" opacity=".5" transform="translate(2264.000000, -80.000000) scale(1 1)"><g id="Flying Objects/Speech Bubble" stroke="none" stroke-width="1" fill="none" fill-rule="evenodd"><g id="comment" transform="translate(228.000000, 270.000000)"><path d="M-1.87583282e-12,121.62 C-1.87583282e-12,188.756 54.436,243.196 121.616,243.196 C138.552,243.196 154.64,239.716 169.268,233.472 L227.52,260.208 L201.916,212.856 C227.228,190.6 243.196,157.996 243.196,121.62 C243.196,54.44 188.752,2.84217094e-14 121.616,2.84217094e-14 C54.436,2.84217094e-14 -1.87583282e-12,54.44 -1.87583282e-12,121.62" id="Fill-4" fill="#FFB201"/><rect id="Rectangle-Copy-3" fill="#FFF" x="58.318" y="81.499" width="132" height="12" rx="6"/><rect id="Rectangle-Copy-4" fill="#FFF" x="58.318" y="115.499" width="117" height="12" rx="6"/><rect id="Rectangle-Copy-5" fill="#FFF" x="58.318" y="149.499" width="79" height="12" rx="6"/></g></g></g><g id="Outdoor Plants" transform="translate(2405.000000, 911.000000) scale(1 1)"><g id="Outdoor Plants/Bush" stroke="none" stroke-width="1" fill="none" fill-rule="evenodd"><g id="Group-16-Copy" transform="translate(98.000000, 689.000000)"><path d="M2.39500229,275.969448 C4.95578,275.610539 7.81571397,276.244612 10.3764917,275.885703 L558,275.885703 C557.748709,255.057012 545.866222,224.872758 527.67752,214.67974 C509.500785,204.498686 485.903338,204.821704 468.013793,215.46934 C476.079046,172.735231 481.918576,128.086941 470.155752,86.2022508 C458.41686,44.3175605 424.971188,5.75876099 381.773022,0.590470148 C341.267263,-4.24283888 301.934196,21.2038153 278.611973,54.6661058 C255.28975,88.1283962 244.831246,128.637268 234.815494,168.165122 C235.952288,149.465959 226.678444,130.479668 211.253946,119.855959 C195.817483,109.23225 174.768847,107.365923 157.704973,115.094432 C138.654702,123.720214 125.982442,142.814177 120.107013,162.889159 C114.24355,182.976104 114.255516,204.223522 114.315347,225.135958 C102.109771,197.476031 66.8212974,182.581304 38.4971814,193.133231 C10.1610992,203.697122 -6.48395591,247.077267 2.39500229,275.969448" id="Fill-1" fill="#F67A49"/><path d="M118.397008,275.974803 C119.891241,275.760692 121.552828,276.153228 123.047061,275.927223 L442,275.927223 C441.856554,263.85377 434.923314,246.356186 424.344146,240.456253 C413.753025,234.556319 400.018038,234.734745 389.59427,240.920159 C394.292138,216.142818 397.687034,190.247344 390.849426,165.969594 C383.999863,141.691845 364.515068,119.341089 339.352189,116.343542 C315.76722,113.536316 292.863621,128.286149 279.27208,147.686938 C265.692493,167.087727 259.607977,190.556615 253.762539,213.478332 C254.420001,202.641962 249.02881,191.639062 240.039506,185.489334 C231.050202,179.32771 218.785539,178.233367 208.85188,182.717792 C197.758697,187.725599 190.37121,198.787974 186.952406,210.42131 C183.545555,222.066541 183.545555,234.389789 183.581417,246.498926 C176.480823,230.476325 155.92018,221.840536 139.423851,227.966474 C122.915568,234.080518 113.220986,259.226605 118.397008,275.974803" id="Fill-4" fill="#FFB201"/></g></g></g><g id="Flying Objects" opacity=".5" transform="translate(905.000000, 223.000000) scale(-1, 1) translate(-905.000000, -223.000000) translate(555.000000, -177.000000) scale(1 1)"><g id="Flying Objects/Speech Bubble" stroke="none" stroke-width="1" fill="none" fill-rule="evenodd"><g id="comment" transform="translate(228.000000, 270.000000)"><path d="M-1.87583282e-12,121.62 C-1.87583282e-12,188.756 54.436,243.196 121.616,243.196 C138.552,243.196 154.64,239.716 169.268,233.472 L227.52,260.208 L201.916,212.856 C227.228,190.6 243.196,157.996 243.196,121.62 C243.196,54.44 188.752,2.84217094e-14 121.616,2.84217094e-14 C54.436,2.84217094e-14 -1.87583282e-12,54.44 -1.87583282e-12,121.62" id="Fill-4" fill="#FFB201"/><rect id="Rectangle-Copy-3" fill="#FFF" x="58.318" y="81.499" width="132" height="12" rx="6"/><rect id="Rectangle-Copy-4" fill="#FFF" x="58.318" y="115.499" width="117" height="12" rx="6"/><rect id="Rectangle-Copy-5" fill="#FFF" x="58.318" y="149.499" width="79" height="12" rx="6"/></g></g></g><g id="Floor" transform="translate(0.000000, 1872.500000)" fill="#090E2B" fill-rule="nonzero"><path d="M3214.29077,-2.5 C3216.22377,-2.5 3217.79077,-0.932996624 3217.79077,1 C3217.79077,2.8685634 3216.32649,4.39512645 3214.48281,4.49482114 L3214.29077,4.5 L0.290769851,4.5 C-1.64222677,4.5 -3.20923015,2.93299662 -3.20923015,1 C-3.20923015,-0.868563404 -1.74495255,-2.39512645 0.098734648,-2.49482114 L0.290769851,-2.5 L3214.29077,-2.5 Z" id="Path-4-Copy"/></g></g></svg>