<svg viewBox="40 360 3040.000000000001 1719.9999999999998" xmlns="http://www.w3.org/2000/svg" overflow="visible" xmlns:xlink="http://www.w3.org/1999/xlink" width="3040.000000000001px" height="1719.9999999999998px"><g id="Master/Scenes/Feedback Session" stroke="none" stroke-width="1" fill="none" fill-rule="evenodd"><g id="Background"><g id="Outdoor Plants" transform="translate(2.000000, 1090.000000) scale(1 1)"><g id="Outdoor Plants/Trees" stroke="none" stroke-width="1" fill="none" fill-rule="evenodd"><g id="Group" transform="translate(50.000000, 27.000000)"><path d="M246.327941,707.554023 C202.725234,648.694159 266.995654,634.469818 237.177083,579.041474 C201.045875,511.877502 252.889207,525.364984 230.558991,457.77841 C212.889507,404.298257 182.034281,401.995081 179.286724,325.770544 C176.543382,249.546006 39.2582753,245.25238 68.925141,351.777408 C98.5962208,458.302435 22.2672523,432.071593 35.6974086,509.466735 C53.6492336,612.915227 -18.38566,571.479753 4.55980649,651.097777 C24.0792556,718.828035 -59.1552187,832.362634 138.705486,859 C314.797719,849.998599 289.934862,766.418112 246.327941,707.554023 Z" id="Fill-1" fill="#009BA0"/><path d="M95,585 C95,585 102.269883,617.395249 137,651" id="Stroke-5" stroke="#090E2B" stroke-width="9.107" stroke-linecap="round" stroke-linejoin="round"/><path d="M63,713 C63,713 75.8067111,744.89889 137,778" id="Stroke-7" stroke="#090E2B" stroke-width="9.107" stroke-linecap="round" stroke-linejoin="round"/><path d="M199,637 C199,637 190.990083,687.972701 137,725" id="Stroke-9" stroke="#090E2B" stroke-width="9.107" stroke-linecap="round" stroke-linejoin="round"/><path d="M608.603445,473.480495 C570.590587,379.998182 626.937388,314.013535 549.627883,136.939688 C472.318378,-40.1341592 367.026875,-40.7590157 351.056381,107.78507 C335.090104,256.329155 210.936686,350.641456 268.195115,484.721371 C324.468099,616.493705 207.88992,647.351714 245.711222,745.061987 C293.787219,869.262883 452.912681,874 452.912681,874 C626.199908,874 654.358401,816.786582 667.882995,767.076651 C703.354583,636.700085 625.009296,513.826235 608.603445,473.480495 Z" id="Fill-11" fill="#FFB201"/><path d="M535,314 C535,314 520.978644,385.165722 454,459" id="Stroke-15" stroke="#090E2B" stroke-width="9.107" stroke-linecap="round" stroke-linejoin="round"/><path d="M560,611 C560,611 541.481013,682.167801 453,756" id="Stroke-17" stroke="#090E2B" stroke-width="9.107" stroke-linecap="round" stroke-linejoin="round"/><path d="M365,465 C365,465 376.498556,549.574282 454,611" id="Stroke-19" stroke="#090E2B" stroke-width="9.107" stroke-linecap="round" stroke-linejoin="round"/><line x1="136" y1="938" x2="136" y2="511" id="Stroke-3" stroke="#090E2B" stroke-width="9.107" stroke-linecap="round" stroke-linejoin="round"/><line x1="453" y1="932" x2="453" y2="226" id="Stroke-13" stroke="#090E2B" stroke-width="9.107" stroke-linecap="round" stroke-linejoin="round"/></g></g></g><path d="M2776.5,2051 C2778.433,2051 2780,2052.567 2780,2054.5 C2780,2056.36856 2778.53572,2057.89513 2776.69204,2057.99482 L2776.5,2058 L130.5,2058 C128.567003,2058 127,2056.433 127,2054.5 C127,2052.63144 128.464278,2051.10487 130.307965,2051.00518 L130.5,2051 L2776.5,2051 Z" id="Path-4-Copy" fill="#090E2B" fill-rule="nonzero"/><g id="UI Elements" transform="translate(1050.000000, 1114.000000) scale(1 1)"><g id="UI Elements/Chat" stroke="none" stroke-width="1" fill="none" fill-rule="evenodd"><g id="Interface--Box-1" transform="translate(74.000000, 54.000000)"><rect id="Rectangle-Copy-4" fill="#090E2B" x="48" y="36" width="903" height="664" rx="64"/><rect id="Rectangle" fill="#FFF" x="3" y="3" width="903" height="664" rx="64"/><path d="M842,0 L67,0 C29.9969218,0 0,29.9969218 0,67 L0,603 C0,640.003078 29.9969218,670 67,670 L842,670 C879.003078,670 909,640.003078 909,603 L909,67 C909,29.9969218 879.003078,0 842,0 Z M67,6 L842,6 C875.68937,6 903,33.3106303 903,67 L903,603 C903,636.68937 875.68937,664 842,664 L67,664 C33.3106303,664 6,636.68937 6,603 L6,67 C6,33.3106303 33.3106303,6 67,6 Z" id="Rectangle-Copy" fill="#090E2B" fill-rule="nonzero"/><path d="M81.6784,559.808 L800.7568,559.808 C807.384217,559.808 812.7568,554.435417 812.7568,547.808 L812.7568,271.1616 C812.7568,264.534183 807.384217,259.1616 800.7568,259.1616 L81.6784,259.1616 C75.050983,259.1616 69.6784,264.534183 69.6784,271.1616 L69.6784,547.808 C69.6784,554.435417 75.050983,559.808 81.6784,559.808 Z" id="Stroke-1" fill="#C7D2F2" fill-rule="nonzero"/><rect id="Rectangle" fill="#FFF" x="124" y="324" width="625" height="22" rx="8.5"/><rect id="Rectangle-Copy-2" fill="#FFF" x="124" y="397" width="625" height="22" rx="8.5"/><rect id="Rectangle-Copy-3" fill="#FFF" x="124" y="470" width="491" height="22" rx="8.5"/><path d="M81.6784,199.104 L166.664,199.104 C173.291417,199.104 178.664,193.731417 178.664,187.104 L178.664,102.1248 C178.664,95.497383 173.291417,90.1248 166.664,90.1248 L81.6784,90.1248 C75.050983,90.1248 69.6784,95.497383 69.6784,102.1248 L69.6784,187.104 C69.6784,193.731417 75.050983,199.104 81.6784,199.104 Z" id="Stroke-2" fill="#FFB201"/><path d="M313.138385,84.8967885 C329.447729,79.5153053 348.586818,83.2415764 358.898207,95.1494108 C364.641993,101.78247 365.553157,109.836021 361.675317,118.16689 C358.288646,125.442569 351.252764,133.056341 340.595642,141.27597 C336.31135,144.580361 331.408948,148.004801 325.887118,151.550657 L325.349,151.894 L325.543643,152.04445 C341.792399,164.438624 357.091439,166.862182 376.260449,162.057646 L377.968343,161.616032 C383.787581,160.074404 388.340217,158.490339 398.373445,154.551317 L408.291943,150.622394 C426.652824,143.383698 437.167182,140.154312 449.947188,138.648183 C467.698785,136.55615 484.762574,139.44633 502.330447,148.436475 C578.210251,187.267035 616.68251,193.20019 673.005729,172.413466 C676.114478,171.266146 679.564703,172.8562 680.712023,175.964949 C681.859342,179.073698 680.269289,182.523924 677.160539,183.671243 C645.644812,195.30248 619.114696,198.641981 591.124925,194.325425 L589.544806,194.074065 C563.69996,189.837339 536.014264,179.153744 496.863807,159.118977 C481.451903,151.232123 466.781412,148.747308 451.351673,150.565709 L450.342491,150.689479 C439.117599,152.120689 429.287548,155.218498 411.838757,162.123665 L403.055294,165.605084 C391.669618,170.080433 386.906843,171.710504 379.851947,173.526373 C357.027478,179.401193 337.796987,176.483508 318.265861,161.585618 C317.0727,160.675502 315.864585,159.672344 314.654208,158.592274 L314.545,158.494 L314.017166,158.804659 L312.295102,159.804812 C293.187916,170.838945 268.652234,182.944456 238.653973,196.156684 L237.200946,196.795635 C234.166794,198.12777 230.627219,196.748013 229.295083,193.713861 C227.962948,190.679709 229.342705,187.140134 232.376857,185.807998 L235.096589,184.610328 C263.492115,172.068188 286.795242,160.578237 304.975046,150.172539 L305.979,149.594 L305.732259,149.301723 C299.306434,141.630328 293.812924,132.801442 291.510503,125.686128 L291.361761,125.214344 C285.517654,106.168413 295.144491,90.834111 313.138385,84.8967885 Z M349.826646,103.004777 C342.950235,95.0637364 328.907966,92.3297871 316.898536,96.2924571 C304.724978,100.309283 299.047137,109.353346 302.833845,121.694218 C304.636454,127.568918 309.846003,135.708997 315.788395,142.599086 L316.432,143.336 L316.802823,143.104213 C322.845916,139.317522 328.138527,135.690524 332.678924,132.22501 L333.266883,131.773903 C350.827935,118.229407 355.086995,109.079552 349.826646,103.004777 Z" id="Path-8" fill="#FFB201" fill-rule="nonzero"/></g></g></g><g id="UI Elements" transform="translate(1050.000000, 255.000000) scale(1 1)"><g id="UI Elements/UI Card 2" stroke="none" stroke-width="1" fill="none" fill-rule="evenodd"><g id="interface" transform="translate(143.000000, 108.000000)"><path d="M796.095175,592 L61.9048254,592 C52.5681131,592 45,584.43436 45,575.100698 L45,56.9014958 C45,47.5678339 52.5681131,40 61.9048254,40 L796.095175,40 C805.431887,40 813,47.5678339 813,56.9014958 L813,575.100698 C813,584.43436 805.431887,592 796.095175,592 Z" id="Stroke-1-Copy-3" fill="#090E2B"/><path d="M754.095175,555 L19.9048254,555 C10.5681131,555 3,547.43436 3,538.100698 L3,19.9014958 C3,10.5678339 10.5681131,3 19.9048254,3 L754.095175,3 C763.431887,3 771,10.5678339 771,19.9014958 L771,538.100698 C771,547.43436 763.431887,555 754.095175,555 Z" id="Stroke-1-Copy-2" fill="#FFB201"/><path d="M754.095175,0 L19.9048254,0 C8.91177633,0 0,8.91046219 0,19.9014958 L0,538.100698 C0,549.091433 8.91147822,558 19.9048254,558 L754.095175,558 C765.088522,558 774,549.091433 774,538.100698 L774,19.9014958 C774,8.91046219 765.088224,0 754.095175,0 Z M19.9048254,6 L754.095175,6 C761.774713,6 768,12.2243688 768,19.9014958 L768,538.100698 C768,545.777286 761.775252,552 754.095175,552 L19.9048254,552 C12.2247479,552 6,545.777286 6,538.100698 L6,19.9014958 C6,12.2243688 12.2252868,6 19.9048254,6 Z" id="Stroke-1-Copy-4" fill="#090E2B" fill-rule="nonzero"/><rect id="Rectangle-Copy-2" fill="#FFF" x="84" y="341" width="536" height="25" rx="12.5"/><rect id="Rectangle-Copy-3" fill-opacity=".6" fill="#FFF" x="85" y="424" width="396" height="25" rx="12.5"/><path d="M235.177833,110.81867 C227.185538,104.768093 217.382289,103.427639 207.809374,106.828905 C197.973601,110.323565 189.221893,118.526773 183.646729,129.991287 C177.384572,142.868502 175.420176,159.052394 178.619243,177.174179 C182.121285,197.012233 190.573939,213.94983 202.695283,227.017574 L203.281,227.643 L204.136979,227.092052 C240.264292,203.530099 256.549408,177.547747 253.293204,149.29804 L253.103783,147.80912 C250.655617,130.214335 244.247467,117.684846 235.177833,110.81867 Z M505.842035,232.426649 L523.827521,217.528033 C528.861168,213.397292 532.435677,210.610149 535.794008,208.241442 C544.837025,201.863199 552.104066,198.860832 560.543814,198.437223 C568.776183,198.024022 578.096647,200.09358 591.815736,205.152633 L595.844784,206.657784 C604.219635,209.820062 609.696003,212.190744 646.595195,228.237346 C648.62106,229.118348 649.549156,231.474829 648.668154,233.500695 C647.787152,235.52656 645.430671,236.454655 643.404805,235.573654 L616.305789,223.807985 C602.625476,217.896342 598.404268,216.172107 592.715497,214.027871 L589.751282,212.919169 C576.56553,208.011399 567.998703,206.073116 560.944847,206.427165 C554.360703,206.757637 548.573312,209.095584 540.929133,214.411813 L540.405031,214.778909 C537.226418,217.020856 533.770971,219.716184 528.850558,223.7549 L511.514534,238.120007 C510.961685,238.574623 510.466703,238.980504 510.047778,239.322454 C496.512415,250.370774 484.631585,251.678075 474.648986,244.098099 C467.468896,238.64612 462.189507,229.836545 455.74709,214.854426 L454.956757,212.979018 C453.652739,209.854431 450.088177,201.329237 448.669142,198.12545 L448.445809,197.626142 C444.897603,189.792141 442.048006,185.569319 439.684227,184.503585 C437.781041,183.645514 434.932355,185.322008 430.499974,191.882993 L429.538477,193.314532 C419.6629,207.895433 412.080714,214.210184 403.216181,215.935344 L402.673279,216.036778 C400.263009,216.467382 398.237762,216.553963 394.262408,216.496152 L391.572079,216.450832 C384.018715,216.356451 379.70279,216.848177 373.315547,218.985577 C364.271413,222.012067 353.865627,228.07077 341.218444,238.220629 L339.854772,239.323817 C310.35146,263.379578 272.018215,270.264603 237.983138,258.861028 C224.727086,254.419541 212.843117,247.464548 202.81987,238.379492 L202.154,237.769 L202.062088,237.825611 C175.845262,253.744999 141.02884,268.371023 97.695117,281.745545 L94.1629089,282.827224 C92.0491915,283.469481 89.8150329,282.276626 89.1727761,280.162909 C88.5305192,278.049191 89.7233737,275.815033 91.8370911,275.172776 C135.055196,262.040877 169.546753,247.807206 195.398066,232.515664 L196.358,231.943 L196.017709,231.570961 C183.545315,217.787504 174.77398,200.185397 170.95583,179.747194 L170.741057,178.564927 C167.257064,158.829121 169.429049,140.934983 176.452313,126.492661 C182.917449,113.198048 193.251996,103.511204 205.131,99.2905822 C217.194332,95.0044681 229.823674,96.7313505 240.006568,104.440322 C250.914953,112.698528 258.306392,127.150586 261.027448,146.706609 C265.47074,178.640215 248.443666,207.22332 210.263218,232.617166 L209.177,233.33 L209.630305,233.727412 C218.289656,241.242055 228.382564,247.069245 239.563664,250.947815 L240.524701,251.275486 C271.965035,261.809683 307.429352,255.439945 334.799364,233.123587 C348.763568,221.737762 360.40769,214.868966 370.776835,211.39908 C378.368938,208.858491 383.541892,208.318965 392.318932,208.460773 L394.263558,208.495215 C397.913687,208.54986 399.585337,208.474657 401.483591,208.121571 L401.687943,208.08267 C408.1818,206.818876 414.291337,201.672247 423.266349,188.307125 L423.608556,187.795629 C430.082118,178.084023 436.43993,174.26535 442.97236,177.210562 C447.611028,179.301953 451.107421,184.309349 455.260164,193.291617 L455.733186,194.325516 C457.283846,197.74918 462.812161,211.03081 462.801668,211.006234 L463.373744,212.336459 C469.153866,225.677214 473.858267,233.452783 479.486901,237.726711 C486.097329,242.746135 493.743837,242.039973 504.226296,233.738326 L505.481564,232.722173 C505.597576,232.627151 505.717824,232.528567 505.842035,232.426649 Z" id="Path-7" fill="#FFF" fill-rule="nonzero"/></g></g></g></g><g transform="translate(249.000000, 555.000000) scale(1 1)" id="Master/Character/Standing"><g id="Master/Character/Standing" stroke="none" stroke-width="1" fill="none" fill-rule="evenodd"><g id="Lower Body/Standing" transform="translate(-64.000000, 629.000000) scale(1 1)"><g id="Lower Body/Standing/Jump 2" stroke="none" stroke-width="1" fill="none" fill-rule="evenodd"><g id="shoe-2" transform="translate(347.000000, 90.000000)"><path d="M171.879685,79.6600054 C197.953685,92.3230054 166.088437,171.4 157.996437,169 C149.904437,166.599 69.5206849,78.1000054 69.5206849,78.1000054 C69.5206849,78.1000054 62.9276849,46.8840054 104.095685,36.9270054 C104.095685,36.9270054 144.212685,66.2240054 171.879685,79.6600054 Z" id="leg-1" fill="#b75858"/><path d="M88.2489849,110.158405 C92.8389849,110.844405 95.1019849,102.615405 90.1249849,92.2214054 C84.9979849,81.5104054 74.1919849,80.8284054 74.4109849,77.8794054 C75.2959849,65.9424054 92.2659849,44.2474054 97.1359849,43.2704054 C103.208985,42.0544054 108.956985,44.6244054 112.126985,41.5234054 C115.296985,38.4244054 98.6149849,4.41640543 82.5239849,5.60040543 C66.4329849,6.78540543 54.9059849,17.6494054 49.4209849,37.3134054 C43.9349849,56.9774054 14.2679849,83.0444054 10.7429849,97.9414054 C7.21698494,112.838405 0.132984938,152.650405 14.5459849,160.063405 C28.9589849,167.476405 32.7809849,160.664405 35.8889849,156.951405 C38.0939849,154.316405 63.6959849,106.489405 88.2489849,110.158405" id="Fill-3" fill="#090E2B"/><path d="M91.1122849,8.61640543 C91.1122849,8.61640543 80.7032849,27.1024054 68.5992849,35.7134054 C58.1072849,43.1774054 -10.8457151,105.904405 15.2282849,151.938405 C21.7502849,163.454405 29.4032849,162.648405 29.4032849,162.648405 C29.4032849,162.648405 28.1732849,164.873405 22.4502849,164.191405 C16.2002849,163.448405 5.98728494,157.939405 2.96028494,148.222405 C-2.83871506,129.608405 -1.59871506,100.958405 20.2602849,75.3114054 C39.1012849,53.2074054 45.6542849,47.3144054 46.4892849,40.6114054 C47.1662849,35.1734054 56.2992849,12.5734054 73.9852849,0.576405431 C77.9452849,-2.10959457 89.8852849,5.27840543 91.1122849,8.61640543" id="Fill-5" fill="#FFB201"/></g><g id="shoe-1" transform="translate(167.000000, 126.000000)"><path d="M185.635329,88.0169034 C211.709329,100.679903 160.946664,160.170785 152.854664,157.770785 C144.762664,155.369785 69.5206849,78.1000054 69.5206849,78.1000054 C69.5206849,78.1000054 62.9276849,46.8840054 104.095685,36.9270054 C104.095685,36.9270054 157.968329,74.5809034 185.635329,88.0169034 Z" id="leg-1" fill="#b75858"/><path d="M88.2489849,110.158405 C92.8389849,110.844405 95.1019849,102.615405 90.1249849,92.2214054 C84.9979849,81.5104054 74.1919849,80.8284054 74.4109849,77.8794054 C75.2959849,65.9424054 92.2659849,44.2474054 97.1359849,43.2704054 C103.208985,42.0544054 108.956985,44.6244054 112.126985,41.5234054 C115.296985,38.4244054 98.6149849,4.41640543 82.5239849,5.60040543 C66.4329849,6.78540543 54.9059849,17.6494054 49.4209849,37.3134054 C43.9349849,56.9774054 14.2679849,83.0444054 10.7429849,97.9414054 C7.21698494,112.838405 0.132984938,152.650405 14.5459849,160.063405 C28.9589849,167.476405 32.7809849,160.664405 35.8889849,156.951405 C38.0939849,154.316405 63.6959849,106.489405 88.2489849,110.158405" id="Fill-3" fill="#090E2B"/><path d="M91.1122849,8.61640543 C91.1122849,8.61640543 80.7032849,27.1024054 68.5992849,35.7134054 C58.1072849,43.1774054 -10.8457151,105.904405 15.2282849,151.938405 C21.7502849,163.454405 29.4032849,162.648405 29.4032849,162.648405 C29.4032849,162.648405 28.1732849,164.873405 22.4502849,164.191405 C16.2002849,163.448405 5.98728494,157.939405 2.96028494,148.222405 C-2.83871506,129.608405 -1.59871506,100.958405 20.2602849,75.3114054 C39.1012849,53.2074054 45.6542849,47.3144054 46.4892849,40.6114054 C47.1662849,35.1734054 56.2992849,12.5734054 73.9852849,0.576405431 C77.9452849,-2.10959457 89.8852849,5.27840543 91.1122849,8.61640543" id="Fill-5" fill="#FFB201"/></g><path d="M680.1399,-0.0004 C680.1399,-0.0004 705.2299,46.7576 707.5099,104.9196 C708.2129,122.8336 735.0459,302.4436 716.7079,362.2006 C709.5669,385.4766 688.6309,427.0196 659.4159,425.3956 C641.424504,424.396112 619.923591,418.51235 605.679741,411.485525 C596.419309,444.431499 585.234543,455.70941 568.3777,466.9655 C544.3527,483.0075 509.294728,476.591653 462.7137,439.3915 C416.132672,402.191347 333.031145,358.431163 303.074131,335.210702 C283.505131,290.679702 345.7187,219.8705 355.9317,206.7385 C411.4357,225.7885 460.7727,262.4435 498.6107,289.7665 C494.2337,264.9625 472.6787,218.6995 471.2107,129.9025 C469.7717,42.8385 511.1067,0.1895 511.1067,0.1895 L511.1067,0.1895 L601.2847,0.1895 C601.532874,0.287707664 601.779042,0.386666974 602.023222,0.486369746 L680.1399,-0.0004 Z" id="pant" fill="#001386"/><path d="M639.4661,39.7008 C642.691686,57.8550475 649.459339,113.450604 628.373299,121.41884 C630.029575,150.451884 630.189358,179.611134 629.7717,208.4814 C628.1427,268.7734 624.7737,329.7634 611.7757,388.6964 C610.1027,396.2814 606.5847,411.5824 605.8047,411.6064 C605.6097,411.6124 605.2517,412.5594 605.7617,409.4274 C607.2977,399.9974 611.8297,376.7454 613.3007,365.1304 C625.3077,284.5504 630.0067,202.3884 625.9617,120.9894 C625.1237,106.1564 623.7957,89.2734 622.1647,74.5134 C621.6087,67.7064 620.1927,58.1704 619.3347,51.3694 C619.1257,47.9544 617.2247,38.2454 618.8557,39.6354 C623.746664,65.7836806 626.634076,92.3644016 628.233738,119.057871 C643.964892,111.215797 640.448071,76.2153339 640.0641,61.1548 C640.5981,59.0518 636.1841,36.1558 639.4661,39.7008 Z M510.7337,307.7057 C506.7667,301.6957 502.8197,295.7247 498.2637,290.1387 C498.0757,289.9187 498.1067,289.5827 498.3357,289.4037 C500.7567,288.0697 516.0607,309.4637 510.7337,307.7057 Z M528.9381,34.2575 C526.7341,50.2655 517.0601,67.5415 503.3341,76.9555 C502.5021,78.3935 483.9051,86.6045 487.6741,81.8795 C506.1591,76.8505 518.8471,60.1525 525.3641,42.8935 C525.3651,42.8935 528.0231,35.1755 528.0231,35.1755 C528.0851,34.9485 528.7141,34.1785 528.9381,34.2575 Z M671.0989,33.3727 C677.0539,45.1297 684.1469,60.4397 698.5709,62.6697 C699.0449,62.7097 699.3959,63.1377 699.3409,63.6107 C688.5039,67.5517 677.8259,52.9317 673.7349,44.0927 C673.2289,42.9457 667.7639,31.1817 671.0989,33.3727 Z" id="shade" fill="#090E2B"/></g></g><g id="Upper Body/Standing" transform="translate(69.000000, -172.000000) scale(1 1)"><g id="Upper Body/Standing/Pointing Up 2" stroke="none" stroke-width="1" fill="none" fill-rule="evenodd"><path d="M871.547825,317.147257 C871.547825,317.147257 874.042491,311.628273 876.162657,307.845171 C878.961915,302.850755 876.723907,297.058474 871.174324,304.688748 C869.676326,306.747981 840.594198,339.06202 833.50767,345.038501 C780.121027,390.065325 716.122568,442.148801 701.213496,449.209457 C680.353378,459.087167 644.600166,464.544084 626.461411,480.649548 C617.654183,488.470028 651.531901,553 651.531901,553 C651.531901,553 707.133583,527.649512 724.886854,516.532457 C746.978326,502.696454 812.932171,420.878737 851.231979,368.718177 C859.7456,357.124606 875.730235,355.303632 881.415635,338.857799 C884.915957,328.735823 871.547825,317.147257 871.547825,317.147257" id="hand-2" fill="#b75858"/><path d="M496.228267,444.571797 C496.228267,444.571797 493.117669,467.789502 495.585937,472.399465 C496.789556,474.645985 505.084818,482.675695 536.523972,487.017835 C540.02377,490.712401 523.294174,527.801967 516.764819,533.95991 C510.236465,540.118853 489.273694,543.40269 449.404208,511.791514 C409.534723,480.17934 415.288679,480.58907 415.288679,480.58907 C415.288679,480.58907 437.631159,480.105389 442.827829,471.96775 C444.649765,469.114629 446.667802,425.542334 442.254535,412.392996 C437.841267,399.243659 496.228267,444.571797 496.228267,444.571797" id="Fill-4" fill="#b75858"/><path d="M321.103232,548 C321.103232,548 241.263001,625.825096 221.373737,645.706208 C206.230399,660.843339 128.418418,735.377755 79.9215135,779.758934 C64.7211405,793.669811 42.627517,800.909308 27.4191392,809.224028 C20.43083,813.043818 -4.88177841,826.409582 -2.88854933,830.949521 C-1.16448623,834.876333 29.8186188,830.371402 38.3628874,833.805112 C30.2989149,841.659736 31.8658811,849.055266 45.7234261,844.711368 C64.8652294,838.711127 73.5936115,820.747411 89.0431381,810.0562 C107.867746,797.029506 244.415945,726.397897 280.710325,690.949566 C307.334742,664.944187 371,629.234801 371,629.234801 L321.103232,548 Z" id="hand-1" fill="#b75858"/><path d="M345.649408,652.592613 C361.120602,640.141689 391.302145,618.937412 391.302145,618.937412 C391.302145,618.937412 327.884665,785.313124 329.806801,808.71574 C330.586588,818.20576 371.855237,816.149898 420.306951,830.611419 C500.977233,854.689307 586.401187,848.886574 578.251913,810.648039 C564.544679,746.330099 582.166263,592.175276 582.166263,592.175276 L669.02079,557.651941 C679.204107,538.68601 675.91345,463.642412 662.690755,459.044702 C659.199876,457.830514 561.878717,481.754211 561.878717,481.754211 C561.878717,481.754211 523.013523,479.130806 520.619863,480.420005 C518.227204,481.709204 512.653009,516.960652 504.844331,518.597905 C483.030087,523.174612 415.671227,477.102492 415.671227,477.102492 C415.671227,477.102492 382.607482,482.387309 364.635508,497.912708 C352.315817,508.555353 267,593.076415 267,593.076415 C267,593.076415 330.177213,665.043537 345.649408,652.592613 Z" id="Fill-8" fill="#3615F6"/><path d="M391,619.771333 C392.752664,616.262844 405.792041,604.039786 413.777621,597.391058 C420.398907,591.876417 423.546895,590.195013 413.900738,600.49083 C410.416431,603.63714 393.53841,622.263089 391,619.771333" id="Fill-10" fill="#000"/><path d="M583.789026,562.007767 C584.06561,562.935679 584.432694,580.969878 582.255609,590.235209 C582.075626,590.999604 581.97089,591.89895 581.740064,591.987604 C580.397817,592.503768 581.176727,576.770633 581.773621,569.02227 C582.51084,559.45059 583.320256,560.43662 583.789026,562.007767" id="Fill-12" fill="#000"/></g></g><g id="Head" transform="translate(399.000000, 26.000000) scale(1 1)"><g id="Head/Short Hair Dark" stroke="none" stroke-width="1" fill="none" fill-rule="evenodd"><path d="M203.3041,80.3781 C203.3041,80.3781 245.325044,106.524642 237.9671,158.0421 C233.30916,190.655184 248.155059,198.619131 237.9671,236.39085 C233.30916,253.6601 223.9421,270.1291 204.9101,273.8721 C190.5291,276.7011 155.4841,270.1421 130.1601,253.6601 C115.741004,244.275411 108.695804,231.120338 102.839951,212.467257 C86.3461236,211.07768 67.2046642,185.016111 81.55,174.4899 C84.9121577,172.023692 88.2985705,171.112896 91.8838097,171.633573 C86.3580791,146.740974 87.2671,137.240294 87.2671,126.0621 C87.2671,110.5371 68.5191,91.9091 103.9891,87.9181 C139.4581,83.9261 195.8531,70.4331 203.3041,80.3781 Z" id="Combined-Shape" fill="#b75858"/><path d="M86.5912,186.8615 C91.2362,181.0155 99.3112,184.2235 102.9222,189.5595 C104.5732,191.9995 105.1982,196.5475 104.3242,197.5495 C104.1152,197.7905 103.5582,195.9695 103.1792,195.2405 C99.7342,188.6025 96.3562,185.4085 87.2562,187.8575 C86.6992,187.9965 86.2372,187.3175 86.5912,186.8615" id="Fill-8" fill="#090E2B"/><path d="M101.9779,193.4806 C96.6629,193.6326 98.9159,202.7266 96.9999,200.2376 C96.0239,196.4226 97.4289,191.4386 101.8789,190.7476 C103.9009,190.3956 104.0229,193.6846 101.9779,193.4806" id="Fill-10" fill="#090E2B"/><path d="M164.020452,271.36959 C154.644565,269.470255 148.435203,265.601303 140.050203,261.363303 C139.551203,261.083303 130.571062,255.208763 130.268783,254.3815 C129.882863,253.325333 130.7298,253.9565 131.3648,254.3815 C138.7548,259.3395 158.1098,266.6665 169.8538,269.9605 C170.357039,270.040748 173.552665,271.357952 171.903442,271.675889 C171.278277,271.796408 167.7443,272.123954 164.020452,271.36959 Z" id="Fill-12" fill="#090E2B"/><path d="M123.991097,197.974758 C127.207892,191.05864 123.657342,175.918238 118.355838,164.003141 C115.785715,158.226807 110.408838,116.248782 130.751715,118.061567 C151.63046,119.922104 160.5076,123.0061 180.4026,122.6081 C193.0006,122.3561 215.366179,111.996593 215.705179,108.447593 C220.759389,111.359054 234.024819,113.974183 238.403543,137.719356 C246.854543,128.547356 246.0036,115.7791 243.8766,103.7461 C240.6826,85.6911 220.0506,84.2101 217.6836,83.9141 C220.3876,77.1091 214.2306,61.5091 206.7796,54.3251 C201.5256,49.2601 186.4756,32.6451 163.7056,35.2811 C151.1626,36.7331 147.0366,50.7761 147.0366,50.7761 C141.9666,47.5221 122.7226,46.0641 110.0236,50.7881 C88.7996,58.6831 104.4456,72.0791 106.8116,74.7421 C101.0646,76.2221 80.2401078,86.8514986 71.692034,103.7461 C60.6046971,125.659357 68.0307556,147.086046 78.446496,160.848214 C88.8622364,174.610382 94.4314772,169.724614 105.882354,179.67861 C112.512678,189.080043 121.004519,204.395906 123.991097,197.974758 Z" id="Fill-3" fill="#090E2B"/></g></g><g id="Expressions" transform="translate(520.000000, 159.000000) scale(1 1)"><g id="Expressions/Closed Eyes" stroke="none" stroke-width="1" fill="none" fill-rule="evenodd"><path d="M24.0758,24.1794 C25.8519526,16.1964843 49.2248,13.3983582 59.5098,19.5793582 C63.0658,21.6923582 69.6698,27.4974 63.8228,30.6574 C62.2788,31.3294 60.7788,30.6404 59.5098,29.8214 C45.4918,20.0794 22.8376733,29.744159 24.0758,24.1794 Z" id="Fill-1" fill="#090E2B" transform="translate(45.086940, 23.571248) rotate(-18.000000) translate(-45.086940, -23.571248)"/><path d="M104.459159,16.8614287 C107.81301,18.3491596 112.277799,23.2873 108.5609,23.2873 C104.844001,23.2873 96.7934026,22.2328903 91.3964026,24.4598903 C89.5114026,24.9418903 88.0809,25.8643 86.1879,26.0893 C81.8799,26.9283 79.5392891,21.768575 82.5852341,18.6492261 C86.0262801,15.1252544 97.6431592,13.4544287 104.459159,16.8614287 Z" id="Fill-4" fill="#090E2B" transform="translate(95.584306, 20.590227) rotate(7.000000) translate(-95.584306, -20.590227)"/><path d="M85.9879908,71.3386563 C85.0131141,76.2575144 78.9689699,76.7359636 75.0323155,75.6212963 C71.832522,74.7152719 71.0034674,72.851321 72.0853454,72.2537752 C73.8485675,71.2799076 79.4997296,73.9889887 81.5858367,71.4027854 C85.305606,66.7912866 73.8914605,49.8346319 77.5177277,52.5592059 C82.3102149,56.1600121 86.6386051,68.0559034 85.9879908,71.3386563 Z" id="nose" fill="#090E2B"/><path d="M94.6387968,89.5818454 C93.8707672,90.1602445 92.0677709,92.5463983 90.244688,94.0617056 C86.1444698,97.4697185 79.4745751,98.2530639 75.5444286,97.4697185 C68.1559339,95.997065 64.9595527,91.178225 63.0067117,89.8585998 C61.0538707,88.5389745 64.7200172,86.8442758 67.5249361,87.0931395 C70.3298551,87.3420033 72.2123883,88.156182 77.5654423,90.4592717 C81.0199316,91.9455259 88.8310598,89.8585998 91.0381944,88.5389745 C95.2484115,86.021725 96.5113061,88.1716685 94.6387968,89.5818454 Z" id="Fill-18" fill="#090E2B" transform="translate(78.969908, 92.408667) rotate(-6.000000) translate(-78.969908, -92.408667)"/><path d="M62.9346,45.1127 C63.5536,52.7587 53.9286,57.6257 45.7636,53.8057 C41.5576,51.8397 39.4146,48.8787 40.4396,47.6417 C41.0956,46.8497 42.9666,47.9757 43.5896,48.3457 C51.8656,53.2667 58.4216,48.8247 60.4226,44.4177 C61.2046,42.6977 62.7356,42.6557 62.9346,45.1127" id="Fill-5" fill="#090E2B"/><path d="M105.17,42.8109 C104.522,45.9149 103.316,47.4849 101.796,48.5889 C97.365,51.8059 90.136,48.5859 88.754,45.6209 C87.72,43.4039 89.161,43.3499 90.849,44.4009 C93.526,46.0709 96.073,46.4129 97.758,46.0939 C100.996,45.4829 102.535,42.2249 103.701,40.8829 C104.335,40.1539 105.675,40.3949 105.17,42.8109" id="Fill-7" fill="#090E2B"/></g></g><g id="Facial Accesories" transform="translate(517.000000, 209.000000) scale(1 1)" fill="#000"><g id="Facial Accesories/None" stroke="none" stroke-width="1" fill="none" fill-rule="evenodd" fill-opacity="0"/></g><g id="Glass" transform="translate(520.000000, 164.000000) scale(1 1)" fill="#000"><g id="Glass/None" stroke="none" stroke-width="1" fill="none" fill-rule="evenodd" fill-opacity="0"/></g></g></g><g transform="translate(2564.000000, 1305.000000) scale(-1, 1) translate(-2564.000000, -1305.000000) translate(2009.000000, 555.000000) scale(1 1)" id="Master/Character/Standing"><g id="Master/Character/Standing" stroke="none" stroke-width="1" fill="none" fill-rule="evenodd"><g id="Lower Body/Standing" transform="translate(-64.000000, 629.000000) scale(1 1)"><g id="Lower Body/Standing/Jump 1" stroke="none" stroke-width="1" fill="none" fill-rule="evenodd"><g id="shoe-2" transform="translate(347.000000, 90.000000)"><path d="M171.879685,79.6600054 C197.953685,92.3230054 166.088437,171.4 157.996437,169 C149.904437,166.599 69.5206849,78.1000054 69.5206849,78.1000054 C69.5206849,78.1000054 62.9276849,46.8840054 104.095685,36.9270054 C104.095685,36.9270054 144.212685,66.2240054 171.879685,79.6600054 Z" id="leg-1" fill="#b75858"/><path d="M88.2489849,110.158405 C92.8389849,110.844405 95.1019849,102.615405 90.1249849,92.2214054 C84.9979849,81.5104054 74.1919849,80.8284054 74.4109849,77.8794054 C75.2959849,65.9424054 92.2659849,44.2474054 97.1359849,43.2704054 C103.208985,42.0544054 108.956985,44.6244054 112.126985,41.5234054 C115.296985,38.4244054 98.6149849,4.41640543 82.5239849,5.60040543 C66.4329849,6.78540543 54.9059849,17.6494054 49.4209849,37.3134054 C43.9349849,56.9774054 14.2679849,83.0444054 10.7429849,97.9414054 C7.21698494,112.838405 0.132984938,152.650405 14.5459849,160.063405 C28.9589849,167.476405 32.7809849,160.664405 35.8889849,156.951405 C38.0939849,154.316405 63.6959849,106.489405 88.2489849,110.158405" id="Fill-3" fill="#090E2B"/><path d="M91.1122849,8.61640543 C91.1122849,8.61640543 80.7032849,27.1024054 68.5992849,35.7134054 C58.1072849,43.1774054 -10.8457151,105.904405 15.2282849,151.938405 C21.7502849,163.454405 29.4032849,162.648405 29.4032849,162.648405 C29.4032849,162.648405 28.1732849,164.873405 22.4502849,164.191405 C16.2002849,163.448405 5.98728494,157.939405 2.96028494,148.222405 C-2.83871506,129.608405 -1.59871506,100.958405 20.2602849,75.3114054 C39.1012849,53.2074054 45.6542849,47.3144054 46.4892849,40.6114054 C47.1662849,35.1734054 56.2992849,12.5734054 73.9852849,0.576405431 C77.9452849,-2.10959457 89.8852849,5.27840543 91.1122849,8.61640543" id="Fill-5" fill="#FFB201"/></g><g id="shoe-1" transform="translate(167.000000, 126.000000)"><path d="M185.635329,88.0169034 C211.709329,100.679903 160.946664,160.170785 152.854664,157.770785 C144.762664,155.369785 69.5206849,78.1000054 69.5206849,78.1000054 C69.5206849,78.1000054 62.9276849,46.8840054 104.095685,36.9270054 C104.095685,36.9270054 157.968329,74.5809034 185.635329,88.0169034 Z" id="leg-1" fill="#b75858"/><path d="M88.2489849,110.158405 C92.8389849,110.844405 95.1019849,102.615405 90.1249849,92.2214054 C84.9979849,81.5104054 74.1919849,80.8284054 74.4109849,77.8794054 C75.2959849,65.9424054 92.2659849,44.2474054 97.1359849,43.2704054 C103.208985,42.0544054 108.956985,44.6244054 112.126985,41.5234054 C115.296985,38.4244054 98.6149849,4.41640543 82.5239849,5.60040543 C66.4329849,6.78540543 54.9059849,17.6494054 49.4209849,37.3134054 C43.9349849,56.9774054 14.2679849,83.0444054 10.7429849,97.9414054 C7.21698494,112.838405 0.132984938,152.650405 14.5459849,160.063405 C28.9589849,167.476405 32.7809849,160.664405 35.8889849,156.951405 C38.0939849,154.316405 63.6959849,106.489405 88.2489849,110.158405" id="Fill-3" fill="#090E2B"/><path d="M91.1122849,8.61640543 C91.1122849,8.61640543 80.7032849,27.1024054 68.5992849,35.7134054 C58.1072849,43.1774054 -10.8457151,105.904405 15.2282849,151.938405 C21.7502849,163.454405 29.4032849,162.648405 29.4032849,162.648405 C29.4032849,162.648405 28.1732849,164.873405 22.4502849,164.191405 C16.2002849,163.448405 5.98728494,157.939405 2.96028494,148.222405 C-2.83871506,129.608405 -1.59871506,100.958405 20.2602849,75.3114054 C39.1012849,53.2074054 45.6542849,47.3144054 46.4892849,40.6114054 C47.1662849,35.1734054 56.2992849,12.5734054 73.9852849,0.576405431 C77.9452849,-2.10959457 89.8852849,5.27840543 91.1122849,8.61640543" id="Fill-5" fill="#FFB201"/></g><path d="M680.1399,-0.0004 C680.1399,-0.0004 705.2299,46.7576 707.5099,104.9196 C708.2129,122.8336 735.0459,302.4436 716.7079,362.2006 C709.5669,385.4766 688.6309,427.0196 659.4159,425.3956 C641.424504,424.396112 619.923591,418.51235 605.679741,411.485525 C596.419309,444.431499 585.234543,455.70941 568.3777,466.9655 C544.3527,483.0075 509.294728,476.591653 462.7137,439.3915 C416.132672,402.191347 333.031145,358.431163 303.074131,335.210702 C283.505131,290.679702 345.7187,219.8705 355.9317,206.7385 C411.4357,225.7885 460.7727,262.4435 498.6107,289.7665 C494.2337,264.9625 472.6787,218.6995 471.2107,129.9025 C469.7717,42.8385 511.1067,0.1895 511.1067,0.1895 L511.1067,0.1895 L601.2847,0.1895 C601.532874,0.287707664 601.779042,0.386666974 602.023222,0.486369746 L680.1399,-0.0004 Z" id="pant" fill="#FFB201"/><path d="M639.4661,39.7008 C642.691686,57.8550475 649.459339,113.450604 628.373299,121.41884 C630.029575,150.451884 630.189358,179.611134 629.7717,208.4814 C628.1427,268.7734 624.7737,329.7634 611.7757,388.6964 C610.1027,396.2814 606.5847,411.5824 605.8047,411.6064 C605.6097,411.6124 605.2517,412.5594 605.7617,409.4274 C607.2977,399.9974 611.8297,376.7454 613.3007,365.1304 C625.3077,284.5504 630.0067,202.3884 625.9617,120.9894 C625.1237,106.1564 623.7957,89.2734 622.1647,74.5134 C621.6087,67.7064 620.1927,58.1704 619.3347,51.3694 C619.1257,47.9544 617.2247,38.2454 618.8557,39.6354 C623.746664,65.7836806 626.634076,92.3644016 628.233738,119.057871 C643.964892,111.215797 640.448071,76.2153339 640.0641,61.1548 C640.5981,59.0518 636.1841,36.1558 639.4661,39.7008 Z M510.7337,307.7057 C506.7667,301.6957 502.8197,295.7247 498.2637,290.1387 C498.0757,289.9187 498.1067,289.5827 498.3357,289.4037 C500.7567,288.0697 516.0607,309.4637 510.7337,307.7057 Z M528.9381,34.2575 C526.7341,50.2655 517.0601,67.5415 503.3341,76.9555 C502.5021,78.3935 483.9051,86.6045 487.6741,81.8795 C506.1591,76.8505 518.8471,60.1525 525.3641,42.8935 C525.3651,42.8935 528.0231,35.1755 528.0231,35.1755 C528.0851,34.9485 528.7141,34.1785 528.9381,34.2575 Z M671.0989,33.3727 C677.0539,45.1297 684.1469,60.4397 698.5709,62.6697 C699.0449,62.7097 699.3959,63.1377 699.3409,63.6107 C688.5039,67.5517 677.8259,52.9317 673.7349,44.0927 C673.2289,42.9457 667.7639,31.1817 671.0989,33.3727 Z" id="shade" fill="#090E2B"/></g></g><g id="Upper Body/Standing" transform="translate(69.000000, -172.000000) scale(1 1)"><g id="Upper Body/Standing/Pointing Up 1" stroke="none" stroke-width="1" fill="none" fill-rule="evenodd"><path d="M871.547825,317.147257 C871.547825,317.147257 874.042491,311.628273 876.162657,307.845171 C878.961915,302.850755 876.723907,297.058474 871.174324,304.688748 C869.676326,306.747981 840.594198,339.06202 833.50767,345.038501 C780.121027,390.065325 716.122568,442.148801 701.213496,449.209457 C680.353378,459.087167 644.600166,464.544084 626.461411,480.649548 C617.654183,488.470028 651.531901,553 651.531901,553 C651.531901,553 707.133583,527.649512 724.886854,516.532457 C746.978326,502.696454 812.932171,420.878737 851.231979,368.718177 C859.7456,357.124606 875.730235,355.303632 881.415635,338.857799 C884.915957,328.735823 871.547825,317.147257 871.547825,317.147257" id="hand-2" fill="#b75858"/><path d="M496.228267,444.571797 C496.228267,444.571797 493.117669,467.789502 495.585937,472.399465 C496.789556,474.645985 505.084818,482.675695 536.523972,487.017835 C540.02377,490.712401 523.294174,527.801967 516.764819,533.95991 C510.236465,540.118853 489.273694,543.40269 449.404208,511.791514 C409.534723,480.17934 415.288679,480.58907 415.288679,480.58907 C415.288679,480.58907 437.631159,480.105389 442.827829,471.96775 C444.649765,469.114629 446.667802,425.542334 442.254535,412.392996 C437.841267,399.243659 496.228267,444.571797 496.228267,444.571797" id="Fill-4" fill="#b75858"/><path d="M321.103232,548 C321.103232,548 241.263001,625.825096 221.373737,645.706208 C206.230399,660.843339 128.418418,735.377755 79.9215135,779.758934 C64.7211405,793.669811 42.627517,800.909308 27.4191392,809.224028 C20.43083,813.043818 -4.88177841,826.409582 -2.88854933,830.949521 C-1.16448623,834.876333 29.8186188,830.371402 38.3628874,833.805112 C30.2989149,841.659736 31.8658811,849.055266 45.7234261,844.711368 C64.8652294,838.711127 73.5936115,820.747411 89.0431381,810.0562 C107.867746,797.029506 244.415945,726.397897 280.710325,690.949566 C307.334742,664.944187 371,629.234801 371,629.234801 L321.103232,548 Z" id="hand-1" fill="#b75858"/><path d="M345.649408,652.592613 C361.120602,640.141689 391.302145,618.937412 391.302145,618.937412 C391.302145,618.937412 327.884665,785.313124 329.806801,808.71574 C330.586588,818.20576 371.855237,816.149898 420.306951,830.611419 C500.977233,854.689307 586.401187,848.886574 578.251913,810.648039 C564.544679,746.330099 582.166263,592.175276 582.166263,592.175276 L669.02079,557.651941 C679.204107,538.68601 675.91345,463.642412 662.690755,459.044702 C659.199876,457.830514 561.878717,481.754211 561.878717,481.754211 C561.878717,481.754211 523.013523,479.130806 520.619863,480.420005 C518.227204,481.709204 512.653009,516.960652 504.844331,518.597905 C483.030087,523.174612 415.671227,477.102492 415.671227,477.102492 C415.671227,477.102492 382.607482,482.387309 364.635508,497.912708 C352.315817,508.555353 267,593.076415 267,593.076415 C267,593.076415 330.177213,665.043537 345.649408,652.592613 Z" id="Fill-8" fill="#FF0057"/><path d="M391,619.771333 C392.752664,616.262844 405.792041,604.039786 413.777621,597.391058 C420.398907,591.876417 423.546895,590.195013 413.900738,600.49083 C410.416431,603.63714 393.53841,622.263089 391,619.771333" id="Fill-10" fill="#000"/><path d="M583.789026,562.007767 C584.06561,562.935679 584.432694,580.969878 582.255609,590.235209 C582.075626,590.999604 581.97089,591.89895 581.740064,591.987604 C580.397817,592.503768 581.176727,576.770633 581.773621,569.02227 C582.51084,559.45059 583.320256,560.43662 583.789026,562.007767" id="Fill-12" fill="#000"/></g></g><g id="Head" transform="translate(399.000000, 26.000000) scale(1 1)"><g id="Head/Afro" stroke="none" stroke-width="1" fill="none" fill-rule="evenodd"><path d="M231.6313,151.3019 C236.4543,169.0359 245.8113,200.7169 229.2603,232.6039 C218.0793,254.1449 198.8703,266.8079 180.7813,266.8079 C172.0283,266.8079 143.6393,257.6409 128.9153,246.5709 C111.3193,233.3429 100.9123,219.1829 100.882902,185.5669 C100.8523,150.3759 106.1943,130.0149 125.5053,112.3559 C149.7133,90.2149 222.6933,88.2139 228.7473,116.0439 C228.7473,116.0439 226.8073,133.5669 231.6313,151.3019 Z" id="Fill-1" fill="#b75858"/><path d="M186.1612,279.8005 C198.3292,282.114043 206.1462,278.402877 210.7822,275.450615 C216.0322,283.751065 242.8552,283.10653 247.3622,258.387393 C265.5082,256.621463 289.3372,245.942532 281.1322,217.989088 C295.6742,218.876899 295.9942,198.910845 290.1182,187.541825 C308.544499,181.777839 310.8892,155.008788 298.1052,142.314837 C308.4822,138.444718 315.1702,119.439167 298.1052,93.7440189 C307.2022,73.4891359 298.1052,59.3432839 287.4802,60.1080031 C288.7652,53.7857425 292.1022,48.3571082 273.8482,46.3905489 C276.5522,29.3544651 269.7432,7.14465354 240.1832,11.9626755 C236.8022,-7.69516429 218.6722,-16.6721346 205.7152,-6.12307987 C194.8972,-24.4705262 161.9962,-24.1371125 153.9452,-3.70873814 C135.2502,-22.8567651 104.9412,-4.71867154 97.5042,12.9735781 C86.5952,-1.53282599 61.1512,-2.25877619 46.2312,30.9575648 C14.3742,29.0016669 -4.8638,42.2238467 2.0722,67.0999988 C-15.3448,69.76537 -33.7798,91.4246613 -15.6978,120.428746 C-25.4898,121.92717 -32.7808,150.208212 -15.9448,153.458996 C-26.1028,160.900713 -24.4868,192.889044 3.2312,194.199438 C-11.0198,199.998316 -11.6418,228.927771 8.6402,233.515117 C3.6952,259.12885 27.2562,267.22964 41.7672,259.069728 C43.7722,281.317339 79.0096927,284.841214 89.4597564,270.390539 C106.654181,276.448135 118.476574,269.409587 121.0792,263.008264 C129.20875,243.013122 118.388956,236.640352 118.388956,236.640352 C125.758956,226.622434 115.4722,207.799198 104.3832,202.760193 C94.4182,198.231 100.8272,178.346779 104.3832,167.200681 C115.5572,171.092123 117.2932,186.284739 121.0792,175.379009 C124.8652,164.473279 123.2632,157.14787 123.2632,157.14787 C131.6472,146.804291 148.1822,151.292776 147.4732,130.633726 C155.2782,136.168975 167.2712,133.585988 169.1942,124.516941 C180.4912,138.343918 195.3552,133.394081 198.3292,126.254763 C200.9172,134.937089 213.4532,138.330349 226.9512,133.000576 C225.3782,143.659153 229.2602,153.740072 235.0712,176.986955 C237.246848,185.690628 243.85663,217.989088 219.038702,248.090856 C205.341331,264.704455 186.0242,270.901068 160.9592,262.426157 C160.9592,262.426157 164.3122,275.642521 186.1612,279.8005 Z" id="Fill-3" fill="#090E2B"/><path d="M116.452939,175.434825 C115.032939,169.438825 102.362688,156.78726 90.0576876,163.71926 C82.3906876,168.03826 78.9723375,177.245694 83.2974894,187.750725 C87.6226412,198.255755 104.109131,208.330523 113.652528,202.276629 C123.195925,196.222734 117.872939,181.430825 116.452939,175.434825 Z" id="Fill-6" fill="#b75858"/><path d="M130.844,247.7548 C140.999,254.0438 151.196,257.8948 161.161,261.4238 C162.281,261.8198 161.214,262.5198 160.041,262.4468 C149.714,261.8138 137.573,254.1728 135.002,252.4118 C129.728,248.8018 127.379,245.6088 130.844,247.7548" id="Fill-8" fill="#090E2B"/><path d="M101.208529,172.634366 C99.3520604,171.272846 97.8524659,170.341859 96.7694659,170.090859 C94.5974659,169.586859 97.4586652,171.219339 99.9656652,174.002339 C101.456665,175.656339 102.967823,177.818816 104.093252,179.919728 C101.461252,181.164728 97.9904659,185.086859 99.1164659,190.593859 C99.9684659,191.423859 99.9880991,188.631411 100.886466,186.891859 C102.46178,183.8415 104.331794,183.400754 105.551466,182.998859 C106.379466,184.813859 107.097466,186.970859 107.634466,189.656859 C107.744466,190.207859 108.895378,191.512406 109.283315,189.390222 C109.595315,183.288222 106.240982,176.32513 101.208529,172.634366 Z" id="Fill-10" fill="#090E2B" transform="translate(102.651692, 180.372220) rotate(-3.000000) translate(-102.651692, -180.372220)"/></g></g><g id="Expressions" transform="translate(520.000000, 159.000000) scale(1 1)"><g id="Expressions/Relaxed" stroke="none" stroke-width="1" fill="none" fill-rule="evenodd"><path d="M93.917,85.9779 C78.288,85.3499 67.34,84.9099 56.819,84.4879 C53.549,84.3559 50.673,90.0739 56.294,97.5689 C64.259,108.1889 84.891,111.8759 93.281,99.0539 C97.555,92.5239 97.31,86.1149 93.917,85.9779" id="Fill-1" fill="#FFF"/><path d="M82.7872,55.7084 C86.8282,59.4834 96.9612,74.6464 87.8282,76.8394 C85.9422,77.2914 77.3212,77.5114 78.5922,75.6374 C79.6052,74.1434 85.9772,75.0244 86.8982,72.1854 C88.1082,68.4554 83.7122,61.1524 80.9722,56.1434 C80.5012,55.2804 82.1522,54.9674 82.7872,55.7084" id="nose" fill="#090E2B"/><path d="M63.2787643,47.5005595 C63.8977643,55.1465595 54.2727643,60.0135595 46.1077643,56.1935595 C41.9017643,54.2275595 39.7587643,51.2665595 40.7837643,50.0295595 C41.4397643,49.2375595 43.3107643,50.3635595 43.9337643,50.7335595 C52.2097643,55.6545595 58.7657643,51.2125595 60.7667643,46.8055595 C61.5487643,45.0855595 63.0797643,45.0435595 63.2787643,47.5005595 Z M104.514164,42.1987595 C103.866164,45.3027595 102.660164,46.8727595 101.140164,47.9767595 C96.7091643,51.1937595 89.4801643,47.9737595 88.0981643,45.0087595 C87.0641643,42.7917595 88.5051643,42.7377595 90.1931643,43.7887595 C92.8701643,45.4587595 95.4171643,45.8007595 97.1021643,45.4817595 C100.340164,44.8707595 101.879164,41.6127595 103.045164,40.2707595 C103.679164,39.5417595 105.019164,39.7827595 104.514164,42.1987595 Z" id="eye" fill="#090E2B" transform="translate(72.577838, 48.716394) rotate(3.000000) translate(-72.577838, -48.716394)"/><path d="M62.79355,24.2519929 C66.09155,27.4989929 65.39755,33.0019929 61.13355,31.9079929 C49.32655,25.7259929 38.64055,24.0389929 28.38555,32.9259929 C24.70055,36.1199929 22.78655,33.4669929 23.96555,30.1789929 C24.80555,27.8369929 28.41655,23.5259929 31.44155,21.8919929 C41.35255,16.5349929 55.59955,17.1699929 62.79355,24.2519929 Z M106.56795,16.9292929 C108.41995,18.3412929 109.65195,21.1502929 106.65095,21.9192929 C105.57695,22.1952929 94.27495,18.5422929 86.72495,27.4442929 C85.02995,29.4432929 81.19395,28.9722929 81.57395,25.6042929 C82.55195,16.9622929 97.18895,9.78229286 106.56795,16.9292929 Z" id="eybrow" fill="#090E2B" transform="translate(66.040205, 24.189369) rotate(3.000000) translate(-66.040205, -24.189369)"/></g></g><g id="Facial Accesories" transform="translate(517.000000, 209.000000) scale(1 1)" fill="#000"><g id="Facial Accesories/None" stroke="none" stroke-width="1" fill="none" fill-rule="evenodd" fill-opacity="0"/></g><g id="Glass" transform="translate(520.000000, 164.000000) scale(1 1)" fill="#000"><g id="Glass/None" stroke="none" stroke-width="1" fill="none" fill-rule="evenodd" fill-opacity="0"/></g></g></g></g></svg>