<svg xmlns="http://www.w3.org/2000/svg" xmlns:xlink="http://www.w3.org/1999/xlink" viewBox="0 0 500 500"><defs><clipPath id="freepik--clip-path--inject-32"><path d="M226.78,395s1.17-5.9,5.75-7.17,6.35-2.67,6.35-2.67S237.47,394.27,226.78,395Z" style="fill:#407BFF"></path></clipPath></defs><g id="freepik--background-complete--inject-32"><rect x="416.78" y="398.49" width="33.12" height="0.25" style="fill:#ebebeb"></rect><rect x="322.53" y="401.21" width="8.69" height="0.25" style="fill:#ebebeb"></rect><rect x="396.59" y="389.21" width="19.19" height="0.25" style="fill:#ebebeb"></rect><rect x="52.46" y="390.89" width="43.19" height="0.25" style="fill:#ebebeb"></rect><rect x="104.56" y="390.89" width="6.33" height="0.25" style="fill:#ebebeb"></rect><rect x="131.47" y="395.11" width="93.68" height="0.25" style="fill:#ebebeb"></rect><path d="M238.4,337.8H45.3a5.71,5.71,0,0,1-5.71-5.71V60.66A5.71,5.71,0,0,1,45.3,55H238.4a5.71,5.71,0,0,1,5.71,5.71V332.09A5.71,5.71,0,0,1,238.4,337.8ZM45.3,55.2a5.47,5.47,0,0,0-5.46,5.46V332.09a5.47,5.47,0,0,0,5.46,5.46H238.4a5.47,5.47,0,0,0,5.46-5.46V60.66a5.47,5.47,0,0,0-5.46-5.46Z" style="fill:#ebebeb"></path><path d="M454.7,337.8H261.6a5.71,5.71,0,0,1-5.71-5.71V60.66A5.71,5.71,0,0,1,261.6,55H454.7a5.71,5.71,0,0,1,5.71,5.71V332.09A5.71,5.71,0,0,1,454.7,337.8ZM261.6,55.2a5.47,5.47,0,0,0-5.46,5.46V332.09a5.47,5.47,0,0,0,5.46,5.46H454.7a5.47,5.47,0,0,0,5.46-5.46V60.66a5.47,5.47,0,0,0-5.46-5.46Z" style="fill:#ebebeb"></path><rect y="382.4" width="500" height="0.25" style="fill:#ebebeb"></rect><polygon points="420.35 225.94 420.35 382.41 388.27 382.41 388.27 246.44 420.35 225.94" style="fill:#f0f0f0"></polygon><polygon points="393.13 274.06 393.38 382.21 401.23 382.21 446.85 382.21 454.7 382.21 455.05 274.06 393.13 274.06" style="fill:#e6e6e6"></polygon><polygon points="405.1 260.29 405.13 284.41 409.99 284.41 438.22 284.41 443.08 284.41 443.13 260.29 405.1 260.29" style="fill:#e6e6e6"></polygon><polygon points="405.06 284.41 397.04 284.41 397.02 277.18 405.05 277.18 405.06 284.41" style="fill:#fafafa"></polygon><rect x="412.42" y="277.18" width="8.02" height="7.23" style="fill:#fafafa"></rect><rect x="427.8" y="277.18" width="8.02" height="7.23" style="fill:#fafafa"></rect><polygon points="451.2 284.41 443.18 284.41 443.2 277.18 451.22 277.18 451.2 284.41" style="fill:#f0f0f0"></polygon><polygon points="404.95 297.57 397.12 297.57 397.1 290.52 404.94 290.52 404.95 297.57" style="fill:#f0f0f0"></polygon><rect x="412.47" y="290.52" width="7.84" height="7.05" style="fill:#f0f0f0"></rect><rect x="427.84" y="290.52" width="7.84" height="7.05" style="fill:#fafafa"></rect><polygon points="451.03 297.57 443.2 297.57 443.21 290.52 451.05 290.52 451.03 297.57" style="fill:#fafafa"></polygon><polygon points="404.88 310.42 397.23 310.42 397.22 303.54 404.87 303.54 404.88 310.42" style="fill:#f0f0f0"></polygon><rect x="412.57" y="303.54" width="7.65" height="6.88" style="fill:#fafafa"></rect><rect x="427.92" y="303.54" width="7.65" height="6.88" style="fill:#fafafa"></rect><rect x="412.22" y="266.69" width="8.18" height="7.37" style="fill:#fafafa"></rect><rect x="427.61" y="266.69" width="8.18" height="7.37" style="fill:#f0f0f0"></rect><polygon points="450.91 310.42 443.26 310.42 443.27 303.54 450.93 303.54 450.91 310.42" style="fill:#f0f0f0"></polygon><polygon points="404.86 322.95 397.38 322.95 397.37 316.24 404.85 316.24 404.86 322.95" style="fill:#fafafa"></polygon><rect x="412.71" y="316.24" width="7.48" height="6.71" style="fill:#f0f0f0"></rect><rect x="428.04" y="316.24" width="7.48" height="6.71" style="fill:#f0f0f0"></rect><polygon points="450.85 322.95 443.37 322.95 443.39 316.24 450.86 316.24 450.85 322.95" style="fill:#fafafa"></polygon><polygon points="405.2 337.05 396.86 337.05 396.85 329.58 405.19 329.58 405.2 337.05" style="fill:#f0f0f0"></polygon><polygon points="420.49 337.05 412.16 337.05 412.15 329.58 420.5 329.58 420.49 337.05" style="fill:#fafafa"></polygon><polygon points="435.79 337.05 427.46 337.05 427.46 329.58 435.8 329.58 435.79 337.05" style="fill:#fafafa"></polygon><polygon points="451.09 337.05 442.76 337.05 442.77 329.58 451.11 329.58 451.09 337.05" style="fill:#f0f0f0"></polygon><polygon points="405.24 348.96 397.1 348.96 397.08 341.66 405.23 341.66 405.24 348.96" style="fill:#f0f0f0"></polygon><rect x="412.39" y="341.66" width="8.14" height="7.29" style="fill:#fafafa"></rect><rect x="427.69" y="341.66" width="8.14" height="7.29" style="fill:#f0f0f0"></rect><polygon points="451.12 348.96 442.98 348.96 442.99 341.66 451.14 341.66 451.12 348.96" style="fill:#fafafa"></polygon><polygon points="405.07 362.35 397.13 362.35 397.12 355.25 405.06 355.25 405.07 362.35" style="fill:#fafafa"></polygon><rect x="412.39" y="355.25" width="7.94" height="7.1" style="fill:#fafafa"></rect><rect x="427.66" y="355.25" width="7.94" height="7.1" style="fill:#f0f0f0"></rect><polygon points="450.86 362.35 442.92 362.35 442.94 355.25 450.88 355.25 450.86 362.35" style="fill:#f0f0f0"></polygon><polygon points="405.07 374.54 397.32 374.54 397.31 367.61 405.06 367.61 405.07 374.54" style="fill:#f0f0f0"></polygon><polygon points="450.83 374.54 443.08 374.54 443.1 367.61 450.86 367.61 450.83 374.54" style="fill:#fafafa"></polygon><polygon points="435.64 367.61 412.5 367.61 412.54 369.35 413.19 369.35 413.19 382.21 415.51 382.21 415.5 369.35 432.68 369.35 432.66 382.21 434.97 382.21 434.99 369.35 435.69 369.35 435.64 367.61" style="fill:#f5f5f5"></polygon><polygon points="424.19 382.21 415.61 382.21 415.61 369.35 424.2 369.35 424.19 382.21" style="fill:#e6e6e6"></polygon><polygon points="432.55 382.21 423.98 382.21 423.98 369.35 432.57 369.35 432.55 382.21" style="fill:#ebebeb"></polygon><polygon points="272.47 274.06 274.24 382.21 282.09 382.21 327.71 382.21 335.56 382.21 334.39 274.06 272.47 274.06" style="fill:#f5f5f5"></polygon><polygon points="276.34 277.18 276.55 290.34 276.61 293.96 276.67 297.57 284.7 297.57 284.64 293.96 284.59 290.34 284.38 277.18 276.34 277.18" style="fill:#e6e6e6"></polygon><polygon points="291.73 277.18 291.92 290.34 291.98 293.96 292.03 297.57 300.06 297.57 300.01 293.96 299.96 290.34 299.78 277.18 291.73 277.18" style="fill:#e6e6e6"></polygon><polygon points="307.12 277.18 307.3 290.34 307.34 293.96 307.39 297.57 315.42 297.57 315.38 293.96 315.33 290.34 315.17 277.18 307.12 277.18" style="fill:#e6e6e6"></polygon><polygon points="322.51 277.18 322.67 290.34 322.74 295.93 322.75 297.57 330.79 297.57 330.77 295.93 330.71 290.34 330.56 277.18 322.51 277.18" style="fill:#e6e6e6"></polygon><polygon points="276.82 303.54 277.04 316.69 277.09 320.3 277.15 323.91 285.2 323.91 285.14 320.3 285.09 316.69 284.88 303.54 276.82 303.54" style="fill:#e6e6e6"></polygon><polygon points="292.17 303.54 292.37 316.69 292.44 321.78 292.47 323.91 300.52 323.91 300.49 321.78 300.42 316.69 300.23 303.54 292.17 303.54" style="fill:#e6e6e6"></polygon><polygon points="307.52 303.54 307.69 316.69 307.74 320.3 307.79 323.91 315.84 323.91 315.79 320.3 315.75 316.69 315.58 303.54 307.52 303.54" style="fill:#e6e6e6"></polygon><polygon points="322.87 303.54 323.02 316.69 323.07 320.3 323.11 323.91 331.15 323.91 331.12 320.3 331.08 316.69 330.93 303.54 322.87 303.54" style="fill:#e6e6e6"></polygon><polygon points="277.28 329.58 277.49 342.67 277.55 346.27 277.61 349.86 285.64 349.86 285.58 346.27 285.53 342.67 285.33 329.58 277.28 329.58" style="fill:#e6e6e6"></polygon><polygon points="292.59 329.58 292.78 342.67 292.83 346.27 292.89 349.86 300.92 349.86 300.87 346.27 300.82 342.67 300.64 329.58 292.59 329.58" style="fill:#e6e6e6"></polygon><polygon points="307.9 329.58 308.07 342.67 308.12 346.27 308.17 349.86 316.2 349.86 316.15 346.27 316.11 342.67 315.95 329.58 307.9 329.58" style="fill:#e6e6e6"></polygon><polygon points="323.21 329.58 323.36 342.67 323.42 347.64 323.45 349.86 331.48 349.86 331.45 347.64 331.4 342.67 331.26 329.58 323.21 329.58" style="fill:#e6e6e6"></polygon><polygon points="327.67 355.25 323.7 355.25 316.26 355.25 308.31 355.25 300.87 355.25 292.92 355.25 277.53 355.25 277.65 362.35 293.03 362.35 300.97 362.35 308.4 362.35 316.34 362.35 323.78 362.35 327.75 362.35 331.72 362.35 331.64 355.25 327.67 355.25" style="fill:#e6e6e6"></polygon><polygon points="316.25 367.61 293.11 367.61 293.08 369.35 293.78 369.35 293.97 382.21 296.29 382.21 296.1 369.35 313.27 369.35 313.44 382.21 315.75 382.21 315.59 369.35 316.23 369.35 316.25 367.61" style="fill:#fafafa"></polygon><polygon points="304.96 382.21 296.39 382.21 296.2 369.35 304.79 369.35 304.96 382.21" style="fill:#e6e6e6"></polygon><polygon points="313.33 382.21 304.75 382.21 304.58 369.35 313.17 369.35 313.33 382.21" style="fill:#e6e6e6"></polygon><polygon points="392.79 280.29 393.49 382.21 386.09 382.21 343.1 382.21 335.71 382.21 334.44 280.29 392.79 280.29" style="fill:#e6e6e6"></polygon><polygon points="372.18 357.04 375.33 357.04 389.47 357.04 389.5 360.3 389.52 363.56 389.61 375.4 382.29 375.4 382.19 363.23 375.04 363.23 372.23 363.23 368.11 363.23 368.06 357.04 372.18 357.04" style="fill:#f0f0f0"></polygon><polygon points="344.28 357.04 347.1 357.04 360.52 357.04 360.59 363.23 346.7 363.23 346.83 375.4 339.52 375.4 339.38 363.56 339.32 358.84 339.3 357.04 344.28 357.04" style="fill:#f0f0f0"></polygon><polygon points="354.5 368.48 374.42 368.48 374.43 370.22 374.65 370.22 374.75 382.21 372.6 382.21 372.49 370.22 356.48 370.22 356.6 382.21 354.44 382.21 354.32 370.22 354.52 370.22 354.5 368.48" style="fill:#f5f5f5"></polygon><polygon points="364.51 382.21 372.51 382.21 372.41 370.22 364.4 370.22 364.51 382.21" style="fill:#ebebeb"></polygon><polygon points="356.69 382.21 364.68 382.21 364.57 370.22 356.56 370.22 356.69 382.21" style="fill:#e0e0e0"></polygon><polygon points="367.01 284.41 389.21 284.41 389.35 303.54 367.19 303.54 367.01 284.41" style="fill:#f0f0f0"></polygon><polygon points="338.23 284.41 360.43 284.41 360.61 303.54 338.46 303.54 338.23 284.41" style="fill:#f0f0f0"></polygon><polygon points="367.63 308.46 388.88 308.46 389.01 326.75 367.79 326.75 367.63 308.46" style="fill:#f0f0f0"></polygon><polygon points="338.89 308.46 360.14 308.46 360.33 326.75 339.11 326.75 338.89 308.46" style="fill:#f0f0f0"></polygon><polygon points="367.84 333.33 389.21 333.33 389.35 351.66 368.01 351.66 367.84 333.33" style="fill:#f0f0f0"></polygon><polygon points="339.2 333.33 360.57 333.33 360.75 351.66 339.41 351.66 339.2 333.33" style="fill:#f0f0f0"></polygon><polygon points="244.81 234.66 244.81 225.12 254.91 225.12 254.91 198.69 258.21 198.69 258.21 225.12 268.31 225.12 268.31 234.66 273.08 234.66 273.08 382.66 240.04 382.66 240.04 234.66 244.81 234.66" style="fill:#e6e6e6"></polygon><path d="M45,267V382.76H84.6v-107L77.44,267ZM74.58,350h6.75v6.75H74.58Zm0-13.5h6.75v6.75H74.58Zm0-27h6.75v6.75H74.58Zm0-13.5h6.75v6.75H74.58Zm0-13.5h6.75v6.75H74.58Zm-13.5,54h6.75v6.75H61.08Zm0-13.5h6.75v6.75H61.08Zm0-13.5h6.75v6.75H61.08ZM47.58,350h6.75v6.75H47.58Zm0-27h6.75v6.75H47.58Zm0-13.5h6.75v6.75H47.58Zm0-27h6.75v6.75H47.58Z" style="fill:#f0f0f0"></path><rect x="124.25" y="305.58" width="4.27" height="25.56" style="fill:#e6e6e6"></rect><polygon points="159.81 331.14 143.19 331.14 128.52 331.14 128.52 305.58 129.13 305.58 131.88 305.58 135.48 305.58 157.9 305.58 164.26 305.58 164.26 331.14 159.81 331.14" style="fill:#f0f0f0"></polygon><rect x="189.71" y="305.58" width="6.75" height="1.22" style="fill:#f0f0f0"></rect><rect x="174.99" y="305.58" width="6.56" height="1.22" style="fill:#f0f0f0"></rect><path d="M213.54,315.14h-1.69a.54.54,0,0,0,0,1.07h1.66v5h-1.66a.54.54,0,0,0,0,1.07h1.66v8.83h-6.33V305.58h9.67v2.17A11,11,0,0,0,213.54,315.14Z" style="fill:#f0f0f0"></path><rect x="84.51" y="331.44" width="11.51" height="52" style="fill:#e6e6e6"></rect><rect x="127.1" y="382.69" width="5.97" height="0.44" style="fill:#f0f0f0"></rect><rect x="183.85" y="382.69" width="5.98" height="0.44" style="fill:#f0f0f0"></rect><rect x="149.8" y="382.69" width="5.98" height="0.44" style="fill:#f0f0f0"></rect><rect x="172.5" y="382.69" width="5.98" height="0.44" style="fill:#f0f0f0"></rect><rect x="161.15" y="382.69" width="5.98" height="0.44" style="fill:#f0f0f0"></rect><rect x="138.45" y="382.69" width="5.97" height="0.44" style="fill:#f0f0f0"></rect><rect x="217.9" y="382.69" width="5.98" height="0.44" style="fill:#f0f0f0"></rect><rect x="206.55" y="382.69" width="5.98" height="0.44" style="fill:#f0f0f0"></rect><rect x="195.2" y="382.69" width="5.98" height="0.44" style="fill:#f0f0f0"></rect><rect x="229.24" y="382.69" width="5.98" height="0.44" style="fill:#f0f0f0"></rect><path d="M96,331.14v52h25.71v-.44H109.6v-39.2h-4.25a1.07,1.07,0,0,1,0-2.14h4.25v-6.53H237.79v-3.68h-2.08v.21h-22.2v-.21h-6.33v1.16H164.26v-1.16Z" style="fill:#ebebeb"></path><path d="M109.6,341.35v-6.52h6.31v6.52Z" style="fill:#e6e6e6"></path><path d="M115.91,382.69H109.6v-39.2h6.31Z" style="fill:#e6e6e6"></path><path d="M115.91,343.49v39.2h5.82v-8.41a2.69,2.69,0,0,1,5.37,0v8.41h6v-8.41a2.69,2.69,0,0,1,5.37,0v8.41h6v-8.41a2.69,2.69,0,0,1,5.38,0v8.41h6v-8.41a2.69,2.69,0,0,1,5.37,0v8.41h6v-8.41a2.69,2.69,0,0,1,5.37,0v8.41h6v-8.41a2.69,2.69,0,0,1,5.37,0v8.41h6v-8.41a2.69,2.69,0,0,1,5.38,0v8.41h6v-8.41a2.69,2.69,0,0,1,5.38,0v8.41h6v-8.41a2.69,2.69,0,0,1,5.38,0v8.41h6v-8.41a2.69,2.69,0,0,1,5.37,0v8.41h6v-8.41a2.69,2.69,0,0,1,5.37,0v8.41h5.81v-39.2Zm119.32,19.39a2.69,2.69,0,1,1,5.37,0v3.79h-5.37Zm-11.36,0a2.69,2.69,0,1,1,5.37,0v3.79h-5.37Zm-11.35,0a2.69,2.69,0,1,1,5.38,0v3.79h-5.38Zm-11.35,0a2.69,2.69,0,1,1,5.38,0v3.79h-5.38Zm-11.35,0a2.69,2.69,0,0,1,5.38,0v3.79h-5.38Zm-11.34,0a2.69,2.69,0,1,1,5.37,0v3.79h-5.37Zm-11.35,0a2.69,2.69,0,1,1,5.37,0v3.79h-5.37Zm-11.35,0a2.69,2.69,0,1,1,5.37,0v3.79h-5.37Zm-11.36,0a2.69,2.69,0,1,1,5.38,0v3.79h-5.38Zm-11.34,0a2.69,2.69,0,1,1,5.37,0v3.79h-5.37Zm-11.35,0a2.69,2.69,0,1,1,5.37,0v3.79h-5.37Z" style="fill:#f0f0f0"></path><path d="M231.71,341.35H115.91v-6.52h130.5v6.52Z" style="fill:#f0f0f0"></path><path d="M123.29,343.49H105.35a1.07,1.07,0,0,1,0-2.14H249.66a1.07,1.07,0,0,1,0,2.14H123.29Z" style="fill:#e0e0e0"></path><path d="M152.66,245.66v-3.8a.87.87,0,0,1,1.73,0v3.8a8.11,8.11,0,0,0-.86,0A8.3,8.3,0,0,0,152.66,245.66Z" style="fill:#f0f0f0"></path><path d="M146.13,254.05v9.71a17.91,17.91,0,0,1,14.8,0v-9.71Zm5.08,3.14a2.32,2.32,0,1,1,4.64,0v3.28h-4.64Z" style="fill:#f0f0f0"></path><path d="M152.66,245.66a8.3,8.3,0,0,1,.87,0,8.11,8.11,0,0,1,.86,0,7.39,7.39,0,0,1,6.5,6.66H146.16A7.4,7.4,0,0,1,152.66,245.66Z" style="fill:#f0f0f0"></path><path d="M135.61,279.23a17.93,17.93,0,0,1,31.72-10.59l-3.06,10.59Z" style="fill:#f0f0f0"></path><path d="M143.66,254.05a.87.87,0,0,1,0-1.73h19.73a.87.87,0,0,1,0,1.73H143.66Z" style="fill:#e0e0e0"></path><path d="M135.59,281v8.13h28.67v-1.26H163v-3.28a2.32,2.32,0,0,1,1.29-2.07V281Zm19.54,3.59a2.32,2.32,0,0,1,4.64,0v3.28h-4.64Zm-7.85,0a2.33,2.33,0,0,1,4.65,0v3.28h-4.65Zm-7.85,0a2.33,2.33,0,0,1,4.65,0v3.28h-4.65Z" style="fill:#f0f0f0"></path><path d="M135.59,290.83v14.6h3.84V295.09a2.33,2.33,0,1,1,4.65,0v10.34h3.2V295.09a2.33,2.33,0,1,1,4.65,0v10.34h3.2V295.09a2.32,2.32,0,1,1,4.64,0v10.34H163v-8.82h-.14a1.07,1.07,0,0,1,0-2.14h.23a2.32,2.32,0,0,1,1.2-1.45v-2.19Z" style="fill:#f0f0f0"></path><path d="M175,280.14v0Z" style="fill:#f0f0f0"></path><path d="M164.26,279.26V281H132.9a.87.87,0,0,1,0-1.73h31.37Z" style="fill:#e0e0e0"></path><path d="M175,290v0Z" style="fill:#f0f0f0"></path><path d="M164.26,290.83H132.9a.87.87,0,0,1,0-1.74h31.36Z" style="fill:#e0e0e0"></path><path d="M175,306.79V332.3h21.46V306.79H189.7v-3.08a4.07,4.07,0,1,0-8.14,0v3.08Zm8.5-2.29a2.15,2.15,0,1,1,4.29,0v7.07h-4.29Z" style="fill:#f0f0f0"></path><path d="M196.45,279.26v15.21h10.73V279.26l-5.36-18.6Zm3.09,7.64a2.28,2.28,0,0,1,4.56,0v7.51h-4.56Z" style="fill:#f0f0f0"></path><path d="M196.45,296.61V332.3h10.73V296.61Zm3.09,25.23a2.28,2.28,0,0,1,4.56,0v7.52h-4.56Zm0-15.07a2.28,2.28,0,0,1,4.56,0v7.51h-4.56Z" style="fill:#f0f0f0"></path><path d="M195,296.61a1.07,1.07,0,0,1,0-2.14h13.59a1.07,1.07,0,0,1,0,2.14H195Z" style="fill:#e0e0e0"></path><path d="M164.26,279.26v15.21H175V279.26l-5.36-18.6-2.3,8-3.06,10.59Zm3.09,7.64a2.28,2.28,0,0,1,4.56,0v7.51h-4.56Z" style="fill:#f0f0f0"></path><path d="M164.26,296.61V332.3H175V296.61Zm3.09,25.23a2.28,2.28,0,0,1,4.56,0v7.52h-4.56Zm0-15.07a2.28,2.28,0,0,1,4.56,0v7.51h-4.56Z" style="fill:#f0f0f0"></path><path d="M162.83,296.61h13.59a1.07,1.07,0,0,0,0-2.14H162.83A1.07,1.07,0,0,0,162.83,296.61Z" style="fill:#e0e0e0"></path><path d="M224.07,294.37v.22a.54.54,0,0,0,1.08,0v-.22a4.59,4.59,0,0,1,4,4.12h-9.12A4.59,4.59,0,0,1,224.07,294.37Z" style="fill:#f0f0f0"></path><path d="M220,299.57v6a11.09,11.09,0,0,1,9.16,0v-6Zm3.14,1.94a1.44,1.44,0,1,1,2.87,0v2h-2.87Z" style="fill:#f0f0f0"></path><path d="M213.54,315.14a11.08,11.08,0,0,1,22.14,0Z" style="fill:#f0f0f0"></path><path d="M218.51,299.56a.54.54,0,0,1,0-1.07h12.2a.54.54,0,0,1,0,1.07h-12.2Z" style="fill:#e0e0e0"></path><path d="M213.51,316.21v5h22.2v-5Zm16.94,2.22a1.44,1.44,0,0,1,2.88,0v2h-2.88Zm-4.85,0a1.44,1.44,0,1,1,2.87,0v2H225.6Zm-4.85,0a1.44,1.44,0,1,1,2.87,0v2h-2.87Zm-4.86,0a1.44,1.44,0,1,1,2.88,0v2h-2.88Z" style="fill:#f0f0f0"></path><path d="M213.51,331.35v-9h22.2v9Z" style="fill:#f0f0f0"></path><path d="M224.07,294.59V290.7a.54.54,0,0,1,1.08,0v3.89A.54.54,0,0,1,224.07,294.59Z" style="fill:#f0f0f0"></path><path d="M213.51,316.21h-1.66a.54.54,0,0,1,0-1.07h25.52a.54.54,0,0,1,0,1.07H213.51Z" style="fill:#e0e0e0"></path><path d="M213.51,322.31h-1.66a.54.54,0,0,1,0-1.07h25.52a.54.54,0,0,1,0,1.07H213.51Z" style="fill:#e0e0e0"></path><path d="M93.61,382.36l12.16-.15-.88-43.62-.17-10.11v-.61l-.16-9,0-.59-.14-8.55v-.56l-.14-8.17v-.52l-.13-7.78v-.51l-.13-7.42v-.49l-.12-7.11v-.46l-.11-6.17a4.21,4.21,0,0,1-1,.57l.07,4.49-4.19-3.82a10.68,10.68,0,0,1-1.58-.19l5.07,4.65-6.3,0,0-5a4.52,4.52,0,0,1-1-.46l0,5.89v.46l-.07,7.11v.47l-.07,7.45v.5l-.07,7.79V301l-.07,8.17v.56l-.09,8.57v.58l-.09,9v.61l-.1,10.12Zm1.92-53.57h7.27l-7.32,7.91Zm.12-8.49,7.19,7.55H95.59Zm-.09-10.73,6.92,0-7,7.14Zm.08-7.82,6.86,6.88-6.9,0Zm0-9.11,6.6,0-6.64,6.49Zm.06-7.22,6.54,6.26-6.59,0Zm6.38-8.17-6.35,5.9,0-5.93Zm.93,7.27-6.44,0,6.35-5.92Zm.1,7.21-6.53-6.23,6.44,0Zm.13,9-6.73,0,6.65-6.5Zm.1,7.79-6.85-6.84,6.75,0Zm.14,9.82H96.45l7-7.17Zm.07,8.47-7.2-7.53h7.1Zm.06,10.39H96.22l7.32-7.95Z" style="fill:#ebebeb"></path><path d="M94.92,271.13a4.51,4.51,0,0,0,1,.45v-.74l1.18,1.09a11,11,0,0,0,1.59.19l-2.91-2.66-.34.31h-.5Zm7.85-1.31,0,1.63a4,4,0,0,0,1-.57l0-1.06Z" style="fill:#ebebeb"></path><path d="M93.51,269a1.69,1.69,0,0,0,.51,1.45l.34.32a5,5,0,0,0,.56.39,4.51,4.51,0,0,0,1,.45,7,7,0,0,0,1.18.35,11,11,0,0,0,1.59.19h.71a8.66,8.66,0,0,0,3.4-.69,4,4,0,0,0,1-.57l.08-.06.32-.31a1.57,1.57,0,0,0,.46-1.4l-.72-4.06,1.91,0-6.66-3.39-6.94,3.16,2,0Z" style="fill:#ebebeb"></path><path d="M363.1,110.11c.17-1.84-1.44-3-3.79-3a7.2,7.2,0,0,0-6.05,3.32l-6.54-3.69c2.8-4.1,7.5-6.81,14.28-6.81,7.09,0,11.89,3,11.4,8.66-.63,7.18-8.28,8.24-8.65,12.48h-8.2C356.08,115.09,362.8,113.57,363.1,110.11Zm-9.29,18.34a5.33,5.33,0,0,1,5.62-4.75c3.08,0,5.07,2,4.83,4.75a5.48,5.48,0,0,1-5.67,4.83C355.5,133.28,353.57,131.12,353.81,128.45Z" style="fill:#e0e0e0"></path><path d="M155.69,86.51c.11-1.31-1-2.1-2.7-2.1a5.12,5.12,0,0,0-4.3,2.36L144,84.15c2-2.91,5.33-4.85,10.15-4.85,5,0,8.45,2.17,8.1,6.16-.44,5.11-5.88,5.86-6.14,8.88h-5.83C150.69,90.05,155.47,89,155.69,86.51Zm-6.61,13a3.78,3.78,0,0,1,4-3.37c2.2,0,3.61,1.44,3.44,3.37a3.91,3.91,0,0,1-4,3.44A3.14,3.14,0,0,1,149.08,99.54Z" style="fill:#e0e0e0"></path><g id="freepik--freepik--speech-bubbles--inject-120--inject-32"><path d="M231.09,92.58l41.18-.24a2.15,2.15,0,0,1,2.25,2.08,2,2,0,0,1,0,.35l-2,18.94a2.85,2.85,0,0,1-2.76,2.47l-23.54.19a18.64,18.64,0,0,1-10.86,6.34s3.95-3.62,4.88-6.31l-11.66,0a2.18,2.18,0,0,1-2.25-2.09,2.11,2.11,0,0,1,0-.35l2-18.94A2.87,2.87,0,0,1,231.09,92.58Z" style="fill:#e6e6e6"></path></g><path d="M243.17,104.92a2,2,0,1,1-2-2A2,2,0,0,1,243.17,104.92Z" style="fill:#fafafa"></path><path d="M252.44,104.92a2,2,0,1,1-2-2A2,2,0,0,1,252.44,104.92Z" style="fill:#fafafa"></path><path d="M261.7,104.92a2,2,0,1,1-2-2A2,2,0,0,1,261.7,104.92Z" style="fill:#fafafa"></path></g></svg>