<svg xmlns="http://www.w3.org/2000/svg" viewBox="0 0 750 500"><g id="freepik--background-complete--inject-33"><path d="M444.41,437.23a1024,1024,0,0,0-120-.89l-1.83.77c16.82,10.19,38,7.48,57.53,10.08,11.75,1.57,23.19,5.17,35,6.12s24.64-1.18,33.15-9.42a4.65,4.65,0,0,0,1.77-3.2C450,438.26,446.84,437.39,444.41,437.23Z" style="fill:#f5f5f5"></path><path d="M659.43,448.61c-3.75-2.18-8.25-2.53-12.58-2.83l-23.74-1.63c-6.48-.45-13.12-.88-19.35.92s-12.11,6.34-13.63,12.65l0,.21c11.25,2.3,22.55,4.62,34,5.22s23.21-.58,33.79-5c2.23-.94,4.71-2.46,4.81-4.88C662.78,451.25,661.15,449.6,659.43,448.61Z" style="fill:#f5f5f5"></path><path d="M202,435.88c-3.76-2.18-8.26-2.53-12.59-2.83l-23.74-1.63c-6.47-.45-13.11-.88-19.35.93s-12.1,6.33-13.63,12.64l0,.21c11.25,2.31,22.55,4.62,34,5.22s23.2-.58,33.78-5c2.23-.94,4.71-2.47,4.81-4.88C205.35,438.52,203.71,436.88,202,435.88Z" style="fill:#f5f5f5"></path><path d="M81.77,204.46l-8.51,2.61s2.19,7.15-5.2,9.55a7.19,7.19,0,0,1-8-2.35,8,8,0,0,1-1.51-7.07c.72-2.82,3.21-6,9.26-6.71l-5.89-19.18-8.41,2.58L57,195.13s-10.87,6.67-6.88,19.67c3.82,12.44,15.86,11.91,20.64,10.44C74.36,224.12,86.53,219.43,81.77,204.46Z" style="fill:#e0e0e0"></path><rect x="50.77" y="170.5" width="8.93" height="8.34" transform="translate(159.26 325.47) rotate(162.95)" style="fill:#e0e0e0"></rect><path d="M253,348.56l-4.8,1.47a4.25,4.25,0,0,1-2.93,5.38,4.06,4.06,0,0,1-4.52-1.32,4.51,4.51,0,0,1-.85-4c.41-1.6,1.82-3.36,5.22-3.78l-3.31-10.82L237,337l2,6.34a9.68,9.68,0,0,0-3.88,11.09c2.15,7,8.94,6.72,11.63,5.89C248.8,359.64,255.67,357,253,348.56Z" style="fill:#e0e0e0"></path><rect x="235.5" y="329.4" width="5.04" height="4.7" transform="translate(562.86 579.13) rotate(162.95)" style="fill:#e0e0e0"></rect><path d="M645.73,54.11l5-.26a4.27,4.27,0,0,1,4.16-4.5A4.07,4.07,0,0,1,659,51.74a4.49,4.49,0,0,1-.16,4.08c-.78,1.44-2.57,2.81-6,2.38l.57,11.31,5-.25L658,62.64a9.69,9.69,0,0,0,6.47-9.81c-.37-7.33-7-8.7-9.84-8.56C652.49,44.38,645.19,45.27,645.73,54.11Z" style="fill:#e0e0e0"></path><rect x="653.6" y="71.7" width="5.04" height="4.7" transform="translate(-2.89 33.08) rotate(-2.88)" style="fill:#e0e0e0"></rect><path d="M227.69,57.62l5-.25a4.27,4.27,0,0,1,4.15-4.51,4.07,4.07,0,0,1,4.06,2.39,4.52,4.52,0,0,1-.15,4.08c-.78,1.45-2.58,2.81-6,2.39l.57,11.3,5-.25L240,66.15a9.69,9.69,0,0,0,6.47-9.81c-.37-7.33-7-8.7-9.84-8.56C234.45,47.89,227.15,48.78,227.69,57.62Z" style="fill:#e0e0e0"></path><rect x="235.56" y="75.22" width="5.04" height="4.7" transform="translate(-3.6 12.07) rotate(-2.88)" style="fill:#e0e0e0"></rect><path d="M711.78,137.28,704.21,142s3.93,6.35-2.6,10.55a7.19,7.19,0,0,1-8.35-.25A8,8,0,0,1,690,145.8c0-2.91,1.6-6.57,7.26-8.83L686.72,119.9l-7.49,4.63,6.18,10s-8.82,9.2-1.67,20.77c6.84,11.07,18.36,7.51,22.61,4.88C709.6,158.17,720.18,150.54,711.78,137.28Z" style="fill:#ebebeb"></path><rect x="674.11" y="111" width="8.93" height="8.34" transform="translate(1316.35 -143.61) rotate(148.28)" style="fill:#ebebeb"></rect><path d="M250.23,204.94l5.44,4s3.36-4.57,8.17-1.16a5.46,5.46,0,0,1,2.19,5.94,6.05,6.05,0,0,1-3.62,4.12c-2,.84-5.08.74-8.27-2.6l-9,12.26,5.38,3.95,5.28-7.18s9,3.6,15.09-4.72c5.85-8,.07-15-3-17.28C265.55,200.55,257.19,195.27,250.23,204.94Z" style="fill:#fafafa"></path><rect x="240.72" y="231.41" width="6.77" height="6.33" transform="translate(186.38 -99.01) rotate(36.32)" style="fill:#fafafa"></rect><path d="M539.3,65.36l5.44,4s3.35-4.57,8.16-1.16a5.45,5.45,0,0,1,2.2,5.94,6.07,6.07,0,0,1-3.63,4.12c-2,.85-5.08.74-8.27-2.6l-9,12.26,5.37,4,5.28-7.19s9,3.6,15.09-4.71c5.85-8,.08-15-3-17.29C554.62,61,546.25,55.69,539.3,65.36Z" style="fill:#fafafa"></path><rect x="529.78" y="91.83" width="6.77" height="6.33" transform="translate(159.88 -297.37) rotate(36.32)" style="fill:#fafafa"></rect></g></svg>