<svg viewBox="114.39999999999998 69.49689440993791 540.8000000000001 529.0062111801243" xmlns="http://www.w3.org/2000/svg" xmlns:xlink="http://www.w3.org/1999/xlink" overflow="visible" width="540.8000000000001px" height="529.0062111801243px"><defs><polygon id="masterspot-illustrationui-design-path-1" points="0.000654721164 -2.97608239e-05 40.113 -2.97608239e-05 40.113 48.3245 0.000654721164 48.3245"/></defs><g id="Master/Spot Illustration/UI Design" stroke="none" stroke-width="1" fill="none" fill-rule="evenodd"><g id="User Interface" transform="translate(153.707073, 56.000000) scale(1 1)"><g id="User Interface/Online Shopping" stroke="none" stroke-width="1" fill="none" fill-rule="evenodd"><g id="Group-46" transform="translate(71.000000, 22.000000)"><path d="M365.542,315.2299 C365.173,316.2499 364.594,317.1719 363.818,317.9709 C363.042,318.7719 362.03,319.4379 360.81,319.9479 C359.578,320.4619 358.081,320.7749 356.358,320.8759 C356.094,320.8919 355.888,321.1099 355.888,321.3749 L355.888,325.8059 L353.693,325.8059 L353.693,321.3749 C353.693,321.1119 353.49,320.8939 353.228,320.8759 C349.917,320.6489 347.401,319.7399 345.747,318.1719 C344.218,316.7249 343.335,314.8269 343.12,312.5279 L349.994,312.5279 C350.121,313.2649 350.382,313.9159 350.774,314.4659 C351.266,315.1589 352.042,315.6309 353.083,315.8679 C353.23,315.9029 353.387,315.8659 353.505,315.7709 C353.624,315.6759 353.693,315.5319 353.693,315.3799 L353.693,310.2519 C353.693,310.0009 353.507,309.7889 353.258,309.7569 C351.487,309.5249 349.971,309.1829 348.75,308.7379 C347.552,308.3009 346.556,307.7419 345.791,307.0749 C345.044,306.4249 344.494,305.6249 344.157,304.6979 C343.811,303.7459 343.635,302.5889 343.635,301.2589 C343.635,300.0999 343.852,299.0269 344.281,298.0719 C344.71,297.1149 345.339,296.2629 346.151,295.5379 C346.969,294.8059 347.979,294.2079 349.151,293.7589 C350.335,293.3059 351.707,293.0239 353.227,292.9229 C353.489,292.9049 353.693,292.6869 353.693,292.4239 L353.693,289.4139 L355.888,289.4139 L355.888,292.4639 C355.888,292.7249 356.088,292.9409 356.348,292.9619 C359.177,293.1889 361.427,293.9679 363.034,295.2769 C364.502,296.4719 365.384,298.2749 365.659,300.6419 L358.946,300.6419 C358.834,300.0709 358.637,299.5759 358.36,299.1659 C357.992,298.6209 357.375,298.2209 356.525,297.9779 C356.375,297.9359 356.212,297.9659 356.086,298.0599 C355.961,298.1539 355.888,298.3019 355.888,298.4589 L355.888,303.3109 C355.888,303.5599 356.072,303.7719 356.319,303.8059 C357.814,304.0129 359.195,304.3059 360.424,304.6759 C361.625,305.0389 362.662,305.5379 363.507,306.1589 C364.33,306.7639 364.975,307.5389 365.424,308.4589 C365.875,309.3859 366.104,310.5459 366.104,311.9089 C366.104,313.0819 365.915,314.1989 365.542,315.2299 L365.542,315.2299 Z M364.099,305.3529 C363.162,304.6649 362.023,304.1149 360.713,303.7189 C359.554,303.3689 358.269,303.0869 356.888,302.8779 L356.888,299.1869 C357.174,299.3349 357.39,299.5149 357.532,299.7249 C357.788,300.1039 357.952,300.5999 358.021,301.1989 C358.05,301.4509 358.264,301.6419 358.518,301.6419 L366.209,301.6419 C366.349,301.6419 366.481,301.5839 366.576,301.4809 C366.671,301.3789 366.719,301.2429 366.708,301.1039 C366.487,298.1869 365.463,295.9659 363.666,294.5009 C361.988,293.1359 359.709,292.2979 356.888,292.0069 L356.888,288.9139 C356.888,288.6379 356.664,288.4139 356.388,288.4139 L353.193,288.4139 C352.917,288.4139 352.693,288.6379 352.693,288.9139 L352.693,291.9619 C351.257,292.0939 349.947,292.3829 348.794,292.8249 C347.507,293.3169 346.394,293.9799 345.484,294.7929 C344.567,295.6109 343.856,296.5769 343.369,297.6629 C342.882,298.7479 342.635,299.9579 342.635,301.2589 C342.635,302.7059 342.831,303.9779 343.217,305.0399 C343.613,306.1279 344.258,307.0659 345.134,307.8289 C345.992,308.5769 347.093,309.1989 348.407,309.6769 C349.594,310.1099 351.034,310.4499 352.693,310.6879 L352.693,314.7059 C352.209,314.5129 351.838,314.2379 351.589,313.8869 C351.222,313.3709 351,312.7299 350.93,311.9809 C350.906,311.7239 350.69,311.5279 350.432,311.5279 L342.583,311.5279 C342.446,311.5279 342.315,311.5839 342.221,311.6829 C342.126,311.7819 342.077,311.9159 342.084,312.0519 C342.221,314.8549 343.222,317.1589 345.06,318.8979 C346.806,320.5529 349.372,321.5409 352.693,321.8369 L352.693,326.3059 C352.693,326.5819 352.917,326.8059 353.193,326.8059 L356.388,326.8059 C356.664,326.8059 356.888,326.5819 356.888,326.3059 L356.888,321.8409 C358.528,321.7069 359.975,321.3799 361.196,320.8709 C362.542,320.3079 363.666,319.5659 364.537,318.6669 C365.411,317.7659 366.065,316.7239 366.482,315.5699 C366.895,314.4299 367.104,313.1979 367.104,311.9089 C367.104,310.3929 366.841,309.0849 366.323,308.0219 C365.803,306.9529 365.054,306.0549 364.099,305.3529 L364.099,305.3529 Z M382.433,285.9689 C382.361,286.0499 382.268,286.1239 382.154,286.1879 L382.154,284.5779 C382.351,284.6599 382.45,284.7329 382.499,284.7799 C382.575,284.8539 382.677,284.9869 382.677,285.2959 C382.677,285.5619 382.597,285.7819 382.433,285.9689 L382.433,285.9689 Z M381.769,283.4139 C381.621,283.3799 381.463,283.4129 381.344,283.5079 C381.224,283.6029 381.154,283.7479 381.154,283.8999 L381.154,286.8959 C381.154,287.0469 381.223,287.1909 381.341,287.2859 C381.431,287.3569 381.542,287.3959 381.654,287.3959 C381.69,287.3959 381.728,287.3919 381.764,287.3829 C382.39,287.2419 382.868,286.9879 383.185,286.6279 C383.511,286.2559 383.677,285.8079 383.677,285.2959 C383.677,284.7859 383.514,284.3709 383.192,284.0599 C382.904,283.7829 382.438,283.5719 381.769,283.4139 L381.769,283.4139 Z M379.098,278.1279 C378.879,278.0389 378.768,277.9579 378.713,277.9049 C378.586,277.7829 378.524,277.5939 378.524,277.3269 C378.524,277.1499 378.524,276.7859 379.098,276.5389 L379.098,278.1279 Z M379.511,275.3889 C377.869,275.6799 377.524,276.6039 377.524,277.3269 C377.524,277.8739 377.691,278.3109 378.02,278.6259 C378.319,278.9139 378.798,279.1299 379.487,279.2859 C379.524,279.2949 379.561,279.2989 379.598,279.2989 C379.71,279.2989 379.821,279.2609 379.91,279.1889 C380.029,279.0949 380.098,278.9509 380.098,278.7989 L380.098,275.8809 C380.098,275.7329 380.033,275.5929 379.919,275.4979 C379.807,275.4029 379.661,275.3629 379.511,275.3889 L379.511,275.3889 Z M357.807,314.2019 C357.596,314.4419 357.288,314.6389 356.888,314.7909 L356.888,311.4609 C357.462,311.6469 357.75,311.8339 357.895,311.9729 C358.137,312.2069 358.255,312.5339 358.255,312.9739 C358.255,313.4569 358.108,313.8579 357.807,314.2019 L357.807,314.2019 Z M356.502,310.3179 C356.352,310.2819 356.197,310.3179 356.077,310.4129 C355.958,310.5069 355.888,310.6519 355.888,310.8049 L355.888,315.4589 C355.888,315.6109 355.957,315.7549 356.076,315.8499 C356.165,315.9209 356.275,315.9589 356.388,315.9589 C356.424,315.9589 356.461,315.9549 356.498,315.9469 C357.415,315.7399 358.108,315.3749 358.559,314.8609 C359.021,314.3349 359.255,313.6999 359.255,312.9739 C359.255,312.2589 359.031,311.6799 358.588,311.2519 C358.176,310.8569 357.494,310.5509 356.502,310.3179 L356.502,310.3179 Z M352.693,302.2259 C352.085,302.0339 351.78,301.8349 351.626,301.6879 C351.372,301.4429 351.248,301.0839 351.248,300.5889 C351.248,300.0619 351.411,299.3529 352.693,298.9699 L352.693,302.2259 Z M353.106,297.8489 C350.744,298.2679 350.248,299.5699 350.248,300.5889 C350.248,301.3589 350.478,301.9709 350.933,302.4089 C351.359,302.8189 352.062,303.1309 353.082,303.3639 C353.119,303.3729 353.156,303.3759 353.193,303.3759 C353.306,303.3759 353.416,303.3389 353.505,303.2679 C353.624,303.1719 353.693,303.0289 353.693,302.8759 L353.693,298.3409 C353.693,298.1929 353.628,298.0529 353.515,297.9579 C353.401,297.8619 353.251,297.8209 353.106,297.8489 L353.106,297.8489 Z M387.376,286.6879 C387.148,287.3189 386.788,287.8909 386.307,288.3879 C385.824,288.8859 385.193,289.2999 384.43,289.6189 C383.656,289.9429 382.712,290.1389 381.625,290.2029 C381.36,290.2179 381.154,290.4379 381.154,290.7019 L381.154,293.3749 L380.098,293.3749 L380.098,290.7019 C380.098,290.4389 379.895,290.2209 379.632,290.2029 C377.545,290.0609 375.963,289.4909 374.929,288.5119 C374.007,287.6389 373.476,286.5469 373.314,285.1879 L377.393,285.1879 C377.486,285.6279 377.655,286.0219 377.896,286.3599 C378.239,286.8419 378.774,287.1689 379.487,287.3319 C379.637,287.3689 379.791,287.3309 379.91,287.2359 C380.029,287.1409 380.098,286.9969 380.098,286.8449 L380.098,283.5449 C380.098,283.2939 379.912,283.0819 379.663,283.0499 C378.537,282.9029 377.573,282.6849 376.8,282.4029 C376.049,282.1289 375.427,281.7799 374.952,281.3659 C374.495,280.9679 374.158,280.4779 373.951,279.9099 C373.735,279.3179 373.626,278.5939 373.626,277.7589 C373.626,277.0379 373.761,276.3729 374.026,275.7809 C374.292,275.1879 374.682,274.6599 375.186,274.2099 C375.695,273.7539 376.327,273.3799 377.061,273.0989 C377.806,272.8139 378.67,272.6369 379.632,272.5719 C379.894,272.5539 380.098,272.3359 380.098,272.0729 L380.098,270.3149 L381.154,270.3149 L381.154,272.0989 C381.154,272.3599 381.354,272.5769 381.614,272.5979 C383.396,272.7399 384.811,273.2279 385.818,274.0469 C386.697,274.7629 387.223,275.7919 387.417,277.1829 L383.443,277.1829 C383.363,276.8519 383.238,276.5599 383.07,276.3109 C382.809,275.9249 382.379,275.6449 381.792,275.4759 C381.643,275.4319 381.478,275.4629 381.353,275.5569 C381.228,275.6519 381.154,275.7989 381.154,275.9569 L381.154,279.0789 C381.154,279.3279 381.338,279.5399 381.585,279.5739 C382.539,279.7059 383.419,279.8929 384.2,280.1279 C384.952,280.3549 385.601,280.6669 386.129,281.0549 C386.635,281.4269 387.032,281.9029 387.308,282.4699 C387.586,283.0419 387.727,283.7619 387.727,284.6109 C387.727,285.3439 387.609,286.0429 387.376,286.6879 L387.376,286.6879 Z M388.207,282.0319 C387.859,281.3179 387.359,280.7179 386.721,280.2489 C386.102,279.7929 385.35,279.4309 384.489,279.1709 C383.778,278.9569 382.995,278.7809 382.154,278.6469 L382.154,276.7659 C382.188,276.7989 382.217,276.8339 382.242,276.8709 C382.39,277.0909 382.487,277.3839 382.528,277.7399 C382.557,277.9919 382.771,278.1829 383.024,278.1829 L387.974,278.1829 C388.113,278.1829 388.246,278.1249 388.34,278.0219 C388.435,277.9199 388.483,277.7839 388.472,277.6449 C388.326,275.7169 387.645,274.2449 386.449,273.2719 C385.374,272.3969 383.93,271.8509 382.154,271.6459 L382.154,269.8149 C382.154,269.5389 381.93,269.3149 381.654,269.3149 L379.598,269.3149 C379.322,269.3149 379.098,269.5389 379.098,269.8149 L379.098,271.6149 C378.221,271.7079 377.417,271.8919 376.704,272.1649 C375.855,272.4899 375.12,272.9269 374.519,273.4639 C373.911,274.0079 373.438,274.6489 373.114,275.3709 C372.79,276.0919 372.626,276.8959 372.626,277.7589 C372.626,278.7109 372.756,279.5499 373.012,280.2519 C373.276,280.9809 373.709,281.6089 374.295,282.1199 C374.863,282.6149 375.591,283.0269 376.457,283.3419 C377.196,283.6119 378.083,283.8259 379.098,283.9799 L379.098,286.1279 C378.937,286.0329 378.809,285.9179 378.711,285.7799 C378.493,285.4749 378.361,285.0909 378.32,284.6409 C378.296,284.3839 378.08,284.1879 377.822,284.1879 L372.771,284.1879 C372.634,284.1879 372.503,284.2439 372.409,284.3429 C372.314,284.4419 372.265,284.5749 372.271,284.7119 C372.362,286.5629 373.025,288.0859 374.242,289.2379 C375.366,290.3039 376.999,290.9499 379.098,291.1619 L379.098,293.8749 C379.098,294.1509 379.322,294.3749 379.598,294.3749 L381.654,294.3749 C381.93,294.3749 382.154,294.1509 382.154,293.8749 L382.154,291.1649 C383.161,291.0689 384.054,290.8599 384.816,290.5419 C385.705,290.1699 386.448,289.6799 387.025,289.0839 C387.605,288.4849 388.04,287.7929 388.317,287.0269 C388.589,286.2729 388.727,285.4599 388.727,284.6109 C388.727,283.6089 388.552,282.7419 388.207,282.0319 L388.207,282.0319 Z" id="Fill-1" fill="#B5B6B7"/><polygon id="Fill-3" fill="#E1E1E1" points="0.618 305.514 154.951 305.514 154.951 168.786 0.618 168.786"/><polygon id="Fill-5" fill="#F1EFEF" points="0.618 305.514 154.951 305.514 154.951 250.411 0.618 250.411"/><path d="M25.5391,226.9218 C16.6801,226.9218 9.4731,219.7148 9.4731,210.8558 C9.4731,201.9978 16.6801,194.7908 25.5391,194.7908 C34.3981,194.7908 41.6051,201.9978 41.6051,210.8558 C41.6051,219.7148 34.3981,226.9218 25.5391,226.9218 L25.5391,226.9218 Z M42.3981,210.8558 C42.3981,201.5598 34.8351,193.9978 25.5391,193.9978 C16.2431,193.9978 8.6801,201.5598 8.6801,210.8558 C8.6801,220.1518 16.2431,227.7148 25.5391,227.7148 C34.8351,227.7148 42.3981,220.1518 42.3981,210.8558 L42.3981,210.8558 Z M143.5181,232.4088 L53.8911,232.4088 C53.6711,232.4088 53.4941,232.5868 53.4941,232.8058 C53.4941,233.0248 53.6711,233.2018 53.8911,233.2018 L143.5181,233.2018 C143.7381,233.2018 143.9151,233.0248 143.9151,232.8058 C143.9151,232.5868 143.7381,232.4088 143.5181,232.4088 L143.5181,232.4088 Z M143.5181,213.2038 L53.8911,213.2038 C53.6711,213.2038 53.4941,213.3808 53.4941,213.5998 C53.4941,213.8188 53.6711,213.9968 53.8911,213.9968 L143.5181,213.9968 C143.7381,213.9968 143.9151,213.8188 143.9151,213.5998 C143.9151,213.3808 143.7381,213.2038 143.5181,213.2038 L143.5181,213.2038 Z M143.5181,193.9978 L53.8911,193.9978 C53.6711,193.9978 53.4941,194.1748 53.4941,194.3938 C53.4941,194.6128 53.6711,194.7908 53.8911,194.7908 L143.5181,194.7908 C143.7381,194.7908 143.9151,194.6128 143.9151,194.3938 C143.9151,194.1748 143.7381,193.9978 143.5181,193.9978 L143.5181,193.9978 Z M32.9091,289.3408 L122.6591,289.3408 L122.6591,270.0128 L32.9091,270.0128 L32.9091,289.3408 Z M123.0551,269.2208 L32.5131,269.2208 C32.2931,269.2208 32.1161,269.3978 32.1161,269.6168 L32.1161,289.7378 C32.1161,289.9568 32.2931,290.1338 32.5131,290.1338 L123.0551,290.1338 C123.2741,290.1338 123.4521,289.9568 123.4521,289.7378 L123.4521,269.6168 C123.4521,269.3978 123.2741,269.2208 123.0551,269.2208 L123.0551,269.2208 Z M154.9511,250.0148 L31.0261,250.0148 C30.8071,250.0148 30.6301,250.1918 30.6301,250.4108 C30.6301,250.6298 30.8071,250.8078 31.0261,250.8078 L154.9511,250.8078 C155.1701,250.8078 155.3471,250.6298 155.3471,250.4108 C155.3471,250.1918 155.1701,250.0148 154.9511,250.0148 L154.9511,250.0148 Z M155.3471,168.7858 C155.3471,168.5668 155.1701,168.3898 154.9511,168.3898 L0.6171,168.3898 C0.3981,168.3898 0.2211,168.5668 0.2211,168.7858 L0.2211,285.8508 C0.2211,286.0698 0.3981,286.2478 0.6171,286.2478 C0.8361,286.2478 1.0141,286.0698 1.0141,285.8508 L1.0141,169.1828 L154.9511,169.1828 C155.1701,169.1828 155.3471,169.0048 155.3471,168.7858 L155.3471,168.7858 Z" id="Fill-6" fill="#B5B6B7"/><polygon id="Fill-7" fill="#E1E1E1" points="271.413 114.722 427.248 114.722 427.248 103.802 271.413 103.802"/><polygon id="Fill-8" fill="#F1EFEF" points="271.413 238.477 427.248 238.477 427.248 114.722 271.413 114.722"/><path d="M427.248,103.4052 C427.029,103.4052 426.852,103.5822 426.852,103.8012 L426.852,114.3252 L271.413,114.3252 C271.193,114.3252 271.016,114.5022 271.016,114.7212 C271.016,114.9412 271.193,115.1182 271.413,115.1182 L427.248,115.1182 C427.467,115.1182 427.644,114.9412 427.644,114.7212 L427.644,103.8012 C427.644,103.5822 427.467,103.4052 427.248,103.4052 L427.248,103.4052 Z M416.328,159.5632 L368.649,159.5632 C368.43,159.5632 368.253,159.7402 368.253,159.9602 C368.253,160.1792 368.43,160.3562 368.649,160.3562 L416.328,160.3562 C416.547,160.3562 416.725,160.1792 416.725,159.9602 C416.725,159.7402 416.547,159.5632 416.328,159.5632 L416.328,159.5632 Z M416.328,149.5102 L368.649,149.5102 C368.43,149.5102 368.253,149.6872 368.253,149.9062 C368.253,150.1262 368.43,150.3032 368.649,150.3032 L416.328,150.3032 C416.547,150.3032 416.725,150.1262 416.725,149.9062 C416.725,149.6872 416.547,149.5102 416.328,149.5102 L416.328,149.5102 Z M416.328,139.4572 L368.649,139.4572 C368.43,139.4572 368.253,139.6342 368.253,139.8542 C368.253,140.0732 368.43,140.2502 368.649,140.2502 L416.328,140.2502 C416.547,140.2502 416.725,140.0732 416.725,139.8542 C416.725,139.6342 416.547,139.4572 416.328,139.4572 L416.328,139.4572 Z M416.328,129.4042 L368.649,129.4042 C368.43,129.4042 368.253,129.5812 368.253,129.8012 C368.253,130.0202 368.43,130.1972 368.649,130.1972 L416.328,130.1972 C416.547,130.1972 416.725,130.0202 416.725,129.8012 C416.725,129.5812 416.547,129.4042 416.328,129.4042 L416.328,129.4042 Z M283.075,224.7342 L357.853,224.7342 L357.853,130.1972 L283.075,130.1972 L283.075,224.7342 Z M358.249,129.4042 L282.679,129.4042 C282.459,129.4042 282.282,129.5812 282.282,129.8012 L282.282,225.1312 C282.282,225.3502 282.459,225.5272 282.679,225.5272 L358.249,225.5272 C358.469,225.5272 358.646,225.3502 358.646,225.1312 L358.646,129.8012 C358.646,129.5812 358.469,129.4042 358.249,129.4042 L358.249,129.4042 Z" id="Fill-9" fill="#B5B6B7"/><polygon id="Fill-10" fill="#FFF" points="108.244 464.58 316.029 464.58 316.029 11.319 108.244 11.319"/><path d="M108.744,464.08 L315.529,464.08 L315.529,11.819 L108.744,11.819 L108.744,464.08 Z M107.744,465.08 L316.529,465.08 L316.529,10.819 L107.744,10.819 L107.744,465.08 Z" id="Fill-11" fill="#000"/><path d="M301.5068,459.4057 L122.7668,459.4057 C117.3528,459.4057 112.9638,455.0167 112.9638,449.6027 L112.9638,28.0887 C112.9638,22.6737 117.3528,18.2847 122.7668,18.2847 L160.7338,18.2847 C167.6918,18.2847 173.3318,23.9247 173.3318,30.8827 C173.3318,37.8397 178.9718,43.4797 185.9288,43.4797 L238.3438,43.4797 C245.3018,43.4797 250.9418,37.8397 250.9418,30.8827 C250.9418,23.9247 256.5818,18.2847 263.5398,18.2847 L301.5068,18.2847 C306.9208,18.2847 311.3098,22.6737 311.3098,28.0887 L311.3098,449.6027 C311.3098,455.0167 306.9208,459.4057 301.5068,459.4057 M97.1408,26.9227 L97.1408,450.7677 C97.1408,465.3607 108.9708,477.1897 123.5638,477.1897 L300.7098,477.1897 C315.3028,477.1897 327.1318,465.3607 327.1318,450.7677 L327.1318,26.9227 C327.1318,12.3297 315.3028,0.4997 300.7098,0.4997 L123.5638,0.4997 C108.9708,0.4997 97.1408,12.3297 97.1408,26.9227" id="Fill-12" fill="#000"/><path d="M301.5068,459.4057 L122.7668,459.4057 C117.3528,459.4057 112.9638,455.0167 112.9638,449.6027 L112.9638,28.0887 C112.9638,22.6737 117.3528,18.2847 122.7668,18.2847 L160.7338,18.2847 C167.6918,18.2847 173.3318,23.9247 173.3318,30.8827 C173.3318,37.8397 178.9718,43.4797 185.9288,43.4797 L238.3438,43.4797 C245.3018,43.4797 250.9418,37.8397 250.9418,30.8827 C250.9418,23.9247 256.5818,18.2847 263.5398,18.2847 L301.5068,18.2847 C306.9208,18.2847 311.3098,22.6737 311.3098,28.0887 L311.3098,449.6027 C311.3098,455.0167 306.9208,459.4057 301.5068,459.4057 Z M97.1408,26.9227 L97.1408,450.7677 C97.1408,465.3607 108.9708,477.1897 123.5638,477.1897 L300.7098,477.1897 C315.3028,477.1897 327.1318,465.3607 327.1318,450.7677 L327.1318,26.9227 C327.1318,12.3297 315.3028,0.4997 300.7098,0.4997 L123.5638,0.4997 C108.9708,0.4997 97.1408,12.3297 97.1408,26.9227 Z" id="Stroke-13" stroke="#FFF" stroke-width=".893"/><path d="M194.5435,441.7851 C194.5435,443.9231 192.8105,445.6561 190.6735,445.6561 C188.5355,445.6561 186.8025,443.9231 186.8025,441.7851 C186.8025,439.6471 188.5355,437.9151 190.6735,437.9151 C192.8105,437.9151 194.5435,439.6471 194.5435,441.7851" id="Fill-14" fill="#000"/><path d="M194.5435,441.7851 C194.5435,443.9231 192.8105,445.6561 190.6735,445.6561 C188.5355,445.6561 186.8025,443.9231 186.8025,441.7851 C186.8025,439.6471 188.5355,437.9151 190.6735,437.9151 C192.8105,437.9151 194.5435,439.6471 194.5435,441.7851 Z" id="Stroke-15" stroke="#FFF" stroke-width=".893"/><path d="M216.0073,441.7851 C216.0073,443.9231 214.2743,445.6561 212.1363,445.6561 C209.9993,445.6561 208.2663,443.9231 208.2663,441.7851 C208.2663,439.6471 209.9993,437.9151 212.1363,437.9151 C214.2743,437.9151 216.0073,439.6471 216.0073,441.7851" id="Fill-16" fill="#000"/><path d="M216.0073,441.7851 C216.0073,443.9231 214.2743,445.6561 212.1363,445.6561 C209.9993,445.6561 208.2663,443.9231 208.2663,441.7851 C208.2663,439.6471 209.9993,437.9151 212.1363,437.9151 C214.2743,437.9151 216.0073,439.6471 216.0073,441.7851 Z" id="Stroke-17" stroke="#FFF" stroke-width=".893"/><path d="M237.4707,441.7851 C237.4707,443.9231 235.7377,445.6561 233.5997,445.6561 C231.4627,445.6561 229.7297,443.9231 229.7297,441.7851 C229.7297,439.6471 231.4627,437.9151 233.5997,437.9151 C235.7377,437.9151 237.4707,439.6471 237.4707,441.7851" id="Fill-18" fill="#000"/><path d="M237.4707,441.7851 C237.4707,443.9231 235.7377,445.6561 233.5997,445.6561 C231.4627,445.6561 229.7297,443.9231 229.7297,441.7851 C229.7297,439.6471 231.4627,437.9151 233.5997,437.9151 C235.7377,437.9151 237.4707,439.6471 237.4707,441.7851 Z" id="Stroke-19" stroke="#FFF" stroke-width=".893"/><path d="M159.355,42.4965 L122.191,42.4965 L112.46,76.3675 L112.462,76.3675 C112.462,87.7985 121.73,97.0665 133.161,97.0665 C144.592,97.0665 153.859,87.7985 153.859,76.3675 L153.858,76.3675 L159.355,42.4965 Z" id="Fill-34" fill="#F1EFEF"/><path d="M195.2559,42.4965 L195.2559,76.3675 L195.3279,76.3675 C195.3279,87.7985 204.5959,97.0665 216.0269,97.0665 C227.4589,97.0665 236.7259,87.7985 236.7259,76.3675 L236.8009,76.3675 L236.8009,42.4965 L195.2559,42.4965 Z" id="Fill-35" fill="#F1EFEF"/><path d="M309.8652,42.4965 L272.7012,42.4965 L278.1982,76.3675 C278.1982,87.7985 287.4662,97.0665 298.8972,97.0665 C310.3292,97.0665 319.5962,87.7985 319.5962,76.3675 L309.8652,42.4965 Z" id="Fill-36" fill="#F1EFEF"/><path d="M347.4668,42.4965 L347.1958,42.4965 L347.1958,26.9165 C347.1958,12.3275 335.3678,0.4995 320.7788,0.4995 L111.2788,0.4995 C96.6888,0.4995 84.8618,12.3275 84.8618,26.9165 L84.8618,42.4965 L84.5478,42.4965 L71.0198,76.3675 C71.0198,87.7985 80.2888,97.0665 91.7208,97.0665 C103.1528,97.0665 112.4198,87.7985 112.4198,76.3675 L121.9198,43.4375 L159.2018,43.4375 L153.8578,76.3675 C153.8598,87.7995 163.1268,97.0665 174.5588,97.0665 C185.9898,97.0665 195.2578,87.7995 195.2578,76.3675 L195.3278,76.3675 L195.2578,43.4375 L236.7998,43.4375 L236.7258,76.3675 L236.8008,76.3675 C236.8008,87.7985 246.0688,97.0665 257.4998,97.0665 C268.9308,97.0665 278.1988,87.7985 278.1988,76.3675 L272.8548,43.4375 L310.1358,43.4375 L319.5968,76.3675 C319.5968,87.7985 328.8638,97.0665 340.2958,97.0665 C351.7268,97.0665 360.9938,87.7985 360.9938,76.3675 L347.4668,42.4965 Z" id="Fill-37" fill="#EC7068"/><path d="M285.0811,375.4316 L146.1231,375.4316 C141.4631,375.4316 137.6851,371.6536 137.6851,366.9926 L137.6851,162.5046 C137.6851,157.8446 141.4631,154.0656 146.1231,154.0656 L285.0811,154.0656 C289.7421,154.0656 293.5201,157.8446 293.5201,162.5046 L293.5201,366.9926 C293.5201,371.6536 289.7421,375.4316 285.0811,375.4316" id="Fill-38" fill="#F1EFEF"/><path d="M245.3237,245.185 L230.7797,245.185 L230.7797,254.01 L243.2627,254.01 C243.9487,251.072 244.6257,248.174 245.3237,245.185 L245.3237,245.185 Z M210.9307,253.991 L224.7057,253.991 L224.7057,245.157 L210.9307,245.157 L210.9307,253.991 Z M210.9087,239.134 L224.7237,239.134 L224.7237,230.312 L210.9087,230.312 L210.9087,239.134 Z M204.8677,245.191 L190.0197,245.191 C190.6477,248.182 191.2587,251.085 191.8727,254.006 L204.8677,254.006 L204.8677,245.191 Z M248.7877,230.307 L230.7787,230.307 L230.7787,239.179 L231.7237,239.179 C235.9577,239.179 240.1927,239.183 244.4277,239.176 C245.1737,239.174 246.1357,239.399 246.6057,239.026 C247.0757,238.654 247.0727,237.665 247.2447,236.94 C247.7627,234.752 248.2647,232.56 248.7877,230.307 L248.7877,230.307 Z M186.8347,230.289 C187.4397,233.089 188.0427,235.771 188.5827,238.466 C188.7047,239.074 188.9587,239.194 189.5257,239.191054 C194.3967,239.17 199.2687,239.18 204.1407,239.177 C204.3837,239.177 204.6257,239.15 204.8637,239.137 L204.8637,230.289 L186.8347,230.289 Z M178.5947,220.293 L177.6667,220.293 C174.2117,220.293 170.7577,220.301 167.3027,220.289 C165.5197,220.283 164.2207,219.045 164.196336,217.368 C164.1717,215.701 165.4357,214.384 167.2217,214.37 C171.7907,214.335 176.3597,214.336 180.9287,214.367 C182.7107,214.379 183.6977,215.293 184.0847,217.104 C184.5907,219.47 185.0947,221.836 185.6157,224.273 L186.7277,224.273 C208.4577,224.273 230.1877,224.274 251.9187,224.267 C252.9307,224.267 253.8557,224.424 254.5917,225.193 C255.3587,225.997 255.6847,226.932 255.4317,228.025 C253.1597,237.808 250.8857,247.591 248.5997,257.372 C248.1717,259.204 247.0397,260.049 245.1007,260.049 C228.1617,260.051 211.2237,260.05 194.2857,260.05 L193.1417,260.05 C193.5517,261.927 193.9287,263.718 194.3517,265.497 C194.3957,265.682 194.6897,265.854 194.9047,265.936 C195.0997,266.01 195.3447,265.953 195.5677,265.953 C210.7227,265.953 225.8777,265.956 241.0337,265.947 C242.5577,265.946 243.7917,266.428 244.4237,267.887 C245.1947,269.666 243.8777,271.761 241.9277,271.932 C241.5947,271.961 241.2597,271.946 240.9247,271.946 C224.9057,271.947 208.8867,271.924 192.8677,271.973028 C190.7227,271.979 189.5907,271.022 189.0837,269.164 C188.4327,266.778 187.9727,264.339 187.4577,261.916 C184.5597,248.273 181.6707,234.629 178.7767,220.985 C178.7307,220.77 178.6657,220.56 178.5947,220.293 L178.5947,220.293 Z" id="Fill-39" fill="#83BB9E"/><path d="M206.865704,285.8393 C206.8627,283.5773 205.1627,281.8923 202.8977,281.903246 C200.6997,281.9153 198.9887,283.6223 198.974628,285.8153 C198.9617,288.0313 200.7177,289.8203 202.9127,289.826311 C205.1327,289.8313 206.8687,288.0803 206.865704,285.8393 M202.9597,295.7613 C197.5597,295.7993 193.0367,291.3393 192.9747,285.9183 C192.9127,280.5023 197.4297,275.9483 202.8827,275.929246 C208.3457,275.9113 212.8527,280.3863 212.865724,285.8413 C212.8777,291.2253 208.3867,295.7223 202.9597,295.7613" id="Fill-40" fill="#83BB9E"/><path d="M230.6992,281.905136 C228.4822,281.9172 226.7242,283.6942 226.7512,285.8962 C226.7772,288.0332 228.5752,289.8162 230.7122,289.824227 C232.9222,289.8322 234.6732,288.0652 234.661261,285.8392 C234.6502,283.5662 232.9652,281.8932 230.6992,281.905136 M220.8172,285.7342 C220.9222,280.1842 225.4252,275.8352 230.9622,275.9352 C236.4012,276.0332 240.7452,280.6002 240.6422,286.1132 C240.5412,291.4412 235.9172,295.8732 230.5822,295.7552 C225.1092,295.6342 220.7152,291.1252 220.8172,285.7342" id="Fill-41" fill="#83BB9E"/><path d="M271.4126,298.06 C271.4126,309.636 262.0286,319.02 250.4526,319.02 C238.8766,319.02 229.4926,309.636 229.4926,298.06 C229.4926,286.484 238.8766,277.101 250.4526,277.101 C262.0286,277.101 271.4126,286.484 271.4126,298.06" id="Fill-42" fill="#EC7068"/><path d="M250.1548,307.4999 C250.0018,307.4999 249.8578,307.4299 249.7618,307.3099 L241.9218,297.3729 C241.7508,297.1559 241.7878,296.8419 242.0048,296.6709 C242.2218,296.4999 242.5358,296.5379 242.7068,296.7539 L250.1128,306.1409 L272.2808,271.7019 C272.4308,271.4699 272.7398,271.4029 272.9718,271.5519 C273.2048,271.7019 273.2718,272.0109 273.1218,272.2429 L250.5748,307.2709 C250.4878,307.4059 250.3408,307.4919 250.1788,307.4999 C250.1708,307.4999 250.1628,307.4999 250.1548,307.4999" id="Fill-43" fill="#000"/><path d="M74.0796,117.7226 C73.2826,118.5786 71.9366,118.6266 71.0806,117.8286 C70.2256,117.0316 70.1776,115.6866 70.9756,114.8306 C71.3926,114.3826 71.9596,114.1566 72.5286,114.1566 C73.0466,114.1566 73.5656,114.3446 73.9736,114.7236 C74.3886,115.1106 74.6276,115.6356 74.6476,116.2016 C74.6676,116.7676 74.4656,117.3076 74.0796,117.7226 L74.0796,117.7226 Z M70.3946,114.2896 C69.2996,115.4656 69.3646,117.3136 70.5396,118.4096 C71.1006,118.9316 71.8146,119.1896 72.5256,119.1896 C73.3076,119.1896 74.0866,118.8786 74.6596,118.2636 C75.1906,117.6946 75.4676,116.9516 75.4406,116.1736 C75.4126,115.3956 75.0836,114.6746 74.5146,114.1436 C73.3376,113.0476 71.4906,113.1136 70.3946,114.2896 L70.3946,114.2896 Z M54.4546,151.5386 L38.6276,136.7896 L64.2326,109.3106 L77.2956,111.1596 L80.0606,124.0596 L54.4546,151.5386 Z M78.0136,110.7226 C77.9786,110.5596 77.8456,110.4356 77.6816,110.4126 L64.1396,108.4966 C64.0126,108.4746 63.8816,108.5236 63.7936,108.6186 L37.7766,136.5386 C37.6276,136.6996 37.6366,136.9506 37.7966,137.0996 L54.2046,152.3896 C54.2786,152.4576 54.3746,152.4956 54.4756,152.4956 L54.4896,152.4956 C54.5946,152.4916 54.6936,152.4466 54.7656,152.3696 L80.7816,124.4496 C80.8706,124.3546 80.9066,124.2226 80.8796,124.0956 L78.0136,110.7226 Z" id="Fill-44" fill="#B5B6B7"/><path d="M272.7744,42.9438 C272.5024,42.9878 272.3164,43.2448 272.3604,43.5178 L277.6984,76.3678 C277.6984,87.5058 268.6374,96.5668 257.5004,96.5668 C246.3624,96.5668 237.3014,87.5058 237.3014,76.3678 L237.3014,75.8678 L237.2274,75.8678 L237.3004,42.9378 L194.7564,42.9378 L194.8284,76.3688 C194.8284,76.6448 195.0524,76.8678 195.3284,76.8678 L195.3294,76.8678 C195.6054,76.8668 195.8284,76.6428 195.8284,76.3668 L195.7584,43.9378 L236.2984,43.9378 L236.2264,76.3668 C236.2264,76.4628 236.2594,76.5478 236.3064,76.6238 C236.4444,88.1948 245.8974,97.5668 257.5004,97.5668 C269.1894,97.5668 278.6984,88.0568 278.692403,76.2878 L273.3484,43.3578 C273.3034,43.0848 273.0484,42.8968 272.7744,42.9438 M320.7784,-0.0002 L111.2784,-0.0002 C96.4364,-0.0002 84.3614,12.0748 84.3614,26.9168 L84.3614,42.0328 C84.3594,42.0328 84.3594,42.0348 84.3584,42.0348 C84.2794,42.0678 84.2144,42.1248 84.1604,42.1938 C84.1464,42.2118 84.1364,42.2278 84.1254,42.2468 C84.1124,42.2698 84.0934,42.2868 84.0834,42.3108 L70.5554,76.1818 L70.5584,76.1838 C70.5354,76.2408 70.5214,76.3018 70.5214,76.3678 C70.5214,88.0568 80.0314,97.5668 91.7204,97.5668 C103.4094,97.5668 112.9194,88.0568 112.9194,76.3678 C112.9194,76.0908 112.6954,75.8678 112.4194,75.8678 C112.1434,75.8678 111.9194,76.0908 111.9194,76.3678 C111.9194,87.5058 102.8584,96.5668 91.7204,96.5668 C80.6104,96.5668 71.5704,87.5488 71.5254,76.4498 L84.8864,42.9968 L85.3614,42.9968 L85.3614,26.9168 C85.3614,12.6268 96.9874,0.9998 111.2784,0.9998 L320.7784,0.9998 C321.0544,0.9998 321.2784,0.7768 321.2784,0.4998 C321.2784,0.2238 321.0544,-0.0002 320.7784,-0.0002" id="Fill-45" fill="#000"/></g></g></g><g transform="translate(548.707073, 198.494000) scale(-1, 1) translate(-548.707073, -198.494000) translate(283.207073, -177.006000) scale(1 1)" id="Master/Character/Standing"><defs><polygon id="mastercharacterstanding-path-1" points="0 -0.000126433058 71.516 -0.000126433058 71.516 59.6565 0 59.6565"/></defs><g id="Master/Character/Standing" stroke="none" stroke-width="1" fill="none" fill-rule="evenodd"><g id="Lower Body/Standing" transform="translate(47.000000, 444.000000) scale(1 1)"><g id="Lower Body/Standing/Walking Shoes" stroke="none" stroke-width="1" fill="none" fill-rule="evenodd"><g id="Group" transform="translate(133.000041, 42.999700)"><path d="M166.830759,260.6316 C160.833759,256.9566 133.184759,246.6776 132.555759,238.3066 C131.579759,225.3146 131.612759,204.5426 131.785759,189.6026 C123.730759,190.4516 114.457759,191.3366 104.595759,192.1006 L115.757759,238.5066 C116.297759,242.6936 117.024759,243.0946 112.472759,252.5926 C108.158759,261.5896 118.710759,263.0136 118.710759,263.0136 L166.113759,263.132605 C166.860759,263.1346 167.468759,262.5286 167.468759,261.7816 C167.468759,261.3116 167.231759,260.8766 166.830759,260.6316 M55.399759,260.6316 C49.403759,256.9566 21.522759,247.9376 24.290759,240.0126 C27.144759,231.8366 39.066759,209.7836 47.360759,194.0976 C37.158759,193.8576 27.610759,193.1716 19.429759,191.8656 L8.42575899,236.0166 C7.13275899,240.3586 4.72875899,242.5956 0.792758991,252.6106 C-2.85724101,261.8976 7.28075899,263.0136 7.28075899,263.0136 L54.683759,263.132605 C55.431759,263.1346 56.037759,262.5286 56.037759,261.7816 C56.037759,261.3116 55.800759,260.8766 55.399759,260.6316" id="Skin" fill="#673a18"/><path d="M166.830759,260.6316 C165.091759,259.5666 148.762759,250.8816 144.040759,249.2326 C140.470759,256.9376 117.199759,253.3076 115.006759,246.9106 C114.977759,246.9816 112.251759,252.5396 112.223759,252.6106 C108.573759,261.8976 118.710759,263.0136 118.710759,263.0136 L166.114759,263.132605 C166.860759,263.1346 167.468759,262.5286 167.468759,261.7816 C167.468759,261.3116 167.231759,260.8766 166.830759,260.6316 M55.399759,260.6316 C53.660759,259.5666 37.544759,251.5736 32.822759,249.9246 C29.253759,257.6296 8.39875899,253.4806 3.35775899,246.6296 C3.32975899,246.6996 0.820758991,252.5396 0.792758991,252.6106 C-2.85724101,261.8976 7.28075899,263.0136 7.28075899,263.0136 L54.683759,263.132605 C55.431759,263.1346 56.037759,262.5286 56.037759,261.7816 C56.037759,261.3116 55.800759,260.8766 55.399759,260.6316" id="Shoes" fill="#53627B"/><path d="M121.552659,0.5004 C121.552659,0.5004 146.506479,97.1407679 144.540614,133.720932 C142.574749,170.301096 136.032259,232.3044 136.032259,232.3044 L104.595759,232.3044 C104.595759,232.3044 107.234659,150.6144 105.202659,135.7144 C103.170659,120.8144 88.948659,86.2744 88.948659,86.2744 L35.444659,232.5944 L6.99965899,228.5304 C6.99965899,228.5304 32.735659,127.5874 32.735659,99.1434 C32.735659,70.6974 35.444659,0.5004 35.444659,0.5004 L121.552659,0.5004 Z" id="Pants" fill="#F9E272"/><path d="M32.735759,99.643 C33.011759,99.643 33.235759,99.419 33.235759,99.143 C33.235759,72.264 35.687759,7.26 35.925759,1 L121.552759,1 C121.828759,1 122.052759,0.777 122.052759,0.5 C122.052759,0.224 121.828759,0 121.552759,0 L35.444759,0 C35.175759,0 34.955759,0.212 34.944759,0.481 C34.917759,1.183 32.235759,71.013 32.235759,99.143 C32.235759,99.419 32.459759,99.643 32.735759,99.643 L32.735759,99.643 Z M3.06265899,246.2271 C3.28265899,246.0631 3.59765899,246.1091 3.76065899,246.3341 C6.97565899,250.7021 17.622659,254.2341 25.251659,253.4691 C27.824659,253.2111 31.147659,252.3491 32.368659,249.7151 C32.477659,249.4801 32.742659,249.3651 32.987659,249.4531 C37.804659,251.1341 54.066659,259.2291 55.660659,260.2051 C55.896659,260.3491 55.970659,260.6571 55.826659,260.8921 C55.731659,261.0471 55.567659,261.1321 55.399659,261.1321 C55.310659,261.1321 55.220659,261.1081 55.139659,261.0581 C53.601659,260.1161 38.288659,252.4911 33.065659,250.5451 C31.833659,252.7271 29.179659,254.0801 25.352659,254.4651 C17.290659,255.2731 6.40365899,251.6121 2.95565899,246.9251 C2.79165899,246.7041 2.83965899,246.3901 3.06265899,246.2271 Z M115.030659,246.4141 C115.234659,246.4241 115.412659,246.5551 115.479659,246.7491 C116.533659,249.8241 123.595659,252.6471 131.221659,253.0421 C137.644659,253.3681 142.267659,251.8711 143.586659,249.0221 C143.702659,248.7711 144.001659,248.6621 144.250659,248.7781 C144.501659,248.8941 144.609659,249.1921 144.494659,249.4421 C143.125659,252.3961 138.850659,254.0871 132.902659,254.0871 C132.339659,254.0871 131.761659,254.0711 131.169659,254.0411 C124.643659,253.7031 117.244659,251.4061 115.015659,248.0361 C114.814659,248.4461 114.523659,249.0401 114.103659,249.9011 C113.421659,251.2941 112.727659,252.7121 112.680659,252.8141 C112.565659,253.0611 112.276659,253.1751 112.027659,253.0681 C111.778659,252.9621 111.658659,252.6781 111.758659,252.4261 C111.774659,252.3851 111.845659,252.2401 113.204659,249.4611 C113.860659,248.1201 114.505659,246.8031 114.550659,246.7071 C114.636659,246.5201 114.816659,246.4181 115.030659,246.4141 Z M122.823431,241.179266 L122.914659,241.1911 C123.183659,241.2551 123.350659,241.5231 123.287659,241.7931 L123.287659,241.7931 L122.906659,243.4211 C122.515659,245.0961 123.007659,246.8231 124.224659,248.0391 C124.419659,248.2341 124.419659,248.5501 124.224659,248.7461 C124.126659,248.8431 123.998659,248.8921 123.870659,248.8921 C123.742659,248.8921 123.614659,248.8431 123.517659,248.7461 C122.054659,247.2841 121.462659,245.2091 121.932659,243.1931 L121.932659,243.1931 L122.313659,241.5641 C122.376659,241.2961 122.638659,241.1311 122.914659,241.1911 Z M11.3935726,241.179267 L11.482659,241.1911 C11.752659,241.2551 11.919659,241.5231 11.856659,241.7921 L11.856659,241.7921 L11.477659,243.4201 C11.084659,245.0951 11.576659,246.8221 12.793659,248.0391 C12.988659,248.2341 12.988659,248.5501 12.793659,248.7461 C12.695659,248.8431 12.567659,248.8921 12.439659,248.8921 C12.312659,248.8921 12.184659,248.8431 12.086659,248.7461 C10.623659,247.2831 10.031659,245.2071 10.502659,243.1921 L10.502659,243.1921 L10.882659,241.5651 C10.945659,241.2961 11.214659,241.1311 11.482659,241.1911 Z M94.001759,47.601 L94.990759,47.744 C94.990759,47.744 92.109759,67.649 89.432759,86.138 C89.924759,87.337 103.706759,121.045 105.697759,135.647 C105.735759,135.92 105.543759,136.172 105.270759,136.209 C104.997759,136.244 104.744759,136.056 104.707759,135.782 C102.963759,122.997 91.3623438,93.6265676 88.4943438,86.4995676 C81.5845768,107.774746 78.1040267,118.587002 78.0526934,118.936335 C78.0446934,118.991002 64.3479748,155.98149 36.9625375,229.9078 C36.9265375,230.1558 36.7125375,230.3348 36.4685375,230.3348 C36.4445375,230.3348 35.9985375,230.337161 35.9735375,230.3348 C35.7005375,230.2948 35.9325375,230.0348 35.9735375,229.7618 L35.9735375,229.7618 L83.0273027,100.868708 C83.7205592,96.0818378 86.1771872,91.6782189 87.2509356,86.138 C90.7865569,67.8952565 94.001759,47.601 94.001759,47.601 L94.001759,47.601 Z" id="Fill-9" fill="#000"/></g></g></g><g id="Upper Body" transform="translate(8.000000, 189.000000) scale(1 1)"><g id="Upper Body/On the phone Red Shirt" stroke="none" stroke-width="1" fill="none" fill-rule="evenodd"><path d="M170.522726,237.8542 C170.522726,237.8542 183.218794,245.187088 201.054794,247.653088 C201.054794,247.653088 201.860031,290.303561 203.695732,306.625564 C203.750325,307.110972 207.364962,310.184074 209.44978,311.243747 C211.750445,312.413131 221.260208,311.281519 221.802654,311.243747 C231.668654,310.562747 239.289719,309.920747 252.192719,311.243747 C261.584293,312.208022 280.763788,310.041026 290.906603,310.041026 C300.86533,310.041026 300.86533,302.815007 300.86533,302.608006 C300.86533,289.717175 293.836323,245.2642 293.836323,237.8542 L295.923141,247.653088 C295.923141,247.653088 325.242207,240.415 328.278207,237 C328.278207,237 317.24145,178.211135 257.665332,182.4459 C257.665332,182.4459 248.7292,195.729658 249.2587,195.729658 C249.7882,195.729658 244.995889,185.622669 242.678826,182.4459 C242.320067,181.954029 235.5163,182.4459 235.5163,182.4459 C235.5163,182.4459 185.73562,182.4459 170.522726,237.8542 Z" id="Fill" fill="#EC7068"/><path d="M259.8827,256.5319 L241.9757,250.6689 C240.5527,250.2029 239.7767,248.6709 240.2417,247.2469 L253.1647,207.7829 C253.6307,206.3589 255.1617,205.5829 256.5857,206.0499 L274.4927,211.9129 C275.9157,212.3789 276.6927,213.9109 276.2267,215.3339 L263.3037,254.7989 C262.8377,256.2219 261.3057,256.9979 259.8827,256.5319" id="Phone-Case" fill="#F1EFEF"/><path d="M257.0224,209.3757 C256.8324,209.3757 256.6424,209.4207 256.4664,209.5097 C256.1734,209.6577 255.9554,209.9127 255.8534,210.2247 C255.6414,210.8707 255.9954,211.5677 256.6404,211.7797 C257.0484,211.9127 257.4894,211.8237 257.8224,211.5387 C257.9234,211.4517 258.0554,211.4077 258.1874,211.4207 C258.3204,211.4317 258.4434,211.4957 258.5294,211.5967 C258.6144,211.6987 258.6934,211.7587 258.7764,211.7867 C259.0864,211.8867 259.4104,211.7187 259.5094,211.4147 C259.5584,211.2677 259.5454,211.1097 259.4754,210.9717 C259.4064,210.8337 259.2864,210.7297 259.1384,210.6817 C259.0504,210.6537 258.9524,210.6557 258.8244,210.6887 C258.6964,210.7207 258.5574,210.7007 258.4444,210.6317 C258.3304,210.5627 258.2484,210.4517 258.2154,210.3217 C258.1144,209.9007 257.8114,209.5707 257.4074,209.4377 C257.2814,209.3967 257.1514,209.3757 257.0224,209.3757 M257.0214,212.8407 C256.7904,212.8407 256.5564,212.8047 256.3304,212.7297 C255.1604,212.3467 254.5194,211.0837 254.9024,209.9137 C255.0884,209.3467 255.4834,208.8867 256.0154,208.6177 C256.5464,208.3477 257.1514,208.3017 257.7184,208.4877 C258.3114,208.6817 258.7834,209.1067 259.0404,209.6627 C259.1814,209.6657 259.3174,209.6877 259.4494,209.7317 C259.8504,209.8627 260.1764,210.1427 260.3684,210.5197 C260.5584,210.8967 260.5914,211.3247 260.4604,211.7257 C260.1904,212.5537 259.2984,213.0077 258.4654,212.7367 C258.3364,212.6947 258.2164,212.6347 258.1034,212.5557 C257.7694,212.7437 257.3974,212.8407 257.0214,212.8407" id="Fill-129" fill="#000"/><path d="M326.2402,238.6232 L298.3992,246.9362 L302.8882,260.8232 C301.0662,258.7862 291.5532,254.3672 291.5532,254.3672 C291.5532,254.3672 275.7112,248.8932 275.5592,240.5432 C275.4082,232.1922 271.7632,228.7002 271.7632,228.7002 L270.8522,232.0402 C270.8522,232.0402 272.0672,239.0242 270.8522,236.8982 C269.6382,234.7732 268.4242,230.6742 268.4242,230.6742 C264.4762,221.1082 262.0472,221.1082 262.0472,221.1082 C259.4662,222.7782 265.9942,237.3542 265.9942,237.3542 C262.8052,235.3812 261.1362,230.8252 257.7962,225.9672 C254.4552,221.1082 253.6962,222.7342 253.6962,222.7342 C252.3302,227.5492 262.3502,241.9092 262.3502,241.9092 C260.6192,241.2912 254.4092,232.0562 252.1662,228.6522 C251.6732,227.9042 250.5002,228.0902 250.2992,228.9642 C249.1772,233.8252 258.5542,245.0982 258.5542,245.0982 C256.1262,243.5792 254.3032,240.8462 251.7222,237.6582 C249.1412,234.4702 248.7292,236.2692 248.7292,236.2692 C249.9152,246.0082 259.9222,253.1112 265.4442,256.3312 C267.9512,257.7932 270.2212,259.6132 272.1542,261.7782 C283.2842,274.2512 321.1902,314.4972 330.4372,294.9772 C341.3092,272.0232 326.2402,238.6232 326.2402,238.6232 L326.2402,238.6232 Z M246.5252,221.9732 C242.1152,224.0022 216.3382,236.5242 195.8602,260.8232 L201.2912,247.2862 L173.6322,239.0282 C173.6322,239.0282 155.7532,291.5942 171.4582,298.1172 C187.1622,304.6412 213.0142,275.0732 224.2602,261.9592 C224.2602,261.9592 227.2962,258.5572 230.7192,254.3672 C231.3192,253.6342 231.9292,252.8772 232.5382,252.1092 C233.2102,251.2642 233.8782,250.4052 234.5242,249.5542 C234.5242,249.5542 233.0812,256.0772 234.5242,255.3522 C235.9682,254.6272 240.3652,249.4922 239.5922,244.4792 C239.5922,244.4792 242.8582,243.8942 241.9502,239.5972 C241.9502,239.5972 243.6172,238.3192 243.5052,236.3932 C243.4122,234.7922 241.9552,233.6072 240.3522,233.6072 L235.8902,232.7872 C235.8902,232.7872 247.5562,227.5672 247.3062,222.4322 C247.2882,222.0502 246.8722,221.8122 246.5252,221.9732 L246.5252,221.9732 Z M257.5672,183.2322 L257.5672,173.0002 L242.9502,173.0002 L242.9502,182.9392 L250.2592,198.3312 L257.5672,183.2322 Z" id="Skin" fill="#673a18"/><path d="M204.4089,251.5954 C204.6029,251.7924 204.6009,252.1094 204.4029,252.3024 C189.8999,266.6034 182.6069,274.4594 182.5359,274.5374 C182.4379,274.6434 182.3029,274.6974 182.1689,274.6974 C182.0469,274.6974 181.9259,274.6534 181.8289,274.5644 C181.6269,274.3764 181.6139,274.0604 181.8019,273.8574 C181.8739,273.7804 189.1819,265.9074 203.7019,251.5914 C203.8979,251.3974 204.2139,251.3994 204.4089,251.5954 Z M272.6172,228.9221 C273.6122,230.1931 275.9382,233.8681 276.0592,240.5331 C276.2032,248.4391 291.5612,253.8401 291.7162,253.8941 C292.1532,254.0941 301.2372,258.3271 303.2132,260.4371 C303.8092,260.8181 308.3812,263.8201 311.3962,268.1111 C311.5542,268.3371 311.5012,268.6491 311.2742,268.8081 C311.1872,268.8701 311.0872,268.8991 310.9872,268.8991 C310.8302,268.8991 310.6752,268.8251 310.5782,268.6871 C307.5352,264.3551 302.6722,261.2771 302.6232,261.2471 C302.5832,261.2221 302.5472,261.1911 302.5152,261.1571 C300.7832,259.2191 291.4372,254.8641 291.3422,254.8201 C290.7302,254.6111 275.2162,249.1531 275.0592,240.5521 C274.9442,234.1891 272.7622,230.7301 271.8302,229.5381 C271.6602,229.3211 271.6982,229.0061 271.9152,228.8361 C272.1332,228.6671 272.4472,228.7041 272.6172,228.9221 Z M249.2253,236.2092 C250.3763,245.6572 260.0393,252.6012 265.6963,255.8992 C265.9343,256.0382 266.0153,256.3442 265.8763,256.5832 C265.7833,256.7422 265.6163,256.8312 265.4443,256.8312 C265.3583,256.8312 265.2713,256.8092 265.1923,256.7632 C259.3753,253.3712 249.4353,246.2062 248.2333,236.3302 C248.2003,236.0562 248.3943,235.8072 248.6693,235.7732 C248.9423,235.7372 249.1923,235.9352 249.2253,236.2092 Z M246.8795,221.6203 C246.9535,221.6953 247.6045,222.3923 247.3925,223.7093 C246.986004,226.232345 243.626377,229.235061 237.647949,232.437524 C240.130938,232.707093 242.911401,233.383437 243.6281,235.0324 C244.617048,237.311039 243.401765,239.075642 242.459305,239.840218 C242.75344,240.585649 242.75131,241.404487 242.4547,242.2827 C242.404677,242.620589 242.090086,243.779799 240.158981,244.762345 C240.279761,245.368519 240.265639,246.032158 240.1155,246.749 C238.9085,252.504 234.9975,255.616 234.8315,255.746 C234.6815,255.892 234.4405,256.009 234.1855,256.009 C234.0535,256.009 233.9175,255.978 233.7895,255.903 C233.1375,255.521 232.7635,254.261 234.4265,247.68 C234.4815,247.281 234.4215,246.683 234.2475,246.586 C234.1235,246.518 233.6345,246.601 232.6535,247.416 C232.4415,247.592 232.1255,247.564 231.9495,247.35 C231.7725,247.138 231.8015,246.823 232.0145,246.646 C232.7745,246.016 233.8835,245.235 234.7385,245.715 C235.6075,246.204 235.4465,247.601 235.4055,247.876 C234.1445,252.878 234.1845,254.437 234.2795,254.9 C234.9845,254.3 238.1215,251.384 239.1365,246.544 C239.3805,245.381 239.1965,244.451 238.5735,243.704 C236.8445,241.629 232.3995,241.709 232.3465,241.717 L232.3335,241.717 C232.0635,241.717 231.8405,241.501 231.8335,241.23 C231.8275,240.953 232.0445,240.724 232.3215,240.717 C232.5235,240.716 237.3075,240.622 239.3415,243.064 C239.535737,243.2968 239.698517,243.543929 239.8298,243.804924 C241.346174,242.990884 241.465783,242.134875 241.4667,242.1257 C241.4707,242.0897 241.4807,242.0387 241.4927,242.0047 C241.7927,241.1477 241.7287,240.4117 241.2957,239.7527 C239.6507,237.2457 233.5047,236.7727 233.4437,236.7687 C233.1677,236.7487 232.9607,236.5087 232.9807,236.2337 C233.0007,235.9577 233.2327,235.7507 233.5157,235.7717 C233.779657,235.790138 239.842803,236.258725 241.950333,238.952224 C242.477395,238.467759 243.493136,237.232316 242.7101,235.4304 C241.9411,233.6624 236.6521,233.1724 233.4961,233.2774 C233.2161,233.2884 232.9891,233.0714 232.9791,232.7954 C232.9711,232.5184 233.1861,232.2874 233.4631,232.2784 C233.72829,232.269256 234.609284,232.246885 235.752816,232.296069 L235.6645,232.3413 C244.4185,227.9233 246.1455,224.9703 246.3965,223.6023 C246.5515,222.7533 246.1795,222.3363 246.1635,222.3183 C245.9805,222.1183 245.9875,221.8033 246.1835,221.6153 C246.3785,221.4273 246.6865,221.4263 246.8795,221.6203 Z M250.4106,228.4763 C250.6806,228.5383 250.8476,228.8063 250.7856,229.0763 C249.7326,233.6423 258.8466,244.6663 258.9396,244.7773 C259.1156,244.9903 259.0866,245.3053 258.8736,245.4813 C258.7816,245.5593 258.6676,245.5973 258.5546,245.5973 C258.4106,245.5973 258.2696,245.5353 258.1696,245.4173 C257.7816,244.9493 248.6486,233.8963 249.8116,228.8513 C249.8736,228.5823 250.1426,228.4153 250.4106,228.4763 Z M253.8325,222.2539 C254.0985,222.3289 254.2525,222.6049 254.1775,222.8709 C253.1105,226.6329 260.0115,237.6819 262.7605,241.6229 C262.9185,241.8489 262.8635,242.1609 262.6365,242.3189 C262.5495,242.3799 262.4505,242.4089 262.3505,242.4089 C262.1935,242.4089 262.0385,242.3339 261.9405,242.1949 C261.5255,241.6009 251.8005,227.5829 253.2145,222.5979 C253.2895,222.3319 253.5645,222.1759 253.8325,222.2539 Z M262.4671,220.8372 C262.6161,221.0682 262.5511,221.3782 262.3181,221.5282 C260.9471,222.4162 263.3951,230.3282 266.4501,237.1492 C266.5631,237.4022 266.4501,237.6972 266.1981,237.8112 C266.1321,237.8402 266.0621,237.8542 265.9941,237.8542 C265.8041,237.8542 265.6211,237.7442 265.5381,237.5592 C264.4181,235.0592 258.9751,222.5002 261.7751,220.6882 C262.0061,220.5402 262.3161,220.6042 262.4671,220.8372 Z" id="Combined-Shape" fill="#000"/></g></g><g id="Hair" transform="translate(107.000000, 209.000000) scale(1 1)"><g id="Hair/No Hair" stroke="none" stroke-width="1" fill="none" fill-rule="evenodd"><g id="Head" transform="translate(132.000000, 111.000000)"><path d="M44.1789,24.3663 C44.5879,35.6913 33.3599,45.0883 22.4569,45.0883 C11.5539,45.0883 0.4939,36.9643 0.0189,25.3903 C-0.4461,14.0673 7.7449,1.3583 15.9329,0.2613 C32.6079,-1.9747 43.6789,10.5083 44.1789,24.3663" id="Fill-1" fill="#000"/><path d="M22.4567,44.088 C12.4757,44.088 1.4787,36.559 1.0177,25.35 C0.5797,14.678 8.3147,2.291 16.0657,1.252 C17.3127,1.085 18.5577,1 19.7657,1 C34.4247,1 42.7697,13.058 43.1797,24.402 C43.3447,28.984 41.4627,33.553 37.8807,37.268 C33.7607,41.538 27.9947,44.088 22.4567,44.088" id="Skin" fill="#673a18"/></g><path d="M141.145,131.235 C141.363,131.071 141.679,131.112 141.846,131.333 C142.012,131.554 141.968,131.868 141.747,132.034 C140.201,133.199 138.786,133.99 137.491,134.53 C137.567,134.519 138.437,134.395 139.295,135.026 C140.131,135.642 140.652,136.736 140.846,138.278 C140.88,138.552 140.685,138.802 140.412,138.836 C140.14,138.869 139.888,138.677 139.853,138.403 C139.7,137.173 139.307,136.288 138.72,135.844 C138.184,135.44 137.653,135.516 137.634,135.519 C136.791,135.642 136.44,136.893 136.526,138.065 C136.629,139.478 137.347,140.998 138.68,140.998 C138.956,140.998 139.18,141.222 139.18,141.498 C139.18,141.775 138.956,141.998 138.68,141.998 C137.926,141.998 137.311,141.703 136.829,141.237 L136.829,141.237 L136.791,141.197 C136.64,141.046 136.5,140.88 136.376,140.7 C136.387,140.731 136.401,140.76 136.413,140.791 C135.52,139.695 135.405,138.418 135.504,137.442 L135.504,137.442 L135.516,137.53 C135.523,137.296 135.556,137.068 135.594,136.844 C135.618,136.719 135.644,136.603 135.671,136.499 C135.713,136.334 135.756,136.17 135.815,136.019 C135.829,135.981 135.841,135.95 135.849,135.928 C136.047,135.468 136.334,135.081 136.722,134.83 C136.469,134.918 136.221,134.997 135.978,135.065 C135.955,135.071 135.932,135.076 135.909,135.082 C135.712,135.137 135.518,135.184 135.328,135.226 C134.346,135.433 133.398,135.472 132.985,135.479 C129.84,135.42 128.164,133.733 128.137,133.704 C127.947,133.503 127.956,133.187 128.156,132.997 C128.356,132.809 128.673,132.817 128.861,133.014 C128.959,133.116 130.347,134.495 133.017,134.524 C134.98,134.608 137.022,133.666 137.022,133.666 L137.022,133.666 C138.259,133.15 139.63,132.376 141.145,131.235 Z M141.1454,127.8568 C141.3634,127.6928 141.6784,127.7338 141.8454,127.9558 C142.0114,128.1758 141.9674,128.4898 141.7464,128.6558 C139.8914,130.0538 138.2184,130.9298 136.7274,131.4498 C136.7254,131.4498 136.7244,131.4498 136.7214,131.4508 C136.7204,131.4518 136.7174,131.4528 136.7164,131.4528 C136.3084,131.5948 135.9164,131.7058 135.5364,131.7978 C134.7054,131.9738 133.8724,132.0568 133.4444,132.0898 C133.3474,132.0938 133.2424,132.1098 133.1484,132.1108 L133.1484,132.1108 L133.1424,132.1108 L132.832369,132.105438 C129.983375,132.00644 128.385397,130.567266 128.162964,130.352212 L128.1364,130.3258 C127.9474,130.1258 127.9554,129.8088 128.1564,129.6188 C128.3564,129.4308 128.6714,129.4368 128.8624,129.6368 C128.9604,129.7388 130.2644,130.9948 132.7304,131.1188 C132.8084,131.1328 132.8864,131.1478 132.9824,131.1528 C134.9544,131.2498 137.0224,130.2948 137.0224,130.2948 C137.0224,130.2948 137.0254,130.2858 137.0274,130.2818 C138.2604,129.7698 139.6304,128.9988 141.1454,127.8568 Z M176.5839,121.1 C176.8029,120.936 177.1169,120.977 177.2839,121.199 C177.4499,121.419 177.4059,121.733 177.1849,121.899 C175.8269,122.923 174.4869,123.716 173.1909,124.291 C173.5069,124.883 173.7949,125.492 174.0539,126.116 C174.8789,125.66 175.7249,125.125 176.5839,124.479 C176.8029,124.315 177.1169,124.356 177.2839,124.578 C177.4499,124.798 177.4059,125.112 177.1849,125.278 C176.2439,125.987 175.3119,126.575 174.4019,127.068 C174.6229,127.685 174.8129,128.315 174.9749,128.958 C175.5099,128.622 176.0469,128.262 176.5839,127.857 C176.8029,127.693 177.1169,127.734 177.2839,127.956 C177.4499,128.175 177.4059,128.489 177.1849,128.656 C176.6309,129.074 176.0759,129.444 175.5229,129.789 L175.5229,129.789 L174.2949,130.51 C174.2679,130.364 174.2579,130.211 174.2269,130.067 C174.2149,130.049 174.1069,129.792 174.1299,129.677 C173.6529,127.567 172.8309,125.588 171.7369,123.792 C172.0499,123.7 172.6039,123.507 173.2869,123.146 C173.2929,123.143 173.2959,123.134 173.3019,123.13 C174.3679,122.612 175.4659,121.943 176.5839,121.1 Z M141.1454,124.4789 C141.3634,124.3149 141.6784,124.3559 141.8454,124.5779 C142.0114,124.7979 141.9674,125.1119 141.7464,125.2779 C139.6014,126.8949 137.6964,127.8169 136.0374,128.2959 L136.0374,128.2959 C135.0524,128.5689 133.9314,128.6809 133.4244,128.7189 C133.3314,128.7219 133.2334,128.7329 133.1424,128.7329 C129.8894,128.7329 128.1644,126.9779 128.1364,126.9479 C127.9474,126.7479 127.9554,126.4309 128.1564,126.2409 C128.3564,126.0529 128.6724,126.0609 128.8614,126.2579 C128.9634,126.3649 130.4904,127.8749 133.4264,127.7569 C133.4374,127.7579 133.4454,127.7599 133.4554,127.7609 C135.4294,127.8589 137.8804,126.5229 137.8804,126.5229 C137.8804,126.5229 137.8824,126.5129 137.8834,126.5089 C138.8894,126.0149 139.9714,125.3639 141.1454,124.4789 Z" id="Combined-Shape" fill="#000"/></g></g><g id="Expression" transform="translate(204.000000, 312.000000) scale(1 1)"><g id="Expression/Relax" stroke="none" stroke-width="1" fill="none" fill-rule="evenodd"><path d="M49.0105,26.3156 C49.1135,26.3156 49.2155,26.2846 49.3045,26.2206 C51.3455,24.7386 53.3825,25.0236 53.4035,25.0266 C53.6715,25.0706 53.9305,24.8826 53.9725,24.6086 C54.0145,24.3366 53.8295,24.0826 53.5575,24.0396 C53.4575,24.0226 51.1065,23.6746 48.7165,25.4106 C48.4925,25.5736 48.4445,25.8856 48.6065,26.1096 C48.7035,26.2446 48.8565,26.3156 49.0105,26.3156 M72.5845,28.7776 C72.4075,28.5666 72.0935,28.5366 71.8805,28.7156 C71.7205,28.8486 67.9305,31.9406 64.7345,28.7456 C64.5385,28.5496 64.2225,28.5496 64.0275,28.7456 C63.8315,28.9406 63.8315,29.2566 64.0275,29.4526 C65.3225,30.7486 66.7045,31.1796 67.9685,31.1796 C70.4585,31.1796 72.4925,29.5076 72.5235,29.4816 C72.7355,29.3046 72.7625,28.9896 72.5845,28.7776 M56.6395,28.7456 C56.4445,28.5496 56.1275,28.5496 55.9325,28.7456 C52.7375,31.9416 48.9455,28.8486 48.7855,28.7156 C48.5735,28.5376 48.2585,28.5676 48.0815,28.7776 C47.9045,28.9896 47.9315,29.3046 48.1435,29.4816 C48.1735,29.5076 50.2075,31.1796 52.6985,31.1796 C53.9615,31.1796 55.3435,30.7486 56.6395,29.4526 C56.8345,29.2566 56.8345,28.9406 56.6395,28.7456 M67.2635,25.0266 C67.2845,25.0236 69.3215,24.7386 71.3625,26.2206 C71.4505,26.2846 71.5535,26.3156 71.6565,26.3156 C71.8105,26.3156 71.9625,26.2446 72.0605,26.1096 C72.2225,25.8856 72.1735,25.5736 71.9495,25.4106 C69.5585,23.6746 67.2075,24.0226 67.1095,24.0396 C66.8365,24.0826 66.6525,24.3366 66.6945,24.6086 C66.7365,24.8826 66.9995,25.0716 67.2635,25.0266 M66.2575,42.7706 C60.6925,48.3346 54.6455,42.9836 54.3915,42.7536 C54.1885,42.5696 53.8705,42.5836 53.6855,42.7886 C53.4995,42.9926 53.5155,43.3086 53.7195,43.4946 C53.7655,43.5366 56.8405,46.2706 60.7315,46.2706 C62.6975,46.2706 64.8695,45.5726 66.9645,43.4776 C67.1595,43.2826 67.1595,42.9656 66.9645,42.7706 C66.7695,42.5756 66.4525,42.5756 66.2575,42.7706 M59.7885,31.1176 C60.9415,32.6566 62.8445,35.6946 62.1495,37.1586 C61.8605,37.7676 61.0665,38.0766 59.7885,38.0766 C58.5115,38.0766 57.7175,37.7676 57.4285,37.1586 C56.7335,35.6946 58.6365,32.6566 59.7885,31.1176 M56.5255,37.5866 C56.9935,38.5756 58.0915,39.0766 59.7885,39.0766 C61.4865,39.0766 62.5835,38.5756 63.0525,37.5866 C64.2415,35.0786 60.5955,30.5016 60.1755,29.9876 C59.9865,29.7546 59.5915,29.7546 59.4025,29.9876 C58.9825,30.5016 55.3355,35.0786 56.5255,37.5866" id="Fill-4" fill="#000"/><path d="M50.4996066,33 C52.4327301,33 54,33.8954741 54,35 C54,36.1045259 52.4327301,37 50.4996066,37 C48.5664831,37 47,36.1045259 47,35 C47,33.8954741 48.5664831,33 50.4996066,33 Z M68.5,33 C70.4329063,33 72,33.8954741 72,35 C72,36.1045259 70.4329063,37 68.5,37 C66.5670937,37 65,36.1045259 65,35 C65,33.8954741 66.5670937,33 68.5,33 Z" id="Cheeks" fill="#E2A2B5"/></g></g><g id="Facial Hair" transform="translate(204.167262, 311.700000) scale(1 1)"><g id="Facial Hair/Goatee" stroke="none" stroke-width="1" fill="none" fill-rule="evenodd"><path d="M67.3411406,50.3047072 C66.1241406,49.7847072 66.5581406,50.2127072 63.7321406,48.8337072 C62.7071406,48.3337072 61.3621406,48.2887072 60.3571406,48.8327072 C59.1891406,49.4657072 57.2881406,51.0827072 55.8571406,51.7047072 C54.1791406,52.4337072 61.3521406,58.0747072 61.6831406,58.3147072 C61.8721406,58.4527072 62.1701406,58.4527072 62.3611406,58.3167072 C63.8691406,57.2317072 68.7011406,50.8857072 67.3411406,50.3047072 M72.0561406,44.8937072 C70.8251406,37.3327072 67.0991406,37.4187072 64.4441406,38.5767072 C62.6371406,39.3647072 60.5451406,39.3647072 58.7391406,38.5767072 C56.0841406,37.4187072 52.3581406,37.3327072 51.1261406,44.8937072 C51.1261406,44.8937072 50.2291406,49.3487072 53.2191406,46.4547072 C56.2071406,43.5627072 56.0031406,40.3107072 61.5911406,40.4047072 C67.1791406,40.3107072 66.9751406,43.5627072 69.9631406,46.4547072 C72.9531406,49.3487072 72.0561406,44.8937072 72.0561406,44.8937072" id="Beard" fill="#372310"/></g></g><g id="Accesories" transform="translate(107.500000, 210.000000) scale(1 1)" fill="#000"><g id="Accesories/Simple Glases" stroke="none" stroke-width="1" fill="none" fill-rule="evenodd"><path d="M153.6922,129 C154.5482,129 155.3622,129.369 155.9252,130.013 C156.4882,130.657 156.7462,131.513 156.6332,132.361 L156.547997,132.998134 C156.879673,132.976172 157.215343,132.9622 157.558,132.9622 C158.066,132.9622 158.558,132.9922 159.04,133.0402 L159.038766,133.04 L158.9677,132.231 C158.8947,131.403 159.1737,130.577 159.7347,129.964 C160.2957,129.352 161.0927,129 161.9237,129 L169.6487,129 C170.5047,129 171.3187,129.369 171.8817,130.013 C172.4447,130.657 172.7027,131.513 172.5897,132.361 L171.8617,137.792 C171.6827,139.129 170.6237,140.178 169.2837,140.342 L166.1967,140.721 C166.0767,140.736 165.9567,140.744 165.8357,140.744 C165.7237,140.744 165.6117,140.737 165.5017,140.725 L162.0737,140.337 C160.6737,140.179 159.5777,139.057 159.4517,137.653 L159.130009,134.055083 C158.620319,133.995157 158.094652,133.9622 157.558,133.9622 C157.168,133.9622 156.787,133.9842 156.411,134.0162 L156.411,134.0162 L155.9052,137.792 C155.7262,139.129 154.6672,140.178 153.3272,140.342 L150.2402,140.721 C150.1202,140.736 150.0002,140.744 149.8792,140.744 C149.7672,140.744 149.6552,140.737 149.5452,140.725 L146.1172,140.337 C144.7172,140.179 143.6212,139.057 143.4952,137.653 L143.0112,132.231 C142.9382,131.403 143.2172,130.577 143.7782,129.964 C144.3392,129.352 145.1362,129 145.9672,129 L153.6922,129 Z M153.6922,130 L145.9672,130 C145.4082,130 144.8932,130.227 144.5162,130.639 C144.1382,131.052 143.9582,131.585 144.0082,132.142 L144.4912,137.564 C144.5742,138.495 145.3012,139.239 146.2302,139.344 L148.2162,139.568 L151.5602,139.552 L151.5602,139.552 L153.2052,139.35 C154.0932,139.241 154.7962,138.546 154.9142,137.659 L155.6412,132.228 C155.7172,131.666 155.5462,131.099 155.1722,130.671 C154.7992,130.245 154.2592,130 153.6922,130 Z M169.6487,130 L161.9237,130 C161.3647,130 160.8497,130.227 160.4727,130.639 C160.0947,131.052 159.9147,131.585 159.9647,132.142 L160.4477,137.564 C160.5307,138.495 161.2577,139.239 162.1867,139.344 L164.1747,139.568 L167.5147,139.552 L167.5147,139.552 L169.1617,139.35 C170.0497,139.241 170.7527,138.546 170.8707,137.659 L171.5977,132.228 C171.6737,131.666 171.5027,131.099 171.1287,130.671 C170.7557,130.245 170.2157,130 169.6487,130 Z" id="Combined-Shape" fill="#000"/></g></g></g></g><path d="M586.099,574 L154.5,574 C154.224,574 154,573.776 154,573.5 C154,573.224 154.224,573 154.5,573 L586.099,573 C586.375,573 586.599,573.224 586.599,573.5 C586.599,573.776 586.375,574 586.099,574" id="Fill-32" fill="#000"/><path d="M500.937,597 L401.5,597 C401.224,597 401,596.776 401,596.5 C401,596.224 401.224,596 401.5,596 L500.937,596 C501.213,596 501.437,596.224 501.437,596.5 C501.437,596.776 501.213,597 500.937,597" id="Fill-33" fill="#000"/><g id="Side Decoration" transform="translate(193.207073, 315.960000) scale(-1, 1) translate(-193.207073, -315.960000) translate(-55.292927, 57.960000) scale(0.9822134387351779 1)"><g id="Side Decoration/Wavy Leaves Copy" stroke="none" stroke-width="1" fill="none" fill-rule="evenodd"><path d="M234.980996,515.403988 C234.980996,515.403988 290.172996,490.801988 277.584996,484.102988 C264.997996,477.403988 265.784996,476.223988 278.371996,464.028988 C290.959996,451.835988 285.059996,449.868988 276.011996,445.934988 C266.964996,442.000988 281.971996,434.527988 288.599996,431.380988 C295.227996,428.233988 317.314996,421.152988 302.760996,408.958988 C288.206996,396.764988 334.622996,400.697988 317.314996,383.783988 C300.006996,366.868988 278.105996,392.437988 278.105996,392.437988 C278.105996,392.437988 258.874996,368.944988 250.134996,412.749988 C250.134996,412.749988 227.830996,397.209988 234.980996,432.953988 C234.980996,432.953988 216.693996,430.199988 229.464996,471.109988 C229.464996,471.109988 215.146996,471.531988 221.937996,492.621988 C223.921996,498.784988 226.990996,504.545988 230.828996,509.760988 L234.980996,515.403988 Z" id="Fill-20" fill="#83BB9E"/><path d="M234.980496,515.903988 C234.710496,515.903988 234.488496,515.688988 234.480496,515.417988 C234.476496,515.222988 234.029496,495.696988 240.795496,471.499988 C247.044496,449.153988 260.897496,418.125988 291.403496,397.213988 C291.631496,397.057988 291.942496,397.115988 292.099496,397.343988 C292.254496,397.571988 292.196496,397.882988 291.969496,398.038988 C261.720496,418.773988 247.973496,449.561988 241.767496,471.738988 C235.035496,495.796988 235.475496,515.196988 235.480496,515.389988 C235.488496,515.665988 235.270496,515.895988 234.994496,515.903988 L234.980496,515.903988 Z" id="Fill-21" fill="#000"/><path d="M277.584996,484.602788 C277.505996,484.602788 277.424996,484.583788 277.350996,484.543788 C271.215996,481.279788 268.418996,479.398788 268.063996,476.885788 C267.640996,473.880788 270.998996,470.476788 278.023996,463.670788 C283.246996,458.611788 285.473996,455.133788 285.033996,452.725788 C284.569996,450.182788 281.085996,448.675788 276.675996,446.767788 L275.812996,446.393788 C273.762996,445.501788 272.711996,444.339788 272.688996,442.939788 C272.621996,438.885788 281.614996,434.143788 288.384996,430.928788 C288.634996,430.811788 288.932996,430.916788 289.050996,431.165788 C289.169996,431.415788 289.063996,431.713788 288.813996,431.831788 C278.734996,436.617788 273.645996,440.349788 273.688996,442.922788 C273.704996,443.895788 274.553996,444.755788 276.210996,445.476788 L277.072996,445.849788 C281.757996,447.876788 285.457996,449.477788 286.017996,452.545788 C286.529996,455.350788 284.278996,459.002788 278.719996,464.388788 C272.124996,470.777788 268.699996,474.228788 269.054996,476.745788 C269.346996,478.814788 272.113996,480.624788 277.819996,483.661788 C278.063996,483.790788 278.156996,484.093788 278.026996,484.337788 C277.936996,484.506788 277.763996,484.602788 277.584996,484.602788" id="Fill-22" fill="#000"/><path d="M234.981396,515.903988 C234.827396,515.903988 234.676396,515.833988 234.578396,515.699988 L230.425396,510.056988 C226.415396,504.607988 223.399396,498.792988 221.461396,492.774988 C218.891396,484.793988 218.988396,478.763988 221.750396,474.853988 C224.018396,471.643988 227.398396,470.859988 228.805396,470.669988 C224.995396,458.290988 221.818396,442.368988 227.733396,435.469988 C230.103396,432.706988 233.060396,432.403988 234.364396,432.412988 C232.002396,420.199988 232.883396,412.647988 236.985396,409.960988 C242.091396,406.613988 250.082396,412.103988 250.420396,412.339988 C250.647396,412.497988 250.703396,412.808988 250.545396,413.035988 C250.387396,413.261988 250.075396,413.317988 249.849396,413.159988 C249.772396,413.106988 242.074396,407.819988 237.532396,410.797988 C233.788396,413.251988 233.075396,420.879988 235.471396,432.855988 C235.502396,433.014988 235.455396,433.179988 235.343396,433.297988 C235.231396,433.415988 235.068396,433.469988 234.907396,433.447988 C234.757396,433.426988 231.198396,432.949988 228.479396,436.136988 C225.336396,439.820988 223.040396,448.851988 229.942396,470.960988 C229.989396,471.109988 229.962396,471.271988 229.872396,471.399988 C229.782396,471.526988 229.636396,471.604988 229.481396,471.609988 C229.437396,471.610988 225.127396,471.793988 222.558396,475.442988 C219.997396,479.082988 219.947396,484.810988 222.413396,492.467988 C224.318396,498.382988 227.285396,504.101988 231.231396,509.464988 L235.383396,515.107988 C235.547396,515.329988 235.499396,515.642988 235.277396,515.806988 C235.188396,515.871988 235.084396,515.903988 234.981396,515.903988" id="Fill-23" fill="#000"/><path d="M224.287096,515.403988 C223.951096,515.858988 221.945096,508.313988 202.739096,500.388988 C183.534096,492.464988 189.477096,481.426988 203.910096,481.992988 C218.344096,482.559988 178.439096,470.140988 184.665096,462.182988 C190.892096,454.224988 201.002096,461.899988 202.739096,459.918988 C204.476096,457.937988 177.024096,442.937988 195.420096,432.465988 C213.816096,421.994988 219.759096,441.737988 222.023096,454.224988 C222.023096,454.224988 250.890096,444.635988 233.060096,479.162988 C233.060096,479.162988 257.117096,470.986988 224.287096,515.403988" id="Fill-24" fill="#83BB9E"/><path d="M224.287596,515.903988 C224.279596,515.903988 224.270596,515.903988 224.262596,515.903988 C223.986596,515.889988 223.774596,515.654988 223.787596,515.379988 C225.737596,475.557988 206.041596,444.191988 205.842596,443.879988 C205.693596,443.646988 205.761596,443.337988 205.994596,443.188988 C206.227596,443.039988 206.537596,443.108988 206.684596,443.340988 C206.886596,443.655988 226.752596,475.277988 224.786596,515.427988 C224.773596,515.695988 224.552596,515.903988 224.287596,515.903988" id="Fill-25" fill="#000"/><path d="M214.400896,506.793688 C214.308896,506.793688 214.216896,506.768688 214.132896,506.715688 C210.888896,504.657688 206.990896,502.684688 202.547896,500.851688 C193.840896,497.258688 189.223896,492.457688 190.196896,488.006688 C191.110896,483.824688 196.627896,481.203688 203.929896,481.493688 C204.205896,481.504688 204.420896,481.736688 204.409896,482.012688 C204.399896,482.289688 204.175896,482.509688 203.890896,482.492688 C197.192896,482.226688 191.968896,484.585688 191.173896,488.219688 C190.313896,492.158688 194.707896,496.534688 202.929896,499.926688 C207.425896,501.781688 211.375896,503.781688 214.669896,505.871688 C214.901896,506.019688 214.971896,506.328688 214.823896,506.561688 C214.728896,506.711688 214.566896,506.793688 214.400896,506.793688" id="Fill-26" fill="#000"/><path d="M227.949196,510.835188 C227.849196,510.835188 227.749196,510.805188 227.661196,510.744188 C227.436196,510.585188 227.382196,510.273188 227.541196,510.047188 C241.522196,490.211188 242.198196,483.023188 240.303196,480.486188 C238.389196,477.925188 233.272196,479.619188 233.221196,479.637188 C233.026196,479.701188 232.814196,479.644188 232.681196,479.489188 C232.549196,479.335188 232.523196,479.115188 232.616196,478.934188 C237.711196,469.068188 239.440196,461.947188 237.756196,457.768188 C237.043196,455.999188 235.689196,454.764188 233.730196,454.097188 C228.981196,452.481188 222.248196,454.676188 222.180196,454.699188 C221.918196,454.784188 221.635196,454.644188 221.548196,454.382188 C221.461196,454.120188 221.603196,453.837188 221.865196,453.750188 C222.154196,453.655188 228.981196,451.425188 234.052196,453.151188 C236.299196,453.916188 237.857196,455.343188 238.684196,457.395188 C240.421196,461.707188 238.851196,468.765188 234.017196,478.386188 C235.829196,477.979188 239.363196,477.559188 241.102196,479.885188 C244.150196,483.960188 239.863196,494.302188 228.358196,510.623188 C228.261196,510.761188 228.106196,510.835188 227.949196,510.835188" id="Fill-27" fill="#000"/><path d="M230.263696,483.507088 C230.151696,483.507088 230.037696,483.469088 229.944696,483.392088 C229.732696,483.216088 229.702696,482.901088 229.878696,482.688088 C229.930696,482.625088 235.136696,476.275088 236.698696,469.660088 C236.762696,469.390088 237.029696,469.227088 237.299696,469.288088 C237.568696,469.351088 237.735696,469.621088 237.671696,469.889088 C236.054696,476.736088 230.868696,483.060088 230.648696,483.326088 C230.550696,483.445088 230.407696,483.507088 230.263696,483.507088" id="Fill-28" fill="#000"/><path d="M222.023396,458.912288 C222.006396,458.912288 221.989396,458.911288 221.973396,458.910288 C221.698396,458.882288 221.498396,458.637288 221.525396,458.362288 C221.716396,456.460288 221.487396,453.945288 220.845396,450.885288 C220.788396,450.615288 220.961396,450.350288 221.231396,450.293288 C221.503396,450.238288 221.767396,450.410288 221.823396,450.680288 C222.487396,453.840288 222.721396,456.458288 222.520396,458.462288 C222.494396,458.720288 222.277396,458.912288 222.023396,458.912288" id="Fill-29" fill="#000"/><path d="M237.185496,441.481688 C236.998496,441.481688 236.819496,441.377688 236.733496,441.197688 C234.865496,437.295688 233.294496,425.007688 233.228496,424.486688 C233.193496,424.212688 233.387496,423.961688 233.661496,423.927688 C233.940496,423.897688 234.185496,424.086688 234.220496,424.360688 C234.236496,424.486688 235.836496,437.008688 237.636496,440.765688 C237.755496,441.014688 237.649496,441.313688 237.400496,441.432688 C237.331496,441.465688 237.257496,441.481688 237.185496,441.481688" id="Fill-30" fill="#000"/><path d="M274.338396,398.126688 C274.284396,398.126688 274.229396,398.117688 274.174396,398.099688 C273.913396,398.008688 273.775396,397.723688 273.865396,397.462688 C274.971396,394.270688 283.773396,386.356688 284.148396,386.021688 C284.352396,385.836688 284.669396,385.854688 284.854396,386.060688 C285.038396,386.265688 285.021396,386.581688 284.815396,386.766688 C284.725396,386.846688 275.832396,394.840688 274.811396,397.790688 C274.739396,397.997688 274.545396,398.126688 274.338396,398.126688" id="Fill-31" fill="#000"/></g></g></g></svg>